G04 #@! TF.GenerationSoftware,KiCad,Pcbnew,5.1.4*
G04 #@! TF.CreationDate,2019-08-22T23:24:25+12:00*
G04 #@! TF.ProjectId,phloxleds,70686c6f-786c-4656-9473-2e6b69636164,rev?*
G04 #@! TF.SameCoordinates,Original*
G04 #@! TF.FileFunction,Legend,Top*
G04 #@! TF.FilePolarity,Positive*
%FSLAX46Y46*%
G04 Gerber Fmt 4.6, Leading zero omitted, Abs format (unit mm)*
G04 Created by KiCad (PCBNEW 5.1.4) date 2019-08-22 23:24:25*
%MOMM*%
%LPD*%
G04 APERTURE LIST*
%ADD10C,0.120000*%
%ADD11C,0.100000*%
%ADD12C,0.150000*%
G04 APERTURE END LIST*
D10*
X62585000Y-25920000D02*
X63915000Y-25920000D01*
X62585000Y-27250000D02*
X62585000Y-25920000D01*
X65185000Y-25920000D02*
X67785000Y-25920000D01*
X65185000Y-28520000D02*
X65185000Y-25920000D01*
X62585000Y-28520000D02*
X65185000Y-28520000D01*
X67785000Y-25920000D02*
X67785000Y-48900000D01*
X62585000Y-28520000D02*
X62585000Y-48900000D01*
X62585000Y-48900000D02*
X67785000Y-48900000D01*
D11*
G36*
X172915000Y-50500000D02*
G01*
X173415000Y-50500000D01*
X173415000Y-52500000D01*
X172915000Y-52500000D01*
X172915000Y-50500000D01*
G37*
D12*
X171815000Y-50500000D02*
X174015000Y-50500000D01*
X171815000Y-52500000D02*
X174015000Y-52500000D01*
X171815000Y-51400000D02*
X171815000Y-51600000D01*
X174015000Y-51400000D02*
X174015000Y-51600000D01*
D11*
G36*
X168915000Y-50500000D02*
G01*
X169415000Y-50500000D01*
X169415000Y-52500000D01*
X168915000Y-52500000D01*
X168915000Y-50500000D01*
G37*
D12*
X167815000Y-50500000D02*
X170015000Y-50500000D01*
X167815000Y-52500000D02*
X170015000Y-52500000D01*
X167815000Y-51400000D02*
X167815000Y-51600000D01*
X170015000Y-51400000D02*
X170015000Y-51600000D01*
D11*
G36*
X164915000Y-50500000D02*
G01*
X165415000Y-50500000D01*
X165415000Y-52500000D01*
X164915000Y-52500000D01*
X164915000Y-50500000D01*
G37*
D12*
X163815000Y-50500000D02*
X166015000Y-50500000D01*
X163815000Y-52500000D02*
X166015000Y-52500000D01*
X163815000Y-51400000D02*
X163815000Y-51600000D01*
X166015000Y-51400000D02*
X166015000Y-51600000D01*
D11*
G36*
X160915000Y-50500000D02*
G01*
X161415000Y-50500000D01*
X161415000Y-52500000D01*
X160915000Y-52500000D01*
X160915000Y-50500000D01*
G37*
D12*
X159815000Y-50500000D02*
X162015000Y-50500000D01*
X159815000Y-52500000D02*
X162015000Y-52500000D01*
X159815000Y-51400000D02*
X159815000Y-51600000D01*
X162015000Y-51400000D02*
X162015000Y-51600000D01*
D11*
G36*
X156915000Y-50500000D02*
G01*
X157415000Y-50500000D01*
X157415000Y-52500000D01*
X156915000Y-52500000D01*
X156915000Y-50500000D01*
G37*
D12*
X155815000Y-50500000D02*
X158015000Y-50500000D01*
X155815000Y-52500000D02*
X158015000Y-52500000D01*
X155815000Y-51400000D02*
X155815000Y-51600000D01*
X158015000Y-51400000D02*
X158015000Y-51600000D01*
D11*
G36*
X152915000Y-50500000D02*
G01*
X153415000Y-50500000D01*
X153415000Y-52500000D01*
X152915000Y-52500000D01*
X152915000Y-50500000D01*
G37*
D12*
X151815000Y-50500000D02*
X154015000Y-50500000D01*
X151815000Y-52500000D02*
X154015000Y-52500000D01*
X151815000Y-51400000D02*
X151815000Y-51600000D01*
X154015000Y-51400000D02*
X154015000Y-51600000D01*
D11*
G36*
X148915000Y-50500000D02*
G01*
X149415000Y-50500000D01*
X149415000Y-52500000D01*
X148915000Y-52500000D01*
X148915000Y-50500000D01*
G37*
D12*
X147815000Y-50500000D02*
X150015000Y-50500000D01*
X147815000Y-52500000D02*
X150015000Y-52500000D01*
X147815000Y-51400000D02*
X147815000Y-51600000D01*
X150015000Y-51400000D02*
X150015000Y-51600000D01*
D11*
G36*
X144915000Y-50500000D02*
G01*
X145415000Y-50500000D01*
X145415000Y-52500000D01*
X144915000Y-52500000D01*
X144915000Y-50500000D01*
G37*
D12*
X143815000Y-50500000D02*
X146015000Y-50500000D01*
X143815000Y-52500000D02*
X146015000Y-52500000D01*
X143815000Y-51400000D02*
X143815000Y-51600000D01*
X146015000Y-51400000D02*
X146015000Y-51600000D01*
D11*
G36*
X140915000Y-50500000D02*
G01*
X141415000Y-50500000D01*
X141415000Y-52500000D01*
X140915000Y-52500000D01*
X140915000Y-50500000D01*
G37*
D12*
X139815000Y-50500000D02*
X142015000Y-50500000D01*
X139815000Y-52500000D02*
X142015000Y-52500000D01*
X139815000Y-51400000D02*
X139815000Y-51600000D01*
X142015000Y-51400000D02*
X142015000Y-51600000D01*
D11*
G36*
X136915000Y-50500000D02*
G01*
X137415000Y-50500000D01*
X137415000Y-52500000D01*
X136915000Y-52500000D01*
X136915000Y-50500000D01*
G37*
D12*
X135815000Y-50500000D02*
X138015000Y-50500000D01*
X135815000Y-52500000D02*
X138015000Y-52500000D01*
X135815000Y-51400000D02*
X135815000Y-51600000D01*
X138015000Y-51400000D02*
X138015000Y-51600000D01*
D11*
G36*
X132915000Y-50500000D02*
G01*
X133415000Y-50500000D01*
X133415000Y-52500000D01*
X132915000Y-52500000D01*
X132915000Y-50500000D01*
G37*
D12*
X131815000Y-50500000D02*
X134015000Y-50500000D01*
X131815000Y-52500000D02*
X134015000Y-52500000D01*
X131815000Y-51400000D02*
X131815000Y-51600000D01*
X134015000Y-51400000D02*
X134015000Y-51600000D01*
D11*
G36*
X128915000Y-50500000D02*
G01*
X129415000Y-50500000D01*
X129415000Y-52500000D01*
X128915000Y-52500000D01*
X128915000Y-50500000D01*
G37*
D12*
X127815000Y-50500000D02*
X130015000Y-50500000D01*
X127815000Y-52500000D02*
X130015000Y-52500000D01*
X127815000Y-51400000D02*
X127815000Y-51600000D01*
X130015000Y-51400000D02*
X130015000Y-51600000D01*
D11*
G36*
X172915000Y-46500000D02*
G01*
X173415000Y-46500000D01*
X173415000Y-48500000D01*
X172915000Y-48500000D01*
X172915000Y-46500000D01*
G37*
D12*
X171815000Y-46500000D02*
X174015000Y-46500000D01*
X171815000Y-48500000D02*
X174015000Y-48500000D01*
X171815000Y-47400000D02*
X171815000Y-47600000D01*
X174015000Y-47400000D02*
X174015000Y-47600000D01*
D11*
G36*
X168915000Y-46500000D02*
G01*
X169415000Y-46500000D01*
X169415000Y-48500000D01*
X168915000Y-48500000D01*
X168915000Y-46500000D01*
G37*
D12*
X167815000Y-46500000D02*
X170015000Y-46500000D01*
X167815000Y-48500000D02*
X170015000Y-48500000D01*
X167815000Y-47400000D02*
X167815000Y-47600000D01*
X170015000Y-47400000D02*
X170015000Y-47600000D01*
D11*
G36*
X164915000Y-46500000D02*
G01*
X165415000Y-46500000D01*
X165415000Y-48500000D01*
X164915000Y-48500000D01*
X164915000Y-46500000D01*
G37*
D12*
X163815000Y-46500000D02*
X166015000Y-46500000D01*
X163815000Y-48500000D02*
X166015000Y-48500000D01*
X163815000Y-47400000D02*
X163815000Y-47600000D01*
X166015000Y-47400000D02*
X166015000Y-47600000D01*
D11*
G36*
X160915000Y-46500000D02*
G01*
X161415000Y-46500000D01*
X161415000Y-48500000D01*
X160915000Y-48500000D01*
X160915000Y-46500000D01*
G37*
D12*
X159815000Y-46500000D02*
X162015000Y-46500000D01*
X159815000Y-48500000D02*
X162015000Y-48500000D01*
X159815000Y-47400000D02*
X159815000Y-47600000D01*
X162015000Y-47400000D02*
X162015000Y-47600000D01*
D11*
G36*
X156915000Y-46500000D02*
G01*
X157415000Y-46500000D01*
X157415000Y-48500000D01*
X156915000Y-48500000D01*
X156915000Y-46500000D01*
G37*
D12*
X155815000Y-46500000D02*
X158015000Y-46500000D01*
X155815000Y-48500000D02*
X158015000Y-48500000D01*
X155815000Y-47400000D02*
X155815000Y-47600000D01*
X158015000Y-47400000D02*
X158015000Y-47600000D01*
D11*
G36*
X152915000Y-46500000D02*
G01*
X153415000Y-46500000D01*
X153415000Y-48500000D01*
X152915000Y-48500000D01*
X152915000Y-46500000D01*
G37*
D12*
X151815000Y-46500000D02*
X154015000Y-46500000D01*
X151815000Y-48500000D02*
X154015000Y-48500000D01*
X151815000Y-47400000D02*
X151815000Y-47600000D01*
X154015000Y-47400000D02*
X154015000Y-47600000D01*
D11*
G36*
X148915000Y-46500000D02*
G01*
X149415000Y-46500000D01*
X149415000Y-48500000D01*
X148915000Y-48500000D01*
X148915000Y-46500000D01*
G37*
D12*
X147815000Y-46500000D02*
X150015000Y-46500000D01*
X147815000Y-48500000D02*
X150015000Y-48500000D01*
X147815000Y-47400000D02*
X147815000Y-47600000D01*
X150015000Y-47400000D02*
X150015000Y-47600000D01*
D11*
G36*
X144915000Y-46500000D02*
G01*
X145415000Y-46500000D01*
X145415000Y-48500000D01*
X144915000Y-48500000D01*
X144915000Y-46500000D01*
G37*
D12*
X143815000Y-46500000D02*
X146015000Y-46500000D01*
X143815000Y-48500000D02*
X146015000Y-48500000D01*
X143815000Y-47400000D02*
X143815000Y-47600000D01*
X146015000Y-47400000D02*
X146015000Y-47600000D01*
D11*
G36*
X140915000Y-46500000D02*
G01*
X141415000Y-46500000D01*
X141415000Y-48500000D01*
X140915000Y-48500000D01*
X140915000Y-46500000D01*
G37*
D12*
X139815000Y-46500000D02*
X142015000Y-46500000D01*
X139815000Y-48500000D02*
X142015000Y-48500000D01*
X139815000Y-47400000D02*
X139815000Y-47600000D01*
X142015000Y-47400000D02*
X142015000Y-47600000D01*
D11*
G36*
X136915000Y-46500000D02*
G01*
X137415000Y-46500000D01*
X137415000Y-48500000D01*
X136915000Y-48500000D01*
X136915000Y-46500000D01*
G37*
D12*
X135815000Y-46500000D02*
X138015000Y-46500000D01*
X135815000Y-48500000D02*
X138015000Y-48500000D01*
X135815000Y-47400000D02*
X135815000Y-47600000D01*
X138015000Y-47400000D02*
X138015000Y-47600000D01*
D11*
G36*
X132915000Y-46500000D02*
G01*
X133415000Y-46500000D01*
X133415000Y-48500000D01*
X132915000Y-48500000D01*
X132915000Y-46500000D01*
G37*
D12*
X131815000Y-46500000D02*
X134015000Y-46500000D01*
X131815000Y-48500000D02*
X134015000Y-48500000D01*
X131815000Y-47400000D02*
X131815000Y-47600000D01*
X134015000Y-47400000D02*
X134015000Y-47600000D01*
D11*
G36*
X128915000Y-46500000D02*
G01*
X129415000Y-46500000D01*
X129415000Y-48500000D01*
X128915000Y-48500000D01*
X128915000Y-46500000D01*
G37*
D12*
X127815000Y-46500000D02*
X130015000Y-46500000D01*
X127815000Y-48500000D02*
X130015000Y-48500000D01*
X127815000Y-47400000D02*
X127815000Y-47600000D01*
X130015000Y-47400000D02*
X130015000Y-47600000D01*
D11*
G36*
X172915000Y-42500000D02*
G01*
X173415000Y-42500000D01*
X173415000Y-44500000D01*
X172915000Y-44500000D01*
X172915000Y-42500000D01*
G37*
D12*
X171815000Y-42500000D02*
X174015000Y-42500000D01*
X171815000Y-44500000D02*
X174015000Y-44500000D01*
X171815000Y-43400000D02*
X171815000Y-43600000D01*
X174015000Y-43400000D02*
X174015000Y-43600000D01*
D11*
G36*
X168915000Y-42500000D02*
G01*
X169415000Y-42500000D01*
X169415000Y-44500000D01*
X168915000Y-44500000D01*
X168915000Y-42500000D01*
G37*
D12*
X167815000Y-42500000D02*
X170015000Y-42500000D01*
X167815000Y-44500000D02*
X170015000Y-44500000D01*
X167815000Y-43400000D02*
X167815000Y-43600000D01*
X170015000Y-43400000D02*
X170015000Y-43600000D01*
D11*
G36*
X164915000Y-42500000D02*
G01*
X165415000Y-42500000D01*
X165415000Y-44500000D01*
X164915000Y-44500000D01*
X164915000Y-42500000D01*
G37*
D12*
X163815000Y-42500000D02*
X166015000Y-42500000D01*
X163815000Y-44500000D02*
X166015000Y-44500000D01*
X163815000Y-43400000D02*
X163815000Y-43600000D01*
X166015000Y-43400000D02*
X166015000Y-43600000D01*
D11*
G36*
X160915000Y-42500000D02*
G01*
X161415000Y-42500000D01*
X161415000Y-44500000D01*
X160915000Y-44500000D01*
X160915000Y-42500000D01*
G37*
D12*
X159815000Y-42500000D02*
X162015000Y-42500000D01*
X159815000Y-44500000D02*
X162015000Y-44500000D01*
X159815000Y-43400000D02*
X159815000Y-43600000D01*
X162015000Y-43400000D02*
X162015000Y-43600000D01*
D11*
G36*
X156915000Y-42500000D02*
G01*
X157415000Y-42500000D01*
X157415000Y-44500000D01*
X156915000Y-44500000D01*
X156915000Y-42500000D01*
G37*
D12*
X155815000Y-42500000D02*
X158015000Y-42500000D01*
X155815000Y-44500000D02*
X158015000Y-44500000D01*
X155815000Y-43400000D02*
X155815000Y-43600000D01*
X158015000Y-43400000D02*
X158015000Y-43600000D01*
D11*
G36*
X152915000Y-42500000D02*
G01*
X153415000Y-42500000D01*
X153415000Y-44500000D01*
X152915000Y-44500000D01*
X152915000Y-42500000D01*
G37*
D12*
X151815000Y-42500000D02*
X154015000Y-42500000D01*
X151815000Y-44500000D02*
X154015000Y-44500000D01*
X151815000Y-43400000D02*
X151815000Y-43600000D01*
X154015000Y-43400000D02*
X154015000Y-43600000D01*
D11*
G36*
X148915000Y-42500000D02*
G01*
X149415000Y-42500000D01*
X149415000Y-44500000D01*
X148915000Y-44500000D01*
X148915000Y-42500000D01*
G37*
D12*
X147815000Y-42500000D02*
X150015000Y-42500000D01*
X147815000Y-44500000D02*
X150015000Y-44500000D01*
X147815000Y-43400000D02*
X147815000Y-43600000D01*
X150015000Y-43400000D02*
X150015000Y-43600000D01*
D11*
G36*
X144915000Y-42500000D02*
G01*
X145415000Y-42500000D01*
X145415000Y-44500000D01*
X144915000Y-44500000D01*
X144915000Y-42500000D01*
G37*
D12*
X143815000Y-42500000D02*
X146015000Y-42500000D01*
X143815000Y-44500000D02*
X146015000Y-44500000D01*
X143815000Y-43400000D02*
X143815000Y-43600000D01*
X146015000Y-43400000D02*
X146015000Y-43600000D01*
D11*
G36*
X140915000Y-42500000D02*
G01*
X141415000Y-42500000D01*
X141415000Y-44500000D01*
X140915000Y-44500000D01*
X140915000Y-42500000D01*
G37*
D12*
X139815000Y-42500000D02*
X142015000Y-42500000D01*
X139815000Y-44500000D02*
X142015000Y-44500000D01*
X139815000Y-43400000D02*
X139815000Y-43600000D01*
X142015000Y-43400000D02*
X142015000Y-43600000D01*
D11*
G36*
X136915000Y-42500000D02*
G01*
X137415000Y-42500000D01*
X137415000Y-44500000D01*
X136915000Y-44500000D01*
X136915000Y-42500000D01*
G37*
D12*
X135815000Y-42500000D02*
X138015000Y-42500000D01*
X135815000Y-44500000D02*
X138015000Y-44500000D01*
X135815000Y-43400000D02*
X135815000Y-43600000D01*
X138015000Y-43400000D02*
X138015000Y-43600000D01*
D11*
G36*
X132915000Y-42500000D02*
G01*
X133415000Y-42500000D01*
X133415000Y-44500000D01*
X132915000Y-44500000D01*
X132915000Y-42500000D01*
G37*
D12*
X131815000Y-42500000D02*
X134015000Y-42500000D01*
X131815000Y-44500000D02*
X134015000Y-44500000D01*
X131815000Y-43400000D02*
X131815000Y-43600000D01*
X134015000Y-43400000D02*
X134015000Y-43600000D01*
D11*
G36*
X128915000Y-42500000D02*
G01*
X129415000Y-42500000D01*
X129415000Y-44500000D01*
X128915000Y-44500000D01*
X128915000Y-42500000D01*
G37*
D12*
X127815000Y-42500000D02*
X130015000Y-42500000D01*
X127815000Y-44500000D02*
X130015000Y-44500000D01*
X127815000Y-43400000D02*
X127815000Y-43600000D01*
X130015000Y-43400000D02*
X130015000Y-43600000D01*
D11*
G36*
X172915000Y-38500000D02*
G01*
X173415000Y-38500000D01*
X173415000Y-40500000D01*
X172915000Y-40500000D01*
X172915000Y-38500000D01*
G37*
D12*
X171815000Y-38500000D02*
X174015000Y-38500000D01*
X171815000Y-40500000D02*
X174015000Y-40500000D01*
X171815000Y-39400000D02*
X171815000Y-39600000D01*
X174015000Y-39400000D02*
X174015000Y-39600000D01*
D11*
G36*
X168915000Y-38500000D02*
G01*
X169415000Y-38500000D01*
X169415000Y-40500000D01*
X168915000Y-40500000D01*
X168915000Y-38500000D01*
G37*
D12*
X167815000Y-38500000D02*
X170015000Y-38500000D01*
X167815000Y-40500000D02*
X170015000Y-40500000D01*
X167815000Y-39400000D02*
X167815000Y-39600000D01*
X170015000Y-39400000D02*
X170015000Y-39600000D01*
D11*
G36*
X164915000Y-38500000D02*
G01*
X165415000Y-38500000D01*
X165415000Y-40500000D01*
X164915000Y-40500000D01*
X164915000Y-38500000D01*
G37*
D12*
X163815000Y-38500000D02*
X166015000Y-38500000D01*
X163815000Y-40500000D02*
X166015000Y-40500000D01*
X163815000Y-39400000D02*
X163815000Y-39600000D01*
X166015000Y-39400000D02*
X166015000Y-39600000D01*
D11*
G36*
X160915000Y-38500000D02*
G01*
X161415000Y-38500000D01*
X161415000Y-40500000D01*
X160915000Y-40500000D01*
X160915000Y-38500000D01*
G37*
D12*
X159815000Y-38500000D02*
X162015000Y-38500000D01*
X159815000Y-40500000D02*
X162015000Y-40500000D01*
X159815000Y-39400000D02*
X159815000Y-39600000D01*
X162015000Y-39400000D02*
X162015000Y-39600000D01*
D11*
G36*
X156915000Y-38500000D02*
G01*
X157415000Y-38500000D01*
X157415000Y-40500000D01*
X156915000Y-40500000D01*
X156915000Y-38500000D01*
G37*
D12*
X155815000Y-38500000D02*
X158015000Y-38500000D01*
X155815000Y-40500000D02*
X158015000Y-40500000D01*
X155815000Y-39400000D02*
X155815000Y-39600000D01*
X158015000Y-39400000D02*
X158015000Y-39600000D01*
D11*
G36*
X152915000Y-38500000D02*
G01*
X153415000Y-38500000D01*
X153415000Y-40500000D01*
X152915000Y-40500000D01*
X152915000Y-38500000D01*
G37*
D12*
X151815000Y-38500000D02*
X154015000Y-38500000D01*
X151815000Y-40500000D02*
X154015000Y-40500000D01*
X151815000Y-39400000D02*
X151815000Y-39600000D01*
X154015000Y-39400000D02*
X154015000Y-39600000D01*
D11*
G36*
X148915000Y-38500000D02*
G01*
X149415000Y-38500000D01*
X149415000Y-40500000D01*
X148915000Y-40500000D01*
X148915000Y-38500000D01*
G37*
D12*
X147815000Y-38500000D02*
X150015000Y-38500000D01*
X147815000Y-40500000D02*
X150015000Y-40500000D01*
X147815000Y-39400000D02*
X147815000Y-39600000D01*
X150015000Y-39400000D02*
X150015000Y-39600000D01*
D11*
G36*
X144915000Y-38500000D02*
G01*
X145415000Y-38500000D01*
X145415000Y-40500000D01*
X144915000Y-40500000D01*
X144915000Y-38500000D01*
G37*
D12*
X143815000Y-38500000D02*
X146015000Y-38500000D01*
X143815000Y-40500000D02*
X146015000Y-40500000D01*
X143815000Y-39400000D02*
X143815000Y-39600000D01*
X146015000Y-39400000D02*
X146015000Y-39600000D01*
D11*
G36*
X140915000Y-38500000D02*
G01*
X141415000Y-38500000D01*
X141415000Y-40500000D01*
X140915000Y-40500000D01*
X140915000Y-38500000D01*
G37*
D12*
X139815000Y-38500000D02*
X142015000Y-38500000D01*
X139815000Y-40500000D02*
X142015000Y-40500000D01*
X139815000Y-39400000D02*
X139815000Y-39600000D01*
X142015000Y-39400000D02*
X142015000Y-39600000D01*
D11*
G36*
X136915000Y-38500000D02*
G01*
X137415000Y-38500000D01*
X137415000Y-40500000D01*
X136915000Y-40500000D01*
X136915000Y-38500000D01*
G37*
D12*
X135815000Y-38500000D02*
X138015000Y-38500000D01*
X135815000Y-40500000D02*
X138015000Y-40500000D01*
X135815000Y-39400000D02*
X135815000Y-39600000D01*
X138015000Y-39400000D02*
X138015000Y-39600000D01*
D11*
G36*
X132915000Y-38500000D02*
G01*
X133415000Y-38500000D01*
X133415000Y-40500000D01*
X132915000Y-40500000D01*
X132915000Y-38500000D01*
G37*
D12*
X131815000Y-38500000D02*
X134015000Y-38500000D01*
X131815000Y-40500000D02*
X134015000Y-40500000D01*
X131815000Y-39400000D02*
X131815000Y-39600000D01*
X134015000Y-39400000D02*
X134015000Y-39600000D01*
D11*
G36*
X128915000Y-38500000D02*
G01*
X129415000Y-38500000D01*
X129415000Y-40500000D01*
X128915000Y-40500000D01*
X128915000Y-38500000D01*
G37*
D12*
X127815000Y-38500000D02*
X130015000Y-38500000D01*
X127815000Y-40500000D02*
X130015000Y-40500000D01*
X127815000Y-39400000D02*
X127815000Y-39600000D01*
X130015000Y-39400000D02*
X130015000Y-39600000D01*
D11*
G36*
X172915000Y-34500000D02*
G01*
X173415000Y-34500000D01*
X173415000Y-36500000D01*
X172915000Y-36500000D01*
X172915000Y-34500000D01*
G37*
D12*
X171815000Y-34500000D02*
X174015000Y-34500000D01*
X171815000Y-36500000D02*
X174015000Y-36500000D01*
X171815000Y-35400000D02*
X171815000Y-35600000D01*
X174015000Y-35400000D02*
X174015000Y-35600000D01*
D11*
G36*
X168915000Y-34500000D02*
G01*
X169415000Y-34500000D01*
X169415000Y-36500000D01*
X168915000Y-36500000D01*
X168915000Y-34500000D01*
G37*
D12*
X167815000Y-34500000D02*
X170015000Y-34500000D01*
X167815000Y-36500000D02*
X170015000Y-36500000D01*
X167815000Y-35400000D02*
X167815000Y-35600000D01*
X170015000Y-35400000D02*
X170015000Y-35600000D01*
D11*
G36*
X164915000Y-34500000D02*
G01*
X165415000Y-34500000D01*
X165415000Y-36500000D01*
X164915000Y-36500000D01*
X164915000Y-34500000D01*
G37*
D12*
X163815000Y-34500000D02*
X166015000Y-34500000D01*
X163815000Y-36500000D02*
X166015000Y-36500000D01*
X163815000Y-35400000D02*
X163815000Y-35600000D01*
X166015000Y-35400000D02*
X166015000Y-35600000D01*
D11*
G36*
X160915000Y-34500000D02*
G01*
X161415000Y-34500000D01*
X161415000Y-36500000D01*
X160915000Y-36500000D01*
X160915000Y-34500000D01*
G37*
D12*
X159815000Y-34500000D02*
X162015000Y-34500000D01*
X159815000Y-36500000D02*
X162015000Y-36500000D01*
X159815000Y-35400000D02*
X159815000Y-35600000D01*
X162015000Y-35400000D02*
X162015000Y-35600000D01*
D11*
G36*
X156915000Y-34500000D02*
G01*
X157415000Y-34500000D01*
X157415000Y-36500000D01*
X156915000Y-36500000D01*
X156915000Y-34500000D01*
G37*
D12*
X155815000Y-34500000D02*
X158015000Y-34500000D01*
X155815000Y-36500000D02*
X158015000Y-36500000D01*
X155815000Y-35400000D02*
X155815000Y-35600000D01*
X158015000Y-35400000D02*
X158015000Y-35600000D01*
D11*
G36*
X152915000Y-34500000D02*
G01*
X153415000Y-34500000D01*
X153415000Y-36500000D01*
X152915000Y-36500000D01*
X152915000Y-34500000D01*
G37*
D12*
X151815000Y-34500000D02*
X154015000Y-34500000D01*
X151815000Y-36500000D02*
X154015000Y-36500000D01*
X151815000Y-35400000D02*
X151815000Y-35600000D01*
X154015000Y-35400000D02*
X154015000Y-35600000D01*
D11*
G36*
X148915000Y-34500000D02*
G01*
X149415000Y-34500000D01*
X149415000Y-36500000D01*
X148915000Y-36500000D01*
X148915000Y-34500000D01*
G37*
D12*
X147815000Y-34500000D02*
X150015000Y-34500000D01*
X147815000Y-36500000D02*
X150015000Y-36500000D01*
X147815000Y-35400000D02*
X147815000Y-35600000D01*
X150015000Y-35400000D02*
X150015000Y-35600000D01*
D11*
G36*
X144915000Y-34500000D02*
G01*
X145415000Y-34500000D01*
X145415000Y-36500000D01*
X144915000Y-36500000D01*
X144915000Y-34500000D01*
G37*
D12*
X143815000Y-34500000D02*
X146015000Y-34500000D01*
X143815000Y-36500000D02*
X146015000Y-36500000D01*
X143815000Y-35400000D02*
X143815000Y-35600000D01*
X146015000Y-35400000D02*
X146015000Y-35600000D01*
D11*
G36*
X140915000Y-34500000D02*
G01*
X141415000Y-34500000D01*
X141415000Y-36500000D01*
X140915000Y-36500000D01*
X140915000Y-34500000D01*
G37*
D12*
X139815000Y-34500000D02*
X142015000Y-34500000D01*
X139815000Y-36500000D02*
X142015000Y-36500000D01*
X139815000Y-35400000D02*
X139815000Y-35600000D01*
X142015000Y-35400000D02*
X142015000Y-35600000D01*
D11*
G36*
X136915000Y-34500000D02*
G01*
X137415000Y-34500000D01*
X137415000Y-36500000D01*
X136915000Y-36500000D01*
X136915000Y-34500000D01*
G37*
D12*
X135815000Y-34500000D02*
X138015000Y-34500000D01*
X135815000Y-36500000D02*
X138015000Y-36500000D01*
X135815000Y-35400000D02*
X135815000Y-35600000D01*
X138015000Y-35400000D02*
X138015000Y-35600000D01*
D11*
G36*
X132915000Y-34500000D02*
G01*
X133415000Y-34500000D01*
X133415000Y-36500000D01*
X132915000Y-36500000D01*
X132915000Y-34500000D01*
G37*
D12*
X131815000Y-34500000D02*
X134015000Y-34500000D01*
X131815000Y-36500000D02*
X134015000Y-36500000D01*
X131815000Y-35400000D02*
X131815000Y-35600000D01*
X134015000Y-35400000D02*
X134015000Y-35600000D01*
D11*
G36*
X128915000Y-34500000D02*
G01*
X129415000Y-34500000D01*
X129415000Y-36500000D01*
X128915000Y-36500000D01*
X128915000Y-34500000D01*
G37*
D12*
X127815000Y-34500000D02*
X130015000Y-34500000D01*
X127815000Y-36500000D02*
X130015000Y-36500000D01*
X127815000Y-35400000D02*
X127815000Y-35600000D01*
X130015000Y-35400000D02*
X130015000Y-35600000D01*
D11*
G36*
X172915000Y-30500000D02*
G01*
X173415000Y-30500000D01*
X173415000Y-32500000D01*
X172915000Y-32500000D01*
X172915000Y-30500000D01*
G37*
D12*
X171815000Y-30500000D02*
X174015000Y-30500000D01*
X171815000Y-32500000D02*
X174015000Y-32500000D01*
X171815000Y-31400000D02*
X171815000Y-31600000D01*
X174015000Y-31400000D02*
X174015000Y-31600000D01*
D11*
G36*
X168915000Y-30500000D02*
G01*
X169415000Y-30500000D01*
X169415000Y-32500000D01*
X168915000Y-32500000D01*
X168915000Y-30500000D01*
G37*
D12*
X167815000Y-30500000D02*
X170015000Y-30500000D01*
X167815000Y-32500000D02*
X170015000Y-32500000D01*
X167815000Y-31400000D02*
X167815000Y-31600000D01*
X170015000Y-31400000D02*
X170015000Y-31600000D01*
D11*
G36*
X164915000Y-30500000D02*
G01*
X165415000Y-30500000D01*
X165415000Y-32500000D01*
X164915000Y-32500000D01*
X164915000Y-30500000D01*
G37*
D12*
X163815000Y-30500000D02*
X166015000Y-30500000D01*
X163815000Y-32500000D02*
X166015000Y-32500000D01*
X163815000Y-31400000D02*
X163815000Y-31600000D01*
X166015000Y-31400000D02*
X166015000Y-31600000D01*
D11*
G36*
X160915000Y-30500000D02*
G01*
X161415000Y-30500000D01*
X161415000Y-32500000D01*
X160915000Y-32500000D01*
X160915000Y-30500000D01*
G37*
D12*
X159815000Y-30500000D02*
X162015000Y-30500000D01*
X159815000Y-32500000D02*
X162015000Y-32500000D01*
X159815000Y-31400000D02*
X159815000Y-31600000D01*
X162015000Y-31400000D02*
X162015000Y-31600000D01*
D11*
G36*
X156915000Y-30500000D02*
G01*
X157415000Y-30500000D01*
X157415000Y-32500000D01*
X156915000Y-32500000D01*
X156915000Y-30500000D01*
G37*
D12*
X155815000Y-30500000D02*
X158015000Y-30500000D01*
X155815000Y-32500000D02*
X158015000Y-32500000D01*
X155815000Y-31400000D02*
X155815000Y-31600000D01*
X158015000Y-31400000D02*
X158015000Y-31600000D01*
D11*
G36*
X152915000Y-30500000D02*
G01*
X153415000Y-30500000D01*
X153415000Y-32500000D01*
X152915000Y-32500000D01*
X152915000Y-30500000D01*
G37*
D12*
X151815000Y-30500000D02*
X154015000Y-30500000D01*
X151815000Y-32500000D02*
X154015000Y-32500000D01*
X151815000Y-31400000D02*
X151815000Y-31600000D01*
X154015000Y-31400000D02*
X154015000Y-31600000D01*
D11*
G36*
X148915000Y-30500000D02*
G01*
X149415000Y-30500000D01*
X149415000Y-32500000D01*
X148915000Y-32500000D01*
X148915000Y-30500000D01*
G37*
D12*
X147815000Y-30500000D02*
X150015000Y-30500000D01*
X147815000Y-32500000D02*
X150015000Y-32500000D01*
X147815000Y-31400000D02*
X147815000Y-31600000D01*
X150015000Y-31400000D02*
X150015000Y-31600000D01*
D11*
G36*
X144915000Y-30500000D02*
G01*
X145415000Y-30500000D01*
X145415000Y-32500000D01*
X144915000Y-32500000D01*
X144915000Y-30500000D01*
G37*
D12*
X143815000Y-30500000D02*
X146015000Y-30500000D01*
X143815000Y-32500000D02*
X146015000Y-32500000D01*
X143815000Y-31400000D02*
X143815000Y-31600000D01*
X146015000Y-31400000D02*
X146015000Y-31600000D01*
D11*
G36*
X140915000Y-30500000D02*
G01*
X141415000Y-30500000D01*
X141415000Y-32500000D01*
X140915000Y-32500000D01*
X140915000Y-30500000D01*
G37*
D12*
X139815000Y-30500000D02*
X142015000Y-30500000D01*
X139815000Y-32500000D02*
X142015000Y-32500000D01*
X139815000Y-31400000D02*
X139815000Y-31600000D01*
X142015000Y-31400000D02*
X142015000Y-31600000D01*
D11*
G36*
X136915000Y-30500000D02*
G01*
X137415000Y-30500000D01*
X137415000Y-32500000D01*
X136915000Y-32500000D01*
X136915000Y-30500000D01*
G37*
D12*
X135815000Y-30500000D02*
X138015000Y-30500000D01*
X135815000Y-32500000D02*
X138015000Y-32500000D01*
X135815000Y-31400000D02*
X135815000Y-31600000D01*
X138015000Y-31400000D02*
X138015000Y-31600000D01*
D11*
G36*
X132915000Y-30500000D02*
G01*
X133415000Y-30500000D01*
X133415000Y-32500000D01*
X132915000Y-32500000D01*
X132915000Y-30500000D01*
G37*
D12*
X131815000Y-30500000D02*
X134015000Y-30500000D01*
X131815000Y-32500000D02*
X134015000Y-32500000D01*
X131815000Y-31400000D02*
X131815000Y-31600000D01*
X134015000Y-31400000D02*
X134015000Y-31600000D01*
X130015000Y-31400000D02*
X130015000Y-31600000D01*
X127815000Y-31400000D02*
X127815000Y-31600000D01*
X127815000Y-32500000D02*
X130015000Y-32500000D01*
X127815000Y-30500000D02*
X130015000Y-30500000D01*
D11*
G36*
X128915000Y-30500000D02*
G01*
X129415000Y-30500000D01*
X129415000Y-32500000D01*
X128915000Y-32500000D01*
X128915000Y-30500000D01*
G37*
D12*
X126015000Y-51400000D02*
X126015000Y-51600000D01*
X123815000Y-51400000D02*
X123815000Y-51600000D01*
X123815000Y-52500000D02*
X126015000Y-52500000D01*
X123815000Y-50500000D02*
X126015000Y-50500000D01*
D11*
G36*
X124915000Y-50500000D02*
G01*
X125415000Y-50500000D01*
X125415000Y-52500000D01*
X124915000Y-52500000D01*
X124915000Y-50500000D01*
G37*
D12*
X122015000Y-51400000D02*
X122015000Y-51600000D01*
X119815000Y-51400000D02*
X119815000Y-51600000D01*
X119815000Y-52500000D02*
X122015000Y-52500000D01*
X119815000Y-50500000D02*
X122015000Y-50500000D01*
D11*
G36*
X120915000Y-50500000D02*
G01*
X121415000Y-50500000D01*
X121415000Y-52500000D01*
X120915000Y-52500000D01*
X120915000Y-50500000D01*
G37*
D12*
X118015000Y-51400000D02*
X118015000Y-51600000D01*
X115815000Y-51400000D02*
X115815000Y-51600000D01*
X115815000Y-52500000D02*
X118015000Y-52500000D01*
X115815000Y-50500000D02*
X118015000Y-50500000D01*
D11*
G36*
X116915000Y-50500000D02*
G01*
X117415000Y-50500000D01*
X117415000Y-52500000D01*
X116915000Y-52500000D01*
X116915000Y-50500000D01*
G37*
D12*
X114015000Y-51400000D02*
X114015000Y-51600000D01*
X111815000Y-51400000D02*
X111815000Y-51600000D01*
X111815000Y-52500000D02*
X114015000Y-52500000D01*
X111815000Y-50500000D02*
X114015000Y-50500000D01*
D11*
G36*
X112915000Y-50500000D02*
G01*
X113415000Y-50500000D01*
X113415000Y-52500000D01*
X112915000Y-52500000D01*
X112915000Y-50500000D01*
G37*
D12*
X110015000Y-51400000D02*
X110015000Y-51600000D01*
X107815000Y-51400000D02*
X107815000Y-51600000D01*
X107815000Y-52500000D02*
X110015000Y-52500000D01*
X107815000Y-50500000D02*
X110015000Y-50500000D01*
D11*
G36*
X108915000Y-50500000D02*
G01*
X109415000Y-50500000D01*
X109415000Y-52500000D01*
X108915000Y-52500000D01*
X108915000Y-50500000D01*
G37*
D12*
X106015000Y-51400000D02*
X106015000Y-51600000D01*
X103815000Y-51400000D02*
X103815000Y-51600000D01*
X103815000Y-52500000D02*
X106015000Y-52500000D01*
X103815000Y-50500000D02*
X106015000Y-50500000D01*
D11*
G36*
X104915000Y-50500000D02*
G01*
X105415000Y-50500000D01*
X105415000Y-52500000D01*
X104915000Y-52500000D01*
X104915000Y-50500000D01*
G37*
D12*
X102015000Y-51400000D02*
X102015000Y-51600000D01*
X99815000Y-51400000D02*
X99815000Y-51600000D01*
X99815000Y-52500000D02*
X102015000Y-52500000D01*
X99815000Y-50500000D02*
X102015000Y-50500000D01*
D11*
G36*
X100915000Y-50500000D02*
G01*
X101415000Y-50500000D01*
X101415000Y-52500000D01*
X100915000Y-52500000D01*
X100915000Y-50500000D01*
G37*
D12*
X98015000Y-51400000D02*
X98015000Y-51600000D01*
X95815000Y-51400000D02*
X95815000Y-51600000D01*
X95815000Y-52500000D02*
X98015000Y-52500000D01*
X95815000Y-50500000D02*
X98015000Y-50500000D01*
D11*
G36*
X96915000Y-50500000D02*
G01*
X97415000Y-50500000D01*
X97415000Y-52500000D01*
X96915000Y-52500000D01*
X96915000Y-50500000D01*
G37*
D12*
X94015000Y-51400000D02*
X94015000Y-51600000D01*
X91815000Y-51400000D02*
X91815000Y-51600000D01*
X91815000Y-52500000D02*
X94015000Y-52500000D01*
X91815000Y-50500000D02*
X94015000Y-50500000D01*
D11*
G36*
X92915000Y-50500000D02*
G01*
X93415000Y-50500000D01*
X93415000Y-52500000D01*
X92915000Y-52500000D01*
X92915000Y-50500000D01*
G37*
D12*
X90015000Y-51400000D02*
X90015000Y-51600000D01*
X87815000Y-51400000D02*
X87815000Y-51600000D01*
X87815000Y-52500000D02*
X90015000Y-52500000D01*
X87815000Y-50500000D02*
X90015000Y-50500000D01*
D11*
G36*
X88915000Y-50500000D02*
G01*
X89415000Y-50500000D01*
X89415000Y-52500000D01*
X88915000Y-52500000D01*
X88915000Y-50500000D01*
G37*
D12*
X86015000Y-51400000D02*
X86015000Y-51600000D01*
X83815000Y-51400000D02*
X83815000Y-51600000D01*
X83815000Y-52500000D02*
X86015000Y-52500000D01*
X83815000Y-50500000D02*
X86015000Y-50500000D01*
D11*
G36*
X84915000Y-50500000D02*
G01*
X85415000Y-50500000D01*
X85415000Y-52500000D01*
X84915000Y-52500000D01*
X84915000Y-50500000D01*
G37*
D12*
X82015000Y-51400000D02*
X82015000Y-51600000D01*
X79815000Y-51400000D02*
X79815000Y-51600000D01*
X79815000Y-52500000D02*
X82015000Y-52500000D01*
X79815000Y-50500000D02*
X82015000Y-50500000D01*
D11*
G36*
X80915000Y-50500000D02*
G01*
X81415000Y-50500000D01*
X81415000Y-52500000D01*
X80915000Y-52500000D01*
X80915000Y-50500000D01*
G37*
D12*
X126015000Y-47400000D02*
X126015000Y-47600000D01*
X123815000Y-47400000D02*
X123815000Y-47600000D01*
X123815000Y-48500000D02*
X126015000Y-48500000D01*
X123815000Y-46500000D02*
X126015000Y-46500000D01*
D11*
G36*
X124915000Y-46500000D02*
G01*
X125415000Y-46500000D01*
X125415000Y-48500000D01*
X124915000Y-48500000D01*
X124915000Y-46500000D01*
G37*
D12*
X122015000Y-47400000D02*
X122015000Y-47600000D01*
X119815000Y-47400000D02*
X119815000Y-47600000D01*
X119815000Y-48500000D02*
X122015000Y-48500000D01*
X119815000Y-46500000D02*
X122015000Y-46500000D01*
D11*
G36*
X120915000Y-46500000D02*
G01*
X121415000Y-46500000D01*
X121415000Y-48500000D01*
X120915000Y-48500000D01*
X120915000Y-46500000D01*
G37*
D12*
X118015000Y-47400000D02*
X118015000Y-47600000D01*
X115815000Y-47400000D02*
X115815000Y-47600000D01*
X115815000Y-48500000D02*
X118015000Y-48500000D01*
X115815000Y-46500000D02*
X118015000Y-46500000D01*
D11*
G36*
X116915000Y-46500000D02*
G01*
X117415000Y-46500000D01*
X117415000Y-48500000D01*
X116915000Y-48500000D01*
X116915000Y-46500000D01*
G37*
D12*
X114015000Y-47400000D02*
X114015000Y-47600000D01*
X111815000Y-47400000D02*
X111815000Y-47600000D01*
X111815000Y-48500000D02*
X114015000Y-48500000D01*
X111815000Y-46500000D02*
X114015000Y-46500000D01*
D11*
G36*
X112915000Y-46500000D02*
G01*
X113415000Y-46500000D01*
X113415000Y-48500000D01*
X112915000Y-48500000D01*
X112915000Y-46500000D01*
G37*
D12*
X110015000Y-47400000D02*
X110015000Y-47600000D01*
X107815000Y-47400000D02*
X107815000Y-47600000D01*
X107815000Y-48500000D02*
X110015000Y-48500000D01*
X107815000Y-46500000D02*
X110015000Y-46500000D01*
D11*
G36*
X108915000Y-46500000D02*
G01*
X109415000Y-46500000D01*
X109415000Y-48500000D01*
X108915000Y-48500000D01*
X108915000Y-46500000D01*
G37*
D12*
X106015000Y-47400000D02*
X106015000Y-47600000D01*
X103815000Y-47400000D02*
X103815000Y-47600000D01*
X103815000Y-48500000D02*
X106015000Y-48500000D01*
X103815000Y-46500000D02*
X106015000Y-46500000D01*
D11*
G36*
X104915000Y-46500000D02*
G01*
X105415000Y-46500000D01*
X105415000Y-48500000D01*
X104915000Y-48500000D01*
X104915000Y-46500000D01*
G37*
D12*
X102015000Y-47400000D02*
X102015000Y-47600000D01*
X99815000Y-47400000D02*
X99815000Y-47600000D01*
X99815000Y-48500000D02*
X102015000Y-48500000D01*
X99815000Y-46500000D02*
X102015000Y-46500000D01*
D11*
G36*
X100915000Y-46500000D02*
G01*
X101415000Y-46500000D01*
X101415000Y-48500000D01*
X100915000Y-48500000D01*
X100915000Y-46500000D01*
G37*
D12*
X98015000Y-47400000D02*
X98015000Y-47600000D01*
X95815000Y-47400000D02*
X95815000Y-47600000D01*
X95815000Y-48500000D02*
X98015000Y-48500000D01*
X95815000Y-46500000D02*
X98015000Y-46500000D01*
D11*
G36*
X96915000Y-46500000D02*
G01*
X97415000Y-46500000D01*
X97415000Y-48500000D01*
X96915000Y-48500000D01*
X96915000Y-46500000D01*
G37*
D12*
X94015000Y-47400000D02*
X94015000Y-47600000D01*
X91815000Y-47400000D02*
X91815000Y-47600000D01*
X91815000Y-48500000D02*
X94015000Y-48500000D01*
X91815000Y-46500000D02*
X94015000Y-46500000D01*
D11*
G36*
X92915000Y-46500000D02*
G01*
X93415000Y-46500000D01*
X93415000Y-48500000D01*
X92915000Y-48500000D01*
X92915000Y-46500000D01*
G37*
D12*
X90015000Y-47400000D02*
X90015000Y-47600000D01*
X87815000Y-47400000D02*
X87815000Y-47600000D01*
X87815000Y-48500000D02*
X90015000Y-48500000D01*
X87815000Y-46500000D02*
X90015000Y-46500000D01*
D11*
G36*
X88915000Y-46500000D02*
G01*
X89415000Y-46500000D01*
X89415000Y-48500000D01*
X88915000Y-48500000D01*
X88915000Y-46500000D01*
G37*
D12*
X86015000Y-47400000D02*
X86015000Y-47600000D01*
X83815000Y-47400000D02*
X83815000Y-47600000D01*
X83815000Y-48500000D02*
X86015000Y-48500000D01*
X83815000Y-46500000D02*
X86015000Y-46500000D01*
D11*
G36*
X84915000Y-46500000D02*
G01*
X85415000Y-46500000D01*
X85415000Y-48500000D01*
X84915000Y-48500000D01*
X84915000Y-46500000D01*
G37*
D12*
X82015000Y-47400000D02*
X82015000Y-47600000D01*
X79815000Y-47400000D02*
X79815000Y-47600000D01*
X79815000Y-48500000D02*
X82015000Y-48500000D01*
X79815000Y-46500000D02*
X82015000Y-46500000D01*
D11*
G36*
X80915000Y-46500000D02*
G01*
X81415000Y-46500000D01*
X81415000Y-48500000D01*
X80915000Y-48500000D01*
X80915000Y-46500000D01*
G37*
D12*
X126015000Y-43400000D02*
X126015000Y-43600000D01*
X123815000Y-43400000D02*
X123815000Y-43600000D01*
X123815000Y-44500000D02*
X126015000Y-44500000D01*
X123815000Y-42500000D02*
X126015000Y-42500000D01*
D11*
G36*
X124915000Y-42500000D02*
G01*
X125415000Y-42500000D01*
X125415000Y-44500000D01*
X124915000Y-44500000D01*
X124915000Y-42500000D01*
G37*
D12*
X122015000Y-43400000D02*
X122015000Y-43600000D01*
X119815000Y-43400000D02*
X119815000Y-43600000D01*
X119815000Y-44500000D02*
X122015000Y-44500000D01*
X119815000Y-42500000D02*
X122015000Y-42500000D01*
D11*
G36*
X120915000Y-42500000D02*
G01*
X121415000Y-42500000D01*
X121415000Y-44500000D01*
X120915000Y-44500000D01*
X120915000Y-42500000D01*
G37*
D12*
X118015000Y-43400000D02*
X118015000Y-43600000D01*
X115815000Y-43400000D02*
X115815000Y-43600000D01*
X115815000Y-44500000D02*
X118015000Y-44500000D01*
X115815000Y-42500000D02*
X118015000Y-42500000D01*
D11*
G36*
X116915000Y-42500000D02*
G01*
X117415000Y-42500000D01*
X117415000Y-44500000D01*
X116915000Y-44500000D01*
X116915000Y-42500000D01*
G37*
D12*
X114015000Y-43400000D02*
X114015000Y-43600000D01*
X111815000Y-43400000D02*
X111815000Y-43600000D01*
X111815000Y-44500000D02*
X114015000Y-44500000D01*
X111815000Y-42500000D02*
X114015000Y-42500000D01*
D11*
G36*
X112915000Y-42500000D02*
G01*
X113415000Y-42500000D01*
X113415000Y-44500000D01*
X112915000Y-44500000D01*
X112915000Y-42500000D01*
G37*
D12*
X110015000Y-43400000D02*
X110015000Y-43600000D01*
X107815000Y-43400000D02*
X107815000Y-43600000D01*
X107815000Y-44500000D02*
X110015000Y-44500000D01*
X107815000Y-42500000D02*
X110015000Y-42500000D01*
D11*
G36*
X108915000Y-42500000D02*
G01*
X109415000Y-42500000D01*
X109415000Y-44500000D01*
X108915000Y-44500000D01*
X108915000Y-42500000D01*
G37*
D12*
X106015000Y-43400000D02*
X106015000Y-43600000D01*
X103815000Y-43400000D02*
X103815000Y-43600000D01*
X103815000Y-44500000D02*
X106015000Y-44500000D01*
X103815000Y-42500000D02*
X106015000Y-42500000D01*
D11*
G36*
X104915000Y-42500000D02*
G01*
X105415000Y-42500000D01*
X105415000Y-44500000D01*
X104915000Y-44500000D01*
X104915000Y-42500000D01*
G37*
D12*
X102015000Y-43400000D02*
X102015000Y-43600000D01*
X99815000Y-43400000D02*
X99815000Y-43600000D01*
X99815000Y-44500000D02*
X102015000Y-44500000D01*
X99815000Y-42500000D02*
X102015000Y-42500000D01*
D11*
G36*
X100915000Y-42500000D02*
G01*
X101415000Y-42500000D01*
X101415000Y-44500000D01*
X100915000Y-44500000D01*
X100915000Y-42500000D01*
G37*
D12*
X98015000Y-43400000D02*
X98015000Y-43600000D01*
X95815000Y-43400000D02*
X95815000Y-43600000D01*
X95815000Y-44500000D02*
X98015000Y-44500000D01*
X95815000Y-42500000D02*
X98015000Y-42500000D01*
D11*
G36*
X96915000Y-42500000D02*
G01*
X97415000Y-42500000D01*
X97415000Y-44500000D01*
X96915000Y-44500000D01*
X96915000Y-42500000D01*
G37*
D12*
X94015000Y-43400000D02*
X94015000Y-43600000D01*
X91815000Y-43400000D02*
X91815000Y-43600000D01*
X91815000Y-44500000D02*
X94015000Y-44500000D01*
X91815000Y-42500000D02*
X94015000Y-42500000D01*
D11*
G36*
X92915000Y-42500000D02*
G01*
X93415000Y-42500000D01*
X93415000Y-44500000D01*
X92915000Y-44500000D01*
X92915000Y-42500000D01*
G37*
D12*
X90015000Y-43400000D02*
X90015000Y-43600000D01*
X87815000Y-43400000D02*
X87815000Y-43600000D01*
X87815000Y-44500000D02*
X90015000Y-44500000D01*
X87815000Y-42500000D02*
X90015000Y-42500000D01*
D11*
G36*
X88915000Y-42500000D02*
G01*
X89415000Y-42500000D01*
X89415000Y-44500000D01*
X88915000Y-44500000D01*
X88915000Y-42500000D01*
G37*
D12*
X86015000Y-43400000D02*
X86015000Y-43600000D01*
X83815000Y-43400000D02*
X83815000Y-43600000D01*
X83815000Y-44500000D02*
X86015000Y-44500000D01*
X83815000Y-42500000D02*
X86015000Y-42500000D01*
D11*
G36*
X84915000Y-42500000D02*
G01*
X85415000Y-42500000D01*
X85415000Y-44500000D01*
X84915000Y-44500000D01*
X84915000Y-42500000D01*
G37*
D12*
X82015000Y-43400000D02*
X82015000Y-43600000D01*
X79815000Y-43400000D02*
X79815000Y-43600000D01*
X79815000Y-44500000D02*
X82015000Y-44500000D01*
X79815000Y-42500000D02*
X82015000Y-42500000D01*
D11*
G36*
X80915000Y-42500000D02*
G01*
X81415000Y-42500000D01*
X81415000Y-44500000D01*
X80915000Y-44500000D01*
X80915000Y-42500000D01*
G37*
D12*
X126015000Y-39400000D02*
X126015000Y-39600000D01*
X123815000Y-39400000D02*
X123815000Y-39600000D01*
X123815000Y-40500000D02*
X126015000Y-40500000D01*
X123815000Y-38500000D02*
X126015000Y-38500000D01*
D11*
G36*
X124915000Y-38500000D02*
G01*
X125415000Y-38500000D01*
X125415000Y-40500000D01*
X124915000Y-40500000D01*
X124915000Y-38500000D01*
G37*
D12*
X122015000Y-39400000D02*
X122015000Y-39600000D01*
X119815000Y-39400000D02*
X119815000Y-39600000D01*
X119815000Y-40500000D02*
X122015000Y-40500000D01*
X119815000Y-38500000D02*
X122015000Y-38500000D01*
D11*
G36*
X120915000Y-38500000D02*
G01*
X121415000Y-38500000D01*
X121415000Y-40500000D01*
X120915000Y-40500000D01*
X120915000Y-38500000D01*
G37*
D12*
X118015000Y-39400000D02*
X118015000Y-39600000D01*
X115815000Y-39400000D02*
X115815000Y-39600000D01*
X115815000Y-40500000D02*
X118015000Y-40500000D01*
X115815000Y-38500000D02*
X118015000Y-38500000D01*
D11*
G36*
X116915000Y-38500000D02*
G01*
X117415000Y-38500000D01*
X117415000Y-40500000D01*
X116915000Y-40500000D01*
X116915000Y-38500000D01*
G37*
D12*
X114015000Y-39400000D02*
X114015000Y-39600000D01*
X111815000Y-39400000D02*
X111815000Y-39600000D01*
X111815000Y-40500000D02*
X114015000Y-40500000D01*
X111815000Y-38500000D02*
X114015000Y-38500000D01*
D11*
G36*
X112915000Y-38500000D02*
G01*
X113415000Y-38500000D01*
X113415000Y-40500000D01*
X112915000Y-40500000D01*
X112915000Y-38500000D01*
G37*
D12*
X110015000Y-39400000D02*
X110015000Y-39600000D01*
X107815000Y-39400000D02*
X107815000Y-39600000D01*
X107815000Y-40500000D02*
X110015000Y-40500000D01*
X107815000Y-38500000D02*
X110015000Y-38500000D01*
D11*
G36*
X108915000Y-38500000D02*
G01*
X109415000Y-38500000D01*
X109415000Y-40500000D01*
X108915000Y-40500000D01*
X108915000Y-38500000D01*
G37*
D12*
X106015000Y-39400000D02*
X106015000Y-39600000D01*
X103815000Y-39400000D02*
X103815000Y-39600000D01*
X103815000Y-40500000D02*
X106015000Y-40500000D01*
X103815000Y-38500000D02*
X106015000Y-38500000D01*
D11*
G36*
X104915000Y-38500000D02*
G01*
X105415000Y-38500000D01*
X105415000Y-40500000D01*
X104915000Y-40500000D01*
X104915000Y-38500000D01*
G37*
D12*
X102015000Y-39400000D02*
X102015000Y-39600000D01*
X99815000Y-39400000D02*
X99815000Y-39600000D01*
X99815000Y-40500000D02*
X102015000Y-40500000D01*
X99815000Y-38500000D02*
X102015000Y-38500000D01*
D11*
G36*
X100915000Y-38500000D02*
G01*
X101415000Y-38500000D01*
X101415000Y-40500000D01*
X100915000Y-40500000D01*
X100915000Y-38500000D01*
G37*
D12*
X98015000Y-39400000D02*
X98015000Y-39600000D01*
X95815000Y-39400000D02*
X95815000Y-39600000D01*
X95815000Y-40500000D02*
X98015000Y-40500000D01*
X95815000Y-38500000D02*
X98015000Y-38500000D01*
D11*
G36*
X96915000Y-38500000D02*
G01*
X97415000Y-38500000D01*
X97415000Y-40500000D01*
X96915000Y-40500000D01*
X96915000Y-38500000D01*
G37*
D12*
X94015000Y-39400000D02*
X94015000Y-39600000D01*
X91815000Y-39400000D02*
X91815000Y-39600000D01*
X91815000Y-40500000D02*
X94015000Y-40500000D01*
X91815000Y-38500000D02*
X94015000Y-38500000D01*
D11*
G36*
X92915000Y-38500000D02*
G01*
X93415000Y-38500000D01*
X93415000Y-40500000D01*
X92915000Y-40500000D01*
X92915000Y-38500000D01*
G37*
D12*
X90015000Y-39400000D02*
X90015000Y-39600000D01*
X87815000Y-39400000D02*
X87815000Y-39600000D01*
X87815000Y-40500000D02*
X90015000Y-40500000D01*
X87815000Y-38500000D02*
X90015000Y-38500000D01*
D11*
G36*
X88915000Y-38500000D02*
G01*
X89415000Y-38500000D01*
X89415000Y-40500000D01*
X88915000Y-40500000D01*
X88915000Y-38500000D01*
G37*
D12*
X86015000Y-39400000D02*
X86015000Y-39600000D01*
X83815000Y-39400000D02*
X83815000Y-39600000D01*
X83815000Y-40500000D02*
X86015000Y-40500000D01*
X83815000Y-38500000D02*
X86015000Y-38500000D01*
D11*
G36*
X84915000Y-38500000D02*
G01*
X85415000Y-38500000D01*
X85415000Y-40500000D01*
X84915000Y-40500000D01*
X84915000Y-38500000D01*
G37*
D12*
X126015000Y-35400000D02*
X126015000Y-35600000D01*
X123815000Y-35400000D02*
X123815000Y-35600000D01*
X123815000Y-36500000D02*
X126015000Y-36500000D01*
X123815000Y-34500000D02*
X126015000Y-34500000D01*
D11*
G36*
X124915000Y-34500000D02*
G01*
X125415000Y-34500000D01*
X125415000Y-36500000D01*
X124915000Y-36500000D01*
X124915000Y-34500000D01*
G37*
D12*
X122015000Y-35400000D02*
X122015000Y-35600000D01*
X119815000Y-35400000D02*
X119815000Y-35600000D01*
X119815000Y-36500000D02*
X122015000Y-36500000D01*
X119815000Y-34500000D02*
X122015000Y-34500000D01*
D11*
G36*
X120915000Y-34500000D02*
G01*
X121415000Y-34500000D01*
X121415000Y-36500000D01*
X120915000Y-36500000D01*
X120915000Y-34500000D01*
G37*
D12*
X118015000Y-35400000D02*
X118015000Y-35600000D01*
X115815000Y-35400000D02*
X115815000Y-35600000D01*
X115815000Y-36500000D02*
X118015000Y-36500000D01*
X115815000Y-34500000D02*
X118015000Y-34500000D01*
D11*
G36*
X116915000Y-34500000D02*
G01*
X117415000Y-34500000D01*
X117415000Y-36500000D01*
X116915000Y-36500000D01*
X116915000Y-34500000D01*
G37*
D12*
X114015000Y-35400000D02*
X114015000Y-35600000D01*
X111815000Y-35400000D02*
X111815000Y-35600000D01*
X111815000Y-36500000D02*
X114015000Y-36500000D01*
X111815000Y-34500000D02*
X114015000Y-34500000D01*
D11*
G36*
X112915000Y-34500000D02*
G01*
X113415000Y-34500000D01*
X113415000Y-36500000D01*
X112915000Y-36500000D01*
X112915000Y-34500000D01*
G37*
D12*
X110015000Y-35400000D02*
X110015000Y-35600000D01*
X107815000Y-35400000D02*
X107815000Y-35600000D01*
X107815000Y-36500000D02*
X110015000Y-36500000D01*
X107815000Y-34500000D02*
X110015000Y-34500000D01*
D11*
G36*
X108915000Y-34500000D02*
G01*
X109415000Y-34500000D01*
X109415000Y-36500000D01*
X108915000Y-36500000D01*
X108915000Y-34500000D01*
G37*
D12*
X106015000Y-35400000D02*
X106015000Y-35600000D01*
X103815000Y-35400000D02*
X103815000Y-35600000D01*
X103815000Y-36500000D02*
X106015000Y-36500000D01*
X103815000Y-34500000D02*
X106015000Y-34500000D01*
D11*
G36*
X104915000Y-34500000D02*
G01*
X105415000Y-34500000D01*
X105415000Y-36500000D01*
X104915000Y-36500000D01*
X104915000Y-34500000D01*
G37*
D12*
X102015000Y-35400000D02*
X102015000Y-35600000D01*
X99815000Y-35400000D02*
X99815000Y-35600000D01*
X99815000Y-36500000D02*
X102015000Y-36500000D01*
X99815000Y-34500000D02*
X102015000Y-34500000D01*
D11*
G36*
X100915000Y-34500000D02*
G01*
X101415000Y-34500000D01*
X101415000Y-36500000D01*
X100915000Y-36500000D01*
X100915000Y-34500000D01*
G37*
D12*
X98015000Y-35400000D02*
X98015000Y-35600000D01*
X95815000Y-35400000D02*
X95815000Y-35600000D01*
X95815000Y-36500000D02*
X98015000Y-36500000D01*
X95815000Y-34500000D02*
X98015000Y-34500000D01*
D11*
G36*
X96915000Y-34500000D02*
G01*
X97415000Y-34500000D01*
X97415000Y-36500000D01*
X96915000Y-36500000D01*
X96915000Y-34500000D01*
G37*
D12*
X94015000Y-35400000D02*
X94015000Y-35600000D01*
X91815000Y-35400000D02*
X91815000Y-35600000D01*
X91815000Y-36500000D02*
X94015000Y-36500000D01*
X91815000Y-34500000D02*
X94015000Y-34500000D01*
D11*
G36*
X92915000Y-34500000D02*
G01*
X93415000Y-34500000D01*
X93415000Y-36500000D01*
X92915000Y-36500000D01*
X92915000Y-34500000D01*
G37*
D12*
X90015000Y-35400000D02*
X90015000Y-35600000D01*
X87815000Y-35400000D02*
X87815000Y-35600000D01*
X87815000Y-36500000D02*
X90015000Y-36500000D01*
X87815000Y-34500000D02*
X90015000Y-34500000D01*
D11*
G36*
X88915000Y-34500000D02*
G01*
X89415000Y-34500000D01*
X89415000Y-36500000D01*
X88915000Y-36500000D01*
X88915000Y-34500000D01*
G37*
D12*
X86015000Y-35400000D02*
X86015000Y-35600000D01*
X83815000Y-35400000D02*
X83815000Y-35600000D01*
X83815000Y-36500000D02*
X86015000Y-36500000D01*
X83815000Y-34500000D02*
X86015000Y-34500000D01*
D11*
G36*
X84915000Y-34500000D02*
G01*
X85415000Y-34500000D01*
X85415000Y-36500000D01*
X84915000Y-36500000D01*
X84915000Y-34500000D01*
G37*
D10*
X77425000Y-51337221D02*
X77425000Y-51662779D01*
X76405000Y-51337221D02*
X76405000Y-51662779D01*
X77425000Y-47337221D02*
X77425000Y-47662779D01*
X76405000Y-47337221D02*
X76405000Y-47662779D01*
X77425000Y-43337221D02*
X77425000Y-43662779D01*
X76405000Y-43337221D02*
X76405000Y-43662779D01*
X77425000Y-39337221D02*
X77425000Y-39662779D01*
X76405000Y-39337221D02*
X76405000Y-39662779D01*
X77425000Y-35337221D02*
X77425000Y-35662779D01*
X76405000Y-35337221D02*
X76405000Y-35662779D01*
X77425000Y-31337221D02*
X77425000Y-31662779D01*
X76405000Y-31337221D02*
X76405000Y-31662779D01*
D11*
G36*
X80915000Y-34500000D02*
G01*
X81415000Y-34500000D01*
X81415000Y-36500000D01*
X80915000Y-36500000D01*
X80915000Y-34500000D01*
G37*
D12*
X79815000Y-34500000D02*
X82015000Y-34500000D01*
X79815000Y-36500000D02*
X82015000Y-36500000D01*
X79815000Y-35400000D02*
X79815000Y-35600000D01*
X82015000Y-35400000D02*
X82015000Y-35600000D01*
D10*
X175405000Y-51662779D02*
X175405000Y-51337221D01*
X176425000Y-51662779D02*
X176425000Y-51337221D01*
X175405000Y-47662779D02*
X175405000Y-47337221D01*
X176425000Y-47662779D02*
X176425000Y-47337221D01*
X175405000Y-43662779D02*
X175405000Y-43337221D01*
X176425000Y-43662779D02*
X176425000Y-43337221D01*
X175405000Y-39662779D02*
X175405000Y-39337221D01*
X176425000Y-39662779D02*
X176425000Y-39337221D01*
X175405000Y-35662779D02*
X175405000Y-35337221D01*
X176425000Y-35662779D02*
X176425000Y-35337221D01*
X175405000Y-31662779D02*
X175405000Y-31337221D01*
X176425000Y-31662779D02*
X176425000Y-31337221D01*
X175405000Y-27662779D02*
X175405000Y-27337221D01*
X176425000Y-27662779D02*
X176425000Y-27337221D01*
X70126267Y-44520000D02*
X69783733Y-44520000D01*
X70126267Y-45540000D02*
X69783733Y-45540000D01*
X70126267Y-41980000D02*
X69783733Y-41980000D01*
X70126267Y-43000000D02*
X69783733Y-43000000D01*
X70126267Y-39440000D02*
X69783733Y-39440000D01*
X70126267Y-40460000D02*
X69783733Y-40460000D01*
X70126267Y-36900000D02*
X69783733Y-36900000D01*
X70126267Y-37920000D02*
X69783733Y-37920000D01*
X70126267Y-34360000D02*
X69783733Y-34360000D01*
X70126267Y-35380000D02*
X69783733Y-35380000D01*
X70126267Y-31820000D02*
X69783733Y-31820000D01*
X70126267Y-32840000D02*
X69783733Y-32840000D01*
X70126267Y-29280000D02*
X69783733Y-29280000D01*
X70126267Y-30300000D02*
X69783733Y-30300000D01*
X70126267Y-26740000D02*
X69783733Y-26740000D01*
X70126267Y-27760000D02*
X69783733Y-27760000D01*
X60243733Y-44520000D02*
X60586267Y-44520000D01*
X60243733Y-45540000D02*
X60586267Y-45540000D01*
X60243733Y-43000000D02*
X60586267Y-43000000D01*
X60243733Y-41980000D02*
X60586267Y-41980000D01*
X60243733Y-40460000D02*
X60586267Y-40460000D01*
X60243733Y-39440000D02*
X60586267Y-39440000D01*
X60243733Y-37920000D02*
X60586267Y-37920000D01*
X60243733Y-36900000D02*
X60586267Y-36900000D01*
X60243733Y-35380000D02*
X60586267Y-35380000D01*
X60243733Y-34360000D02*
X60586267Y-34360000D01*
X60243733Y-32840000D02*
X60586267Y-32840000D01*
X60243733Y-31820000D02*
X60586267Y-31820000D01*
X60243733Y-30300000D02*
X60586267Y-30300000D01*
X60243733Y-29280000D02*
X60586267Y-29280000D01*
X60243733Y-27760000D02*
X60586267Y-27760000D01*
X60243733Y-26740000D02*
X60586267Y-26740000D01*
X76405000Y-27337221D02*
X76405000Y-27662779D01*
X77425000Y-27337221D02*
X77425000Y-27662779D01*
X176425000Y-23662779D02*
X176425000Y-23337221D01*
X175405000Y-23662779D02*
X175405000Y-23337221D01*
X76405000Y-23337221D02*
X76405000Y-23662779D01*
X77425000Y-23337221D02*
X77425000Y-23662779D01*
D11*
G36*
X128915000Y-26500000D02*
G01*
X129415000Y-26500000D01*
X129415000Y-28500000D01*
X128915000Y-28500000D01*
X128915000Y-26500000D01*
G37*
D12*
X127815000Y-26500000D02*
X130015000Y-26500000D01*
X127815000Y-28500000D02*
X130015000Y-28500000D01*
X127815000Y-27400000D02*
X127815000Y-27600000D01*
X130015000Y-27400000D02*
X130015000Y-27600000D01*
D11*
G36*
X132915000Y-26500000D02*
G01*
X133415000Y-26500000D01*
X133415000Y-28500000D01*
X132915000Y-28500000D01*
X132915000Y-26500000D01*
G37*
D12*
X131815000Y-26500000D02*
X134015000Y-26500000D01*
X131815000Y-28500000D02*
X134015000Y-28500000D01*
X131815000Y-27400000D02*
X131815000Y-27600000D01*
X134015000Y-27400000D02*
X134015000Y-27600000D01*
D11*
G36*
X136915000Y-26500000D02*
G01*
X137415000Y-26500000D01*
X137415000Y-28500000D01*
X136915000Y-28500000D01*
X136915000Y-26500000D01*
G37*
D12*
X135815000Y-26500000D02*
X138015000Y-26500000D01*
X135815000Y-28500000D02*
X138015000Y-28500000D01*
X135815000Y-27400000D02*
X135815000Y-27600000D01*
X138015000Y-27400000D02*
X138015000Y-27600000D01*
D11*
G36*
X140915000Y-26500000D02*
G01*
X141415000Y-26500000D01*
X141415000Y-28500000D01*
X140915000Y-28500000D01*
X140915000Y-26500000D01*
G37*
D12*
X139815000Y-26500000D02*
X142015000Y-26500000D01*
X139815000Y-28500000D02*
X142015000Y-28500000D01*
X139815000Y-27400000D02*
X139815000Y-27600000D01*
X142015000Y-27400000D02*
X142015000Y-27600000D01*
D11*
G36*
X144915000Y-26500000D02*
G01*
X145415000Y-26500000D01*
X145415000Y-28500000D01*
X144915000Y-28500000D01*
X144915000Y-26500000D01*
G37*
D12*
X143815000Y-26500000D02*
X146015000Y-26500000D01*
X143815000Y-28500000D02*
X146015000Y-28500000D01*
X143815000Y-27400000D02*
X143815000Y-27600000D01*
X146015000Y-27400000D02*
X146015000Y-27600000D01*
D11*
G36*
X148915000Y-26500000D02*
G01*
X149415000Y-26500000D01*
X149415000Y-28500000D01*
X148915000Y-28500000D01*
X148915000Y-26500000D01*
G37*
D12*
X147815000Y-26500000D02*
X150015000Y-26500000D01*
X147815000Y-28500000D02*
X150015000Y-28500000D01*
X147815000Y-27400000D02*
X147815000Y-27600000D01*
X150015000Y-27400000D02*
X150015000Y-27600000D01*
D11*
G36*
X152915000Y-26500000D02*
G01*
X153415000Y-26500000D01*
X153415000Y-28500000D01*
X152915000Y-28500000D01*
X152915000Y-26500000D01*
G37*
D12*
X151815000Y-26500000D02*
X154015000Y-26500000D01*
X151815000Y-28500000D02*
X154015000Y-28500000D01*
X151815000Y-27400000D02*
X151815000Y-27600000D01*
X154015000Y-27400000D02*
X154015000Y-27600000D01*
D11*
G36*
X156915000Y-26500000D02*
G01*
X157415000Y-26500000D01*
X157415000Y-28500000D01*
X156915000Y-28500000D01*
X156915000Y-26500000D01*
G37*
D12*
X155815000Y-26500000D02*
X158015000Y-26500000D01*
X155815000Y-28500000D02*
X158015000Y-28500000D01*
X155815000Y-27400000D02*
X155815000Y-27600000D01*
X158015000Y-27400000D02*
X158015000Y-27600000D01*
D11*
G36*
X160915000Y-26500000D02*
G01*
X161415000Y-26500000D01*
X161415000Y-28500000D01*
X160915000Y-28500000D01*
X160915000Y-26500000D01*
G37*
D12*
X159815000Y-26500000D02*
X162015000Y-26500000D01*
X159815000Y-28500000D02*
X162015000Y-28500000D01*
X159815000Y-27400000D02*
X159815000Y-27600000D01*
X162015000Y-27400000D02*
X162015000Y-27600000D01*
D11*
G36*
X164915000Y-26500000D02*
G01*
X165415000Y-26500000D01*
X165415000Y-28500000D01*
X164915000Y-28500000D01*
X164915000Y-26500000D01*
G37*
D12*
X163815000Y-26500000D02*
X166015000Y-26500000D01*
X163815000Y-28500000D02*
X166015000Y-28500000D01*
X163815000Y-27400000D02*
X163815000Y-27600000D01*
X166015000Y-27400000D02*
X166015000Y-27600000D01*
D11*
G36*
X168915000Y-26500000D02*
G01*
X169415000Y-26500000D01*
X169415000Y-28500000D01*
X168915000Y-28500000D01*
X168915000Y-26500000D01*
G37*
D12*
X167815000Y-26500000D02*
X170015000Y-26500000D01*
X167815000Y-28500000D02*
X170015000Y-28500000D01*
X167815000Y-27400000D02*
X167815000Y-27600000D01*
X170015000Y-27400000D02*
X170015000Y-27600000D01*
D11*
G36*
X172915000Y-26500000D02*
G01*
X173415000Y-26500000D01*
X173415000Y-28500000D01*
X172915000Y-28500000D01*
X172915000Y-26500000D01*
G37*
D12*
X171815000Y-26500000D02*
X174015000Y-26500000D01*
X171815000Y-28500000D02*
X174015000Y-28500000D01*
X171815000Y-27400000D02*
X171815000Y-27600000D01*
X174015000Y-27400000D02*
X174015000Y-27600000D01*
D11*
G36*
X80915000Y-26500000D02*
G01*
X81415000Y-26500000D01*
X81415000Y-28500000D01*
X80915000Y-28500000D01*
X80915000Y-26500000D01*
G37*
D12*
X79815000Y-26500000D02*
X82015000Y-26500000D01*
X79815000Y-28500000D02*
X82015000Y-28500000D01*
X79815000Y-27400000D02*
X79815000Y-27600000D01*
X82015000Y-27400000D02*
X82015000Y-27600000D01*
D11*
G36*
X84915000Y-26500000D02*
G01*
X85415000Y-26500000D01*
X85415000Y-28500000D01*
X84915000Y-28500000D01*
X84915000Y-26500000D01*
G37*
D12*
X83815000Y-26500000D02*
X86015000Y-26500000D01*
X83815000Y-28500000D02*
X86015000Y-28500000D01*
X83815000Y-27400000D02*
X83815000Y-27600000D01*
X86015000Y-27400000D02*
X86015000Y-27600000D01*
D11*
G36*
X88915000Y-26500000D02*
G01*
X89415000Y-26500000D01*
X89415000Y-28500000D01*
X88915000Y-28500000D01*
X88915000Y-26500000D01*
G37*
D12*
X87815000Y-26500000D02*
X90015000Y-26500000D01*
X87815000Y-28500000D02*
X90015000Y-28500000D01*
X87815000Y-27400000D02*
X87815000Y-27600000D01*
X90015000Y-27400000D02*
X90015000Y-27600000D01*
D11*
G36*
X92915000Y-26500000D02*
G01*
X93415000Y-26500000D01*
X93415000Y-28500000D01*
X92915000Y-28500000D01*
X92915000Y-26500000D01*
G37*
D12*
X91815000Y-26500000D02*
X94015000Y-26500000D01*
X91815000Y-28500000D02*
X94015000Y-28500000D01*
X91815000Y-27400000D02*
X91815000Y-27600000D01*
X94015000Y-27400000D02*
X94015000Y-27600000D01*
D11*
G36*
X96915000Y-26500000D02*
G01*
X97415000Y-26500000D01*
X97415000Y-28500000D01*
X96915000Y-28500000D01*
X96915000Y-26500000D01*
G37*
D12*
X95815000Y-26500000D02*
X98015000Y-26500000D01*
X95815000Y-28500000D02*
X98015000Y-28500000D01*
X95815000Y-27400000D02*
X95815000Y-27600000D01*
X98015000Y-27400000D02*
X98015000Y-27600000D01*
D11*
G36*
X100915000Y-26500000D02*
G01*
X101415000Y-26500000D01*
X101415000Y-28500000D01*
X100915000Y-28500000D01*
X100915000Y-26500000D01*
G37*
D12*
X99815000Y-26500000D02*
X102015000Y-26500000D01*
X99815000Y-28500000D02*
X102015000Y-28500000D01*
X99815000Y-27400000D02*
X99815000Y-27600000D01*
X102015000Y-27400000D02*
X102015000Y-27600000D01*
D11*
G36*
X104915000Y-26500000D02*
G01*
X105415000Y-26500000D01*
X105415000Y-28500000D01*
X104915000Y-28500000D01*
X104915000Y-26500000D01*
G37*
D12*
X103815000Y-26500000D02*
X106015000Y-26500000D01*
X103815000Y-28500000D02*
X106015000Y-28500000D01*
X103815000Y-27400000D02*
X103815000Y-27600000D01*
X106015000Y-27400000D02*
X106015000Y-27600000D01*
D11*
G36*
X108915000Y-26500000D02*
G01*
X109415000Y-26500000D01*
X109415000Y-28500000D01*
X108915000Y-28500000D01*
X108915000Y-26500000D01*
G37*
D12*
X107815000Y-26500000D02*
X110015000Y-26500000D01*
X107815000Y-28500000D02*
X110015000Y-28500000D01*
X107815000Y-27400000D02*
X107815000Y-27600000D01*
X110015000Y-27400000D02*
X110015000Y-27600000D01*
D11*
G36*
X112915000Y-26500000D02*
G01*
X113415000Y-26500000D01*
X113415000Y-28500000D01*
X112915000Y-28500000D01*
X112915000Y-26500000D01*
G37*
D12*
X111815000Y-26500000D02*
X114015000Y-26500000D01*
X111815000Y-28500000D02*
X114015000Y-28500000D01*
X111815000Y-27400000D02*
X111815000Y-27600000D01*
X114015000Y-27400000D02*
X114015000Y-27600000D01*
D11*
G36*
X116915000Y-26500000D02*
G01*
X117415000Y-26500000D01*
X117415000Y-28500000D01*
X116915000Y-28500000D01*
X116915000Y-26500000D01*
G37*
D12*
X115815000Y-26500000D02*
X118015000Y-26500000D01*
X115815000Y-28500000D02*
X118015000Y-28500000D01*
X115815000Y-27400000D02*
X115815000Y-27600000D01*
X118015000Y-27400000D02*
X118015000Y-27600000D01*
D11*
G36*
X120915000Y-26500000D02*
G01*
X121415000Y-26500000D01*
X121415000Y-28500000D01*
X120915000Y-28500000D01*
X120915000Y-26500000D01*
G37*
D12*
X119815000Y-26500000D02*
X122015000Y-26500000D01*
X119815000Y-28500000D02*
X122015000Y-28500000D01*
X119815000Y-27400000D02*
X119815000Y-27600000D01*
X122015000Y-27400000D02*
X122015000Y-27600000D01*
D11*
G36*
X124915000Y-26500000D02*
G01*
X125415000Y-26500000D01*
X125415000Y-28500000D01*
X124915000Y-28500000D01*
X124915000Y-26500000D01*
G37*
D12*
X123815000Y-26500000D02*
X126015000Y-26500000D01*
X123815000Y-28500000D02*
X126015000Y-28500000D01*
X123815000Y-27400000D02*
X123815000Y-27600000D01*
X126015000Y-27400000D02*
X126015000Y-27600000D01*
D11*
G36*
X80915000Y-30500000D02*
G01*
X81415000Y-30500000D01*
X81415000Y-32500000D01*
X80915000Y-32500000D01*
X80915000Y-30500000D01*
G37*
D12*
X79815000Y-30500000D02*
X82015000Y-30500000D01*
X79815000Y-32500000D02*
X82015000Y-32500000D01*
X79815000Y-31400000D02*
X79815000Y-31600000D01*
X82015000Y-31400000D02*
X82015000Y-31600000D01*
D11*
G36*
X84915000Y-30500000D02*
G01*
X85415000Y-30500000D01*
X85415000Y-32500000D01*
X84915000Y-32500000D01*
X84915000Y-30500000D01*
G37*
D12*
X83815000Y-30500000D02*
X86015000Y-30500000D01*
X83815000Y-32500000D02*
X86015000Y-32500000D01*
X83815000Y-31400000D02*
X83815000Y-31600000D01*
X86015000Y-31400000D02*
X86015000Y-31600000D01*
D11*
G36*
X88915000Y-30500000D02*
G01*
X89415000Y-30500000D01*
X89415000Y-32500000D01*
X88915000Y-32500000D01*
X88915000Y-30500000D01*
G37*
D12*
X87815000Y-30500000D02*
X90015000Y-30500000D01*
X87815000Y-32500000D02*
X90015000Y-32500000D01*
X87815000Y-31400000D02*
X87815000Y-31600000D01*
X90015000Y-31400000D02*
X90015000Y-31600000D01*
D11*
G36*
X92915000Y-30500000D02*
G01*
X93415000Y-30500000D01*
X93415000Y-32500000D01*
X92915000Y-32500000D01*
X92915000Y-30500000D01*
G37*
D12*
X91815000Y-30500000D02*
X94015000Y-30500000D01*
X91815000Y-32500000D02*
X94015000Y-32500000D01*
X91815000Y-31400000D02*
X91815000Y-31600000D01*
X94015000Y-31400000D02*
X94015000Y-31600000D01*
D11*
G36*
X96915000Y-30500000D02*
G01*
X97415000Y-30500000D01*
X97415000Y-32500000D01*
X96915000Y-32500000D01*
X96915000Y-30500000D01*
G37*
D12*
X95815000Y-30500000D02*
X98015000Y-30500000D01*
X95815000Y-32500000D02*
X98015000Y-32500000D01*
X95815000Y-31400000D02*
X95815000Y-31600000D01*
X98015000Y-31400000D02*
X98015000Y-31600000D01*
D11*
G36*
X100915000Y-30500000D02*
G01*
X101415000Y-30500000D01*
X101415000Y-32500000D01*
X100915000Y-32500000D01*
X100915000Y-30500000D01*
G37*
D12*
X99815000Y-30500000D02*
X102015000Y-30500000D01*
X99815000Y-32500000D02*
X102015000Y-32500000D01*
X99815000Y-31400000D02*
X99815000Y-31600000D01*
X102015000Y-31400000D02*
X102015000Y-31600000D01*
D11*
G36*
X104915000Y-30500000D02*
G01*
X105415000Y-30500000D01*
X105415000Y-32500000D01*
X104915000Y-32500000D01*
X104915000Y-30500000D01*
G37*
D12*
X103815000Y-30500000D02*
X106015000Y-30500000D01*
X103815000Y-32500000D02*
X106015000Y-32500000D01*
X103815000Y-31400000D02*
X103815000Y-31600000D01*
X106015000Y-31400000D02*
X106015000Y-31600000D01*
D11*
G36*
X108915000Y-30500000D02*
G01*
X109415000Y-30500000D01*
X109415000Y-32500000D01*
X108915000Y-32500000D01*
X108915000Y-30500000D01*
G37*
D12*
X107815000Y-30500000D02*
X110015000Y-30500000D01*
X107815000Y-32500000D02*
X110015000Y-32500000D01*
X107815000Y-31400000D02*
X107815000Y-31600000D01*
X110015000Y-31400000D02*
X110015000Y-31600000D01*
D11*
G36*
X112915000Y-30500000D02*
G01*
X113415000Y-30500000D01*
X113415000Y-32500000D01*
X112915000Y-32500000D01*
X112915000Y-30500000D01*
G37*
D12*
X111815000Y-30500000D02*
X114015000Y-30500000D01*
X111815000Y-32500000D02*
X114015000Y-32500000D01*
X111815000Y-31400000D02*
X111815000Y-31600000D01*
X114015000Y-31400000D02*
X114015000Y-31600000D01*
D11*
G36*
X116915000Y-30500000D02*
G01*
X117415000Y-30500000D01*
X117415000Y-32500000D01*
X116915000Y-32500000D01*
X116915000Y-30500000D01*
G37*
D12*
X115815000Y-30500000D02*
X118015000Y-30500000D01*
X115815000Y-32500000D02*
X118015000Y-32500000D01*
X115815000Y-31400000D02*
X115815000Y-31600000D01*
X118015000Y-31400000D02*
X118015000Y-31600000D01*
D11*
G36*
X120915000Y-30500000D02*
G01*
X121415000Y-30500000D01*
X121415000Y-32500000D01*
X120915000Y-32500000D01*
X120915000Y-30500000D01*
G37*
D12*
X119815000Y-30500000D02*
X122015000Y-30500000D01*
X119815000Y-32500000D02*
X122015000Y-32500000D01*
X119815000Y-31400000D02*
X119815000Y-31600000D01*
X122015000Y-31400000D02*
X122015000Y-31600000D01*
D11*
G36*
X124915000Y-30500000D02*
G01*
X125415000Y-30500000D01*
X125415000Y-32500000D01*
X124915000Y-32500000D01*
X124915000Y-30500000D01*
G37*
D12*
X123815000Y-30500000D02*
X126015000Y-30500000D01*
X123815000Y-32500000D02*
X126015000Y-32500000D01*
X123815000Y-31400000D02*
X123815000Y-31600000D01*
X126015000Y-31400000D02*
X126015000Y-31600000D01*
D11*
G36*
X80915000Y-38500000D02*
G01*
X81415000Y-38500000D01*
X81415000Y-40500000D01*
X80915000Y-40500000D01*
X80915000Y-38500000D01*
G37*
D12*
X79815000Y-38500000D02*
X82015000Y-38500000D01*
X79815000Y-40500000D02*
X82015000Y-40500000D01*
X79815000Y-39400000D02*
X79815000Y-39600000D01*
X82015000Y-39400000D02*
X82015000Y-39600000D01*
D11*
G36*
X128915000Y-22500000D02*
G01*
X129415000Y-22500000D01*
X129415000Y-24500000D01*
X128915000Y-24500000D01*
X128915000Y-22500000D01*
G37*
D12*
X127815000Y-22500000D02*
X130015000Y-22500000D01*
X127815000Y-24500000D02*
X130015000Y-24500000D01*
X127815000Y-23400000D02*
X127815000Y-23600000D01*
X130015000Y-23400000D02*
X130015000Y-23600000D01*
D11*
G36*
X132915000Y-22500000D02*
G01*
X133415000Y-22500000D01*
X133415000Y-24500000D01*
X132915000Y-24500000D01*
X132915000Y-22500000D01*
G37*
D12*
X131815000Y-22500000D02*
X134015000Y-22500000D01*
X131815000Y-24500000D02*
X134015000Y-24500000D01*
X131815000Y-23400000D02*
X131815000Y-23600000D01*
X134015000Y-23400000D02*
X134015000Y-23600000D01*
D11*
G36*
X136915000Y-22500000D02*
G01*
X137415000Y-22500000D01*
X137415000Y-24500000D01*
X136915000Y-24500000D01*
X136915000Y-22500000D01*
G37*
D12*
X135815000Y-22500000D02*
X138015000Y-22500000D01*
X135815000Y-24500000D02*
X138015000Y-24500000D01*
X135815000Y-23400000D02*
X135815000Y-23600000D01*
X138015000Y-23400000D02*
X138015000Y-23600000D01*
D11*
G36*
X140915000Y-22500000D02*
G01*
X141415000Y-22500000D01*
X141415000Y-24500000D01*
X140915000Y-24500000D01*
X140915000Y-22500000D01*
G37*
D12*
X139815000Y-22500000D02*
X142015000Y-22500000D01*
X139815000Y-24500000D02*
X142015000Y-24500000D01*
X139815000Y-23400000D02*
X139815000Y-23600000D01*
X142015000Y-23400000D02*
X142015000Y-23600000D01*
D11*
G36*
X144915000Y-22500000D02*
G01*
X145415000Y-22500000D01*
X145415000Y-24500000D01*
X144915000Y-24500000D01*
X144915000Y-22500000D01*
G37*
D12*
X143815000Y-22500000D02*
X146015000Y-22500000D01*
X143815000Y-24500000D02*
X146015000Y-24500000D01*
X143815000Y-23400000D02*
X143815000Y-23600000D01*
X146015000Y-23400000D02*
X146015000Y-23600000D01*
D11*
G36*
X148915000Y-22500000D02*
G01*
X149415000Y-22500000D01*
X149415000Y-24500000D01*
X148915000Y-24500000D01*
X148915000Y-22500000D01*
G37*
D12*
X147815000Y-22500000D02*
X150015000Y-22500000D01*
X147815000Y-24500000D02*
X150015000Y-24500000D01*
X147815000Y-23400000D02*
X147815000Y-23600000D01*
X150015000Y-23400000D02*
X150015000Y-23600000D01*
D11*
G36*
X152915000Y-22500000D02*
G01*
X153415000Y-22500000D01*
X153415000Y-24500000D01*
X152915000Y-24500000D01*
X152915000Y-22500000D01*
G37*
D12*
X151815000Y-22500000D02*
X154015000Y-22500000D01*
X151815000Y-24500000D02*
X154015000Y-24500000D01*
X151815000Y-23400000D02*
X151815000Y-23600000D01*
X154015000Y-23400000D02*
X154015000Y-23600000D01*
D11*
G36*
X156915000Y-22500000D02*
G01*
X157415000Y-22500000D01*
X157415000Y-24500000D01*
X156915000Y-24500000D01*
X156915000Y-22500000D01*
G37*
D12*
X155815000Y-22500000D02*
X158015000Y-22500000D01*
X155815000Y-24500000D02*
X158015000Y-24500000D01*
X155815000Y-23400000D02*
X155815000Y-23600000D01*
X158015000Y-23400000D02*
X158015000Y-23600000D01*
D11*
G36*
X160915000Y-22500000D02*
G01*
X161415000Y-22500000D01*
X161415000Y-24500000D01*
X160915000Y-24500000D01*
X160915000Y-22500000D01*
G37*
D12*
X159815000Y-22500000D02*
X162015000Y-22500000D01*
X159815000Y-24500000D02*
X162015000Y-24500000D01*
X159815000Y-23400000D02*
X159815000Y-23600000D01*
X162015000Y-23400000D02*
X162015000Y-23600000D01*
D11*
G36*
X164915000Y-22500000D02*
G01*
X165415000Y-22500000D01*
X165415000Y-24500000D01*
X164915000Y-24500000D01*
X164915000Y-22500000D01*
G37*
D12*
X163815000Y-22500000D02*
X166015000Y-22500000D01*
X163815000Y-24500000D02*
X166015000Y-24500000D01*
X163815000Y-23400000D02*
X163815000Y-23600000D01*
X166015000Y-23400000D02*
X166015000Y-23600000D01*
D11*
G36*
X168915000Y-22500000D02*
G01*
X169415000Y-22500000D01*
X169415000Y-24500000D01*
X168915000Y-24500000D01*
X168915000Y-22500000D01*
G37*
D12*
X167815000Y-22500000D02*
X170015000Y-22500000D01*
X167815000Y-24500000D02*
X170015000Y-24500000D01*
X167815000Y-23400000D02*
X167815000Y-23600000D01*
X170015000Y-23400000D02*
X170015000Y-23600000D01*
D11*
G36*
X172915000Y-22500000D02*
G01*
X173415000Y-22500000D01*
X173415000Y-24500000D01*
X172915000Y-24500000D01*
X172915000Y-22500000D01*
G37*
D12*
X171815000Y-22500000D02*
X174015000Y-22500000D01*
X171815000Y-24500000D02*
X174015000Y-24500000D01*
X171815000Y-23400000D02*
X171815000Y-23600000D01*
X174015000Y-23400000D02*
X174015000Y-23600000D01*
D11*
G36*
X80915000Y-22500000D02*
G01*
X81415000Y-22500000D01*
X81415000Y-24500000D01*
X80915000Y-24500000D01*
X80915000Y-22500000D01*
G37*
D12*
X79815000Y-22500000D02*
X82015000Y-22500000D01*
X79815000Y-24500000D02*
X82015000Y-24500000D01*
X79815000Y-23400000D02*
X79815000Y-23600000D01*
X82015000Y-23400000D02*
X82015000Y-23600000D01*
D11*
G36*
X84915000Y-22500000D02*
G01*
X85415000Y-22500000D01*
X85415000Y-24500000D01*
X84915000Y-24500000D01*
X84915000Y-22500000D01*
G37*
D12*
X83815000Y-22500000D02*
X86015000Y-22500000D01*
X83815000Y-24500000D02*
X86015000Y-24500000D01*
X83815000Y-23400000D02*
X83815000Y-23600000D01*
X86015000Y-23400000D02*
X86015000Y-23600000D01*
D11*
G36*
X88915000Y-22500000D02*
G01*
X89415000Y-22500000D01*
X89415000Y-24500000D01*
X88915000Y-24500000D01*
X88915000Y-22500000D01*
G37*
D12*
X87815000Y-22500000D02*
X90015000Y-22500000D01*
X87815000Y-24500000D02*
X90015000Y-24500000D01*
X87815000Y-23400000D02*
X87815000Y-23600000D01*
X90015000Y-23400000D02*
X90015000Y-23600000D01*
D11*
G36*
X92915000Y-22500000D02*
G01*
X93415000Y-22500000D01*
X93415000Y-24500000D01*
X92915000Y-24500000D01*
X92915000Y-22500000D01*
G37*
D12*
X91815000Y-22500000D02*
X94015000Y-22500000D01*
X91815000Y-24500000D02*
X94015000Y-24500000D01*
X91815000Y-23400000D02*
X91815000Y-23600000D01*
X94015000Y-23400000D02*
X94015000Y-23600000D01*
D11*
G36*
X96915000Y-22500000D02*
G01*
X97415000Y-22500000D01*
X97415000Y-24500000D01*
X96915000Y-24500000D01*
X96915000Y-22500000D01*
G37*
D12*
X95815000Y-22500000D02*
X98015000Y-22500000D01*
X95815000Y-24500000D02*
X98015000Y-24500000D01*
X95815000Y-23400000D02*
X95815000Y-23600000D01*
X98015000Y-23400000D02*
X98015000Y-23600000D01*
D11*
G36*
X100915000Y-22500000D02*
G01*
X101415000Y-22500000D01*
X101415000Y-24500000D01*
X100915000Y-24500000D01*
X100915000Y-22500000D01*
G37*
D12*
X99815000Y-22500000D02*
X102015000Y-22500000D01*
X99815000Y-24500000D02*
X102015000Y-24500000D01*
X99815000Y-23400000D02*
X99815000Y-23600000D01*
X102015000Y-23400000D02*
X102015000Y-23600000D01*
D11*
G36*
X104915000Y-22500000D02*
G01*
X105415000Y-22500000D01*
X105415000Y-24500000D01*
X104915000Y-24500000D01*
X104915000Y-22500000D01*
G37*
D12*
X103815000Y-22500000D02*
X106015000Y-22500000D01*
X103815000Y-24500000D02*
X106015000Y-24500000D01*
X103815000Y-23400000D02*
X103815000Y-23600000D01*
X106015000Y-23400000D02*
X106015000Y-23600000D01*
D11*
G36*
X108915000Y-22500000D02*
G01*
X109415000Y-22500000D01*
X109415000Y-24500000D01*
X108915000Y-24500000D01*
X108915000Y-22500000D01*
G37*
D12*
X107815000Y-22500000D02*
X110015000Y-22500000D01*
X107815000Y-24500000D02*
X110015000Y-24500000D01*
X107815000Y-23400000D02*
X107815000Y-23600000D01*
X110015000Y-23400000D02*
X110015000Y-23600000D01*
D11*
G36*
X112915000Y-22500000D02*
G01*
X113415000Y-22500000D01*
X113415000Y-24500000D01*
X112915000Y-24500000D01*
X112915000Y-22500000D01*
G37*
D12*
X111815000Y-22500000D02*
X114015000Y-22500000D01*
X111815000Y-24500000D02*
X114015000Y-24500000D01*
X111815000Y-23400000D02*
X111815000Y-23600000D01*
X114015000Y-23400000D02*
X114015000Y-23600000D01*
D11*
G36*
X116915000Y-22500000D02*
G01*
X117415000Y-22500000D01*
X117415000Y-24500000D01*
X116915000Y-24500000D01*
X116915000Y-22500000D01*
G37*
D12*
X115815000Y-22500000D02*
X118015000Y-22500000D01*
X115815000Y-24500000D02*
X118015000Y-24500000D01*
X115815000Y-23400000D02*
X115815000Y-23600000D01*
X118015000Y-23400000D02*
X118015000Y-23600000D01*
D11*
G36*
X120915000Y-22500000D02*
G01*
X121415000Y-22500000D01*
X121415000Y-24500000D01*
X120915000Y-24500000D01*
X120915000Y-22500000D01*
G37*
D12*
X119815000Y-22500000D02*
X122015000Y-22500000D01*
X119815000Y-24500000D02*
X122015000Y-24500000D01*
X119815000Y-23400000D02*
X119815000Y-23600000D01*
X122015000Y-23400000D02*
X122015000Y-23600000D01*
D11*
G36*
X124915000Y-22500000D02*
G01*
X125415000Y-22500000D01*
X125415000Y-24500000D01*
X124915000Y-24500000D01*
X124915000Y-22500000D01*
G37*
D12*
X123815000Y-22500000D02*
X126015000Y-22500000D01*
X123815000Y-24500000D02*
X126015000Y-24500000D01*
X123815000Y-23400000D02*
X123815000Y-23600000D01*
X126015000Y-23400000D02*
X126015000Y-23600000D01*
X64851666Y-24372380D02*
X64851666Y-25086666D01*
X64804047Y-25229523D01*
X64708809Y-25324761D01*
X64565952Y-25372380D01*
X64470714Y-25372380D01*
X65851666Y-25372380D02*
X65280238Y-25372380D01*
X65565952Y-25372380D02*
X65565952Y-24372380D01*
X65470714Y-24515238D01*
X65375476Y-24610476D01*
X65280238Y-24658095D01*
X75702142Y-51666666D02*
X75749761Y-51714285D01*
X75797380Y-51857142D01*
X75797380Y-51952380D01*
X75749761Y-52095238D01*
X75654523Y-52190476D01*
X75559285Y-52238095D01*
X75368809Y-52285714D01*
X75225952Y-52285714D01*
X75035476Y-52238095D01*
X74940238Y-52190476D01*
X74845000Y-52095238D01*
X74797380Y-51952380D01*
X74797380Y-51857142D01*
X74845000Y-51714285D01*
X74892619Y-51666666D01*
X75225952Y-51095238D02*
X75178333Y-51190476D01*
X75130714Y-51238095D01*
X75035476Y-51285714D01*
X74987857Y-51285714D01*
X74892619Y-51238095D01*
X74845000Y-51190476D01*
X74797380Y-51095238D01*
X74797380Y-50904761D01*
X74845000Y-50809523D01*
X74892619Y-50761904D01*
X74987857Y-50714285D01*
X75035476Y-50714285D01*
X75130714Y-50761904D01*
X75178333Y-50809523D01*
X75225952Y-50904761D01*
X75225952Y-51095238D01*
X75273571Y-51190476D01*
X75321190Y-51238095D01*
X75416428Y-51285714D01*
X75606904Y-51285714D01*
X75702142Y-51238095D01*
X75749761Y-51190476D01*
X75797380Y-51095238D01*
X75797380Y-50904761D01*
X75749761Y-50809523D01*
X75702142Y-50761904D01*
X75606904Y-50714285D01*
X75416428Y-50714285D01*
X75321190Y-50761904D01*
X75273571Y-50809523D01*
X75225952Y-50904761D01*
X75702142Y-47666666D02*
X75749761Y-47714285D01*
X75797380Y-47857142D01*
X75797380Y-47952380D01*
X75749761Y-48095238D01*
X75654523Y-48190476D01*
X75559285Y-48238095D01*
X75368809Y-48285714D01*
X75225952Y-48285714D01*
X75035476Y-48238095D01*
X74940238Y-48190476D01*
X74845000Y-48095238D01*
X74797380Y-47952380D01*
X74797380Y-47857142D01*
X74845000Y-47714285D01*
X74892619Y-47666666D01*
X74797380Y-47333333D02*
X74797380Y-46666666D01*
X75797380Y-47095238D01*
X75702142Y-43666666D02*
X75749761Y-43714285D01*
X75797380Y-43857142D01*
X75797380Y-43952380D01*
X75749761Y-44095238D01*
X75654523Y-44190476D01*
X75559285Y-44238095D01*
X75368809Y-44285714D01*
X75225952Y-44285714D01*
X75035476Y-44238095D01*
X74940238Y-44190476D01*
X74845000Y-44095238D01*
X74797380Y-43952380D01*
X74797380Y-43857142D01*
X74845000Y-43714285D01*
X74892619Y-43666666D01*
X74797380Y-42809523D02*
X74797380Y-43000000D01*
X74845000Y-43095238D01*
X74892619Y-43142857D01*
X75035476Y-43238095D01*
X75225952Y-43285714D01*
X75606904Y-43285714D01*
X75702142Y-43238095D01*
X75749761Y-43190476D01*
X75797380Y-43095238D01*
X75797380Y-42904761D01*
X75749761Y-42809523D01*
X75702142Y-42761904D01*
X75606904Y-42714285D01*
X75368809Y-42714285D01*
X75273571Y-42761904D01*
X75225952Y-42809523D01*
X75178333Y-42904761D01*
X75178333Y-43095238D01*
X75225952Y-43190476D01*
X75273571Y-43238095D01*
X75368809Y-43285714D01*
X75702142Y-39666666D02*
X75749761Y-39714285D01*
X75797380Y-39857142D01*
X75797380Y-39952380D01*
X75749761Y-40095238D01*
X75654523Y-40190476D01*
X75559285Y-40238095D01*
X75368809Y-40285714D01*
X75225952Y-40285714D01*
X75035476Y-40238095D01*
X74940238Y-40190476D01*
X74845000Y-40095238D01*
X74797380Y-39952380D01*
X74797380Y-39857142D01*
X74845000Y-39714285D01*
X74892619Y-39666666D01*
X74797380Y-38761904D02*
X74797380Y-39238095D01*
X75273571Y-39285714D01*
X75225952Y-39238095D01*
X75178333Y-39142857D01*
X75178333Y-38904761D01*
X75225952Y-38809523D01*
X75273571Y-38761904D01*
X75368809Y-38714285D01*
X75606904Y-38714285D01*
X75702142Y-38761904D01*
X75749761Y-38809523D01*
X75797380Y-38904761D01*
X75797380Y-39142857D01*
X75749761Y-39238095D01*
X75702142Y-39285714D01*
X75702142Y-35666666D02*
X75749761Y-35714285D01*
X75797380Y-35857142D01*
X75797380Y-35952380D01*
X75749761Y-36095238D01*
X75654523Y-36190476D01*
X75559285Y-36238095D01*
X75368809Y-36285714D01*
X75225952Y-36285714D01*
X75035476Y-36238095D01*
X74940238Y-36190476D01*
X74845000Y-36095238D01*
X74797380Y-35952380D01*
X74797380Y-35857142D01*
X74845000Y-35714285D01*
X74892619Y-35666666D01*
X75130714Y-34809523D02*
X75797380Y-34809523D01*
X74749761Y-35047619D02*
X75464047Y-35285714D01*
X75464047Y-34666666D01*
X75702142Y-31666666D02*
X75749761Y-31714285D01*
X75797380Y-31857142D01*
X75797380Y-31952380D01*
X75749761Y-32095238D01*
X75654523Y-32190476D01*
X75559285Y-32238095D01*
X75368809Y-32285714D01*
X75225952Y-32285714D01*
X75035476Y-32238095D01*
X74940238Y-32190476D01*
X74845000Y-32095238D01*
X74797380Y-31952380D01*
X74797380Y-31857142D01*
X74845000Y-31714285D01*
X74892619Y-31666666D01*
X74797380Y-31333333D02*
X74797380Y-30714285D01*
X75178333Y-31047619D01*
X75178333Y-30904761D01*
X75225952Y-30809523D01*
X75273571Y-30761904D01*
X75368809Y-30714285D01*
X75606904Y-30714285D01*
X75702142Y-30761904D01*
X75749761Y-30809523D01*
X75797380Y-30904761D01*
X75797380Y-31190476D01*
X75749761Y-31285714D01*
X75702142Y-31333333D01*
X177772142Y-52142857D02*
X177819761Y-52190476D01*
X177867380Y-52333333D01*
X177867380Y-52428571D01*
X177819761Y-52571428D01*
X177724523Y-52666666D01*
X177629285Y-52714285D01*
X177438809Y-52761904D01*
X177295952Y-52761904D01*
X177105476Y-52714285D01*
X177010238Y-52666666D01*
X176915000Y-52571428D01*
X176867380Y-52428571D01*
X176867380Y-52333333D01*
X176915000Y-52190476D01*
X176962619Y-52142857D01*
X177867380Y-51190476D02*
X177867380Y-51761904D01*
X177867380Y-51476190D02*
X176867380Y-51476190D01*
X177010238Y-51571428D01*
X177105476Y-51666666D01*
X177153095Y-51761904D01*
X176867380Y-50333333D02*
X176867380Y-50523809D01*
X176915000Y-50619047D01*
X176962619Y-50666666D01*
X177105476Y-50761904D01*
X177295952Y-50809523D01*
X177676904Y-50809523D01*
X177772142Y-50761904D01*
X177819761Y-50714285D01*
X177867380Y-50619047D01*
X177867380Y-50428571D01*
X177819761Y-50333333D01*
X177772142Y-50285714D01*
X177676904Y-50238095D01*
X177438809Y-50238095D01*
X177343571Y-50285714D01*
X177295952Y-50333333D01*
X177248333Y-50428571D01*
X177248333Y-50619047D01*
X177295952Y-50714285D01*
X177343571Y-50761904D01*
X177438809Y-50809523D01*
X177772142Y-48142857D02*
X177819761Y-48190476D01*
X177867380Y-48333333D01*
X177867380Y-48428571D01*
X177819761Y-48571428D01*
X177724523Y-48666666D01*
X177629285Y-48714285D01*
X177438809Y-48761904D01*
X177295952Y-48761904D01*
X177105476Y-48714285D01*
X177010238Y-48666666D01*
X176915000Y-48571428D01*
X176867380Y-48428571D01*
X176867380Y-48333333D01*
X176915000Y-48190476D01*
X176962619Y-48142857D01*
X177867380Y-47190476D02*
X177867380Y-47761904D01*
X177867380Y-47476190D02*
X176867380Y-47476190D01*
X177010238Y-47571428D01*
X177105476Y-47666666D01*
X177153095Y-47761904D01*
X176867380Y-46285714D02*
X176867380Y-46761904D01*
X177343571Y-46809523D01*
X177295952Y-46761904D01*
X177248333Y-46666666D01*
X177248333Y-46428571D01*
X177295952Y-46333333D01*
X177343571Y-46285714D01*
X177438809Y-46238095D01*
X177676904Y-46238095D01*
X177772142Y-46285714D01*
X177819761Y-46333333D01*
X177867380Y-46428571D01*
X177867380Y-46666666D01*
X177819761Y-46761904D01*
X177772142Y-46809523D01*
X177772142Y-44142857D02*
X177819761Y-44190476D01*
X177867380Y-44333333D01*
X177867380Y-44428571D01*
X177819761Y-44571428D01*
X177724523Y-44666666D01*
X177629285Y-44714285D01*
X177438809Y-44761904D01*
X177295952Y-44761904D01*
X177105476Y-44714285D01*
X177010238Y-44666666D01*
X176915000Y-44571428D01*
X176867380Y-44428571D01*
X176867380Y-44333333D01*
X176915000Y-44190476D01*
X176962619Y-44142857D01*
X177867380Y-43190476D02*
X177867380Y-43761904D01*
X177867380Y-43476190D02*
X176867380Y-43476190D01*
X177010238Y-43571428D01*
X177105476Y-43666666D01*
X177153095Y-43761904D01*
X177200714Y-42333333D02*
X177867380Y-42333333D01*
X176819761Y-42571428D02*
X177534047Y-42809523D01*
X177534047Y-42190476D01*
X177772142Y-40142857D02*
X177819761Y-40190476D01*
X177867380Y-40333333D01*
X177867380Y-40428571D01*
X177819761Y-40571428D01*
X177724523Y-40666666D01*
X177629285Y-40714285D01*
X177438809Y-40761904D01*
X177295952Y-40761904D01*
X177105476Y-40714285D01*
X177010238Y-40666666D01*
X176915000Y-40571428D01*
X176867380Y-40428571D01*
X176867380Y-40333333D01*
X176915000Y-40190476D01*
X176962619Y-40142857D01*
X177867380Y-39190476D02*
X177867380Y-39761904D01*
X177867380Y-39476190D02*
X176867380Y-39476190D01*
X177010238Y-39571428D01*
X177105476Y-39666666D01*
X177153095Y-39761904D01*
X176867380Y-38857142D02*
X176867380Y-38238095D01*
X177248333Y-38571428D01*
X177248333Y-38428571D01*
X177295952Y-38333333D01*
X177343571Y-38285714D01*
X177438809Y-38238095D01*
X177676904Y-38238095D01*
X177772142Y-38285714D01*
X177819761Y-38333333D01*
X177867380Y-38428571D01*
X177867380Y-38714285D01*
X177819761Y-38809523D01*
X177772142Y-38857142D01*
X177772142Y-36142857D02*
X177819761Y-36190476D01*
X177867380Y-36333333D01*
X177867380Y-36428571D01*
X177819761Y-36571428D01*
X177724523Y-36666666D01*
X177629285Y-36714285D01*
X177438809Y-36761904D01*
X177295952Y-36761904D01*
X177105476Y-36714285D01*
X177010238Y-36666666D01*
X176915000Y-36571428D01*
X176867380Y-36428571D01*
X176867380Y-36333333D01*
X176915000Y-36190476D01*
X176962619Y-36142857D01*
X177867380Y-35190476D02*
X177867380Y-35761904D01*
X177867380Y-35476190D02*
X176867380Y-35476190D01*
X177010238Y-35571428D01*
X177105476Y-35666666D01*
X177153095Y-35761904D01*
X176962619Y-34809523D02*
X176915000Y-34761904D01*
X176867380Y-34666666D01*
X176867380Y-34428571D01*
X176915000Y-34333333D01*
X176962619Y-34285714D01*
X177057857Y-34238095D01*
X177153095Y-34238095D01*
X177295952Y-34285714D01*
X177867380Y-34857142D01*
X177867380Y-34238095D01*
X177772142Y-32142857D02*
X177819761Y-32190476D01*
X177867380Y-32333333D01*
X177867380Y-32428571D01*
X177819761Y-32571428D01*
X177724523Y-32666666D01*
X177629285Y-32714285D01*
X177438809Y-32761904D01*
X177295952Y-32761904D01*
X177105476Y-32714285D01*
X177010238Y-32666666D01*
X176915000Y-32571428D01*
X176867380Y-32428571D01*
X176867380Y-32333333D01*
X176915000Y-32190476D01*
X176962619Y-32142857D01*
X177867380Y-31190476D02*
X177867380Y-31761904D01*
X177867380Y-31476190D02*
X176867380Y-31476190D01*
X177010238Y-31571428D01*
X177105476Y-31666666D01*
X177153095Y-31761904D01*
X177867380Y-30238095D02*
X177867380Y-30809523D01*
X177867380Y-30523809D02*
X176867380Y-30523809D01*
X177010238Y-30619047D01*
X177105476Y-30714285D01*
X177153095Y-30809523D01*
X177772142Y-28142857D02*
X177819761Y-28190476D01*
X177867380Y-28333333D01*
X177867380Y-28428571D01*
X177819761Y-28571428D01*
X177724523Y-28666666D01*
X177629285Y-28714285D01*
X177438809Y-28761904D01*
X177295952Y-28761904D01*
X177105476Y-28714285D01*
X177010238Y-28666666D01*
X176915000Y-28571428D01*
X176867380Y-28428571D01*
X176867380Y-28333333D01*
X176915000Y-28190476D01*
X176962619Y-28142857D01*
X177867380Y-27190476D02*
X177867380Y-27761904D01*
X177867380Y-27476190D02*
X176867380Y-27476190D01*
X177010238Y-27571428D01*
X177105476Y-27666666D01*
X177153095Y-27761904D01*
X176867380Y-26571428D02*
X176867380Y-26476190D01*
X176915000Y-26380952D01*
X176962619Y-26333333D01*
X177057857Y-26285714D01*
X177248333Y-26238095D01*
X177486428Y-26238095D01*
X177676904Y-26285714D01*
X177772142Y-26333333D01*
X177819761Y-26380952D01*
X177867380Y-26476190D01*
X177867380Y-26571428D01*
X177819761Y-26666666D01*
X177772142Y-26714285D01*
X177676904Y-26761904D01*
X177486428Y-26809523D01*
X177248333Y-26809523D01*
X177057857Y-26761904D01*
X176962619Y-26714285D01*
X176915000Y-26666666D01*
X176867380Y-26571428D01*
X69312142Y-44212380D02*
X68978809Y-43736190D01*
X68740714Y-44212380D02*
X68740714Y-43212380D01*
X69121666Y-43212380D01*
X69216904Y-43260000D01*
X69264523Y-43307619D01*
X69312142Y-43402857D01*
X69312142Y-43545714D01*
X69264523Y-43640952D01*
X69216904Y-43688571D01*
X69121666Y-43736190D01*
X68740714Y-43736190D01*
X70264523Y-44212380D02*
X69693095Y-44212380D01*
X69978809Y-44212380D02*
X69978809Y-43212380D01*
X69883571Y-43355238D01*
X69788333Y-43450476D01*
X69693095Y-43498095D01*
X71121666Y-43212380D02*
X70931190Y-43212380D01*
X70835952Y-43260000D01*
X70788333Y-43307619D01*
X70693095Y-43450476D01*
X70645476Y-43640952D01*
X70645476Y-44021904D01*
X70693095Y-44117142D01*
X70740714Y-44164761D01*
X70835952Y-44212380D01*
X71026428Y-44212380D01*
X71121666Y-44164761D01*
X71169285Y-44117142D01*
X71216904Y-44021904D01*
X71216904Y-43783809D01*
X71169285Y-43688571D01*
X71121666Y-43640952D01*
X71026428Y-43593333D01*
X70835952Y-43593333D01*
X70740714Y-43640952D01*
X70693095Y-43688571D01*
X70645476Y-43783809D01*
X69312142Y-41672380D02*
X68978809Y-41196190D01*
X68740714Y-41672380D02*
X68740714Y-40672380D01*
X69121666Y-40672380D01*
X69216904Y-40720000D01*
X69264523Y-40767619D01*
X69312142Y-40862857D01*
X69312142Y-41005714D01*
X69264523Y-41100952D01*
X69216904Y-41148571D01*
X69121666Y-41196190D01*
X68740714Y-41196190D01*
X70264523Y-41672380D02*
X69693095Y-41672380D01*
X69978809Y-41672380D02*
X69978809Y-40672380D01*
X69883571Y-40815238D01*
X69788333Y-40910476D01*
X69693095Y-40958095D01*
X71169285Y-40672380D02*
X70693095Y-40672380D01*
X70645476Y-41148571D01*
X70693095Y-41100952D01*
X70788333Y-41053333D01*
X71026428Y-41053333D01*
X71121666Y-41100952D01*
X71169285Y-41148571D01*
X71216904Y-41243809D01*
X71216904Y-41481904D01*
X71169285Y-41577142D01*
X71121666Y-41624761D01*
X71026428Y-41672380D01*
X70788333Y-41672380D01*
X70693095Y-41624761D01*
X70645476Y-41577142D01*
X69312142Y-39132380D02*
X68978809Y-38656190D01*
X68740714Y-39132380D02*
X68740714Y-38132380D01*
X69121666Y-38132380D01*
X69216904Y-38180000D01*
X69264523Y-38227619D01*
X69312142Y-38322857D01*
X69312142Y-38465714D01*
X69264523Y-38560952D01*
X69216904Y-38608571D01*
X69121666Y-38656190D01*
X68740714Y-38656190D01*
X70264523Y-39132380D02*
X69693095Y-39132380D01*
X69978809Y-39132380D02*
X69978809Y-38132380D01*
X69883571Y-38275238D01*
X69788333Y-38370476D01*
X69693095Y-38418095D01*
X71121666Y-38465714D02*
X71121666Y-39132380D01*
X70883571Y-38084761D02*
X70645476Y-38799047D01*
X71264523Y-38799047D01*
X69312142Y-36592380D02*
X68978809Y-36116190D01*
X68740714Y-36592380D02*
X68740714Y-35592380D01*
X69121666Y-35592380D01*
X69216904Y-35640000D01*
X69264523Y-35687619D01*
X69312142Y-35782857D01*
X69312142Y-35925714D01*
X69264523Y-36020952D01*
X69216904Y-36068571D01*
X69121666Y-36116190D01*
X68740714Y-36116190D01*
X70264523Y-36592380D02*
X69693095Y-36592380D01*
X69978809Y-36592380D02*
X69978809Y-35592380D01*
X69883571Y-35735238D01*
X69788333Y-35830476D01*
X69693095Y-35878095D01*
X70597857Y-35592380D02*
X71216904Y-35592380D01*
X70883571Y-35973333D01*
X71026428Y-35973333D01*
X71121666Y-36020952D01*
X71169285Y-36068571D01*
X71216904Y-36163809D01*
X71216904Y-36401904D01*
X71169285Y-36497142D01*
X71121666Y-36544761D01*
X71026428Y-36592380D01*
X70740714Y-36592380D01*
X70645476Y-36544761D01*
X70597857Y-36497142D01*
X69312142Y-34052380D02*
X68978809Y-33576190D01*
X68740714Y-34052380D02*
X68740714Y-33052380D01*
X69121666Y-33052380D01*
X69216904Y-33100000D01*
X69264523Y-33147619D01*
X69312142Y-33242857D01*
X69312142Y-33385714D01*
X69264523Y-33480952D01*
X69216904Y-33528571D01*
X69121666Y-33576190D01*
X68740714Y-33576190D01*
X70264523Y-34052380D02*
X69693095Y-34052380D01*
X69978809Y-34052380D02*
X69978809Y-33052380D01*
X69883571Y-33195238D01*
X69788333Y-33290476D01*
X69693095Y-33338095D01*
X70645476Y-33147619D02*
X70693095Y-33100000D01*
X70788333Y-33052380D01*
X71026428Y-33052380D01*
X71121666Y-33100000D01*
X71169285Y-33147619D01*
X71216904Y-33242857D01*
X71216904Y-33338095D01*
X71169285Y-33480952D01*
X70597857Y-34052380D01*
X71216904Y-34052380D01*
X69312142Y-31512380D02*
X68978809Y-31036190D01*
X68740714Y-31512380D02*
X68740714Y-30512380D01*
X69121666Y-30512380D01*
X69216904Y-30560000D01*
X69264523Y-30607619D01*
X69312142Y-30702857D01*
X69312142Y-30845714D01*
X69264523Y-30940952D01*
X69216904Y-30988571D01*
X69121666Y-31036190D01*
X68740714Y-31036190D01*
X70264523Y-31512380D02*
X69693095Y-31512380D01*
X69978809Y-31512380D02*
X69978809Y-30512380D01*
X69883571Y-30655238D01*
X69788333Y-30750476D01*
X69693095Y-30798095D01*
X71216904Y-31512380D02*
X70645476Y-31512380D01*
X70931190Y-31512380D02*
X70931190Y-30512380D01*
X70835952Y-30655238D01*
X70740714Y-30750476D01*
X70645476Y-30798095D01*
X69312142Y-28972380D02*
X68978809Y-28496190D01*
X68740714Y-28972380D02*
X68740714Y-27972380D01*
X69121666Y-27972380D01*
X69216904Y-28020000D01*
X69264523Y-28067619D01*
X69312142Y-28162857D01*
X69312142Y-28305714D01*
X69264523Y-28400952D01*
X69216904Y-28448571D01*
X69121666Y-28496190D01*
X68740714Y-28496190D01*
X70264523Y-28972380D02*
X69693095Y-28972380D01*
X69978809Y-28972380D02*
X69978809Y-27972380D01*
X69883571Y-28115238D01*
X69788333Y-28210476D01*
X69693095Y-28258095D01*
X70883571Y-27972380D02*
X70978809Y-27972380D01*
X71074047Y-28020000D01*
X71121666Y-28067619D01*
X71169285Y-28162857D01*
X71216904Y-28353333D01*
X71216904Y-28591428D01*
X71169285Y-28781904D01*
X71121666Y-28877142D01*
X71074047Y-28924761D01*
X70978809Y-28972380D01*
X70883571Y-28972380D01*
X70788333Y-28924761D01*
X70740714Y-28877142D01*
X70693095Y-28781904D01*
X70645476Y-28591428D01*
X70645476Y-28353333D01*
X70693095Y-28162857D01*
X70740714Y-28067619D01*
X70788333Y-28020000D01*
X70883571Y-27972380D01*
X69788333Y-26432380D02*
X69455000Y-25956190D01*
X69216904Y-26432380D02*
X69216904Y-25432380D01*
X69597857Y-25432380D01*
X69693095Y-25480000D01*
X69740714Y-25527619D01*
X69788333Y-25622857D01*
X69788333Y-25765714D01*
X69740714Y-25860952D01*
X69693095Y-25908571D01*
X69597857Y-25956190D01*
X69216904Y-25956190D01*
X70264523Y-26432380D02*
X70455000Y-26432380D01*
X70550238Y-26384761D01*
X70597857Y-26337142D01*
X70693095Y-26194285D01*
X70740714Y-26003809D01*
X70740714Y-25622857D01*
X70693095Y-25527619D01*
X70645476Y-25480000D01*
X70550238Y-25432380D01*
X70359761Y-25432380D01*
X70264523Y-25480000D01*
X70216904Y-25527619D01*
X70169285Y-25622857D01*
X70169285Y-25860952D01*
X70216904Y-25956190D01*
X70264523Y-26003809D01*
X70359761Y-26051428D01*
X70550238Y-26051428D01*
X70645476Y-26003809D01*
X70693095Y-25956190D01*
X70740714Y-25860952D01*
X60248333Y-44212380D02*
X59915000Y-43736190D01*
X59676904Y-44212380D02*
X59676904Y-43212380D01*
X60057857Y-43212380D01*
X60153095Y-43260000D01*
X60200714Y-43307619D01*
X60248333Y-43402857D01*
X60248333Y-43545714D01*
X60200714Y-43640952D01*
X60153095Y-43688571D01*
X60057857Y-43736190D01*
X59676904Y-43736190D01*
X60819761Y-43640952D02*
X60724523Y-43593333D01*
X60676904Y-43545714D01*
X60629285Y-43450476D01*
X60629285Y-43402857D01*
X60676904Y-43307619D01*
X60724523Y-43260000D01*
X60819761Y-43212380D01*
X61010238Y-43212380D01*
X61105476Y-43260000D01*
X61153095Y-43307619D01*
X61200714Y-43402857D01*
X61200714Y-43450476D01*
X61153095Y-43545714D01*
X61105476Y-43593333D01*
X61010238Y-43640952D01*
X60819761Y-43640952D01*
X60724523Y-43688571D01*
X60676904Y-43736190D01*
X60629285Y-43831428D01*
X60629285Y-44021904D01*
X60676904Y-44117142D01*
X60724523Y-44164761D01*
X60819761Y-44212380D01*
X61010238Y-44212380D01*
X61105476Y-44164761D01*
X61153095Y-44117142D01*
X61200714Y-44021904D01*
X61200714Y-43831428D01*
X61153095Y-43736190D01*
X61105476Y-43688571D01*
X61010238Y-43640952D01*
X60248333Y-41672380D02*
X59915000Y-41196190D01*
X59676904Y-41672380D02*
X59676904Y-40672380D01*
X60057857Y-40672380D01*
X60153095Y-40720000D01*
X60200714Y-40767619D01*
X60248333Y-40862857D01*
X60248333Y-41005714D01*
X60200714Y-41100952D01*
X60153095Y-41148571D01*
X60057857Y-41196190D01*
X59676904Y-41196190D01*
X60581666Y-40672380D02*
X61248333Y-40672380D01*
X60819761Y-41672380D01*
X60248333Y-39132380D02*
X59915000Y-38656190D01*
X59676904Y-39132380D02*
X59676904Y-38132380D01*
X60057857Y-38132380D01*
X60153095Y-38180000D01*
X60200714Y-38227619D01*
X60248333Y-38322857D01*
X60248333Y-38465714D01*
X60200714Y-38560952D01*
X60153095Y-38608571D01*
X60057857Y-38656190D01*
X59676904Y-38656190D01*
X61105476Y-38132380D02*
X60915000Y-38132380D01*
X60819761Y-38180000D01*
X60772142Y-38227619D01*
X60676904Y-38370476D01*
X60629285Y-38560952D01*
X60629285Y-38941904D01*
X60676904Y-39037142D01*
X60724523Y-39084761D01*
X60819761Y-39132380D01*
X61010238Y-39132380D01*
X61105476Y-39084761D01*
X61153095Y-39037142D01*
X61200714Y-38941904D01*
X61200714Y-38703809D01*
X61153095Y-38608571D01*
X61105476Y-38560952D01*
X61010238Y-38513333D01*
X60819761Y-38513333D01*
X60724523Y-38560952D01*
X60676904Y-38608571D01*
X60629285Y-38703809D01*
X60248333Y-36592380D02*
X59915000Y-36116190D01*
X59676904Y-36592380D02*
X59676904Y-35592380D01*
X60057857Y-35592380D01*
X60153095Y-35640000D01*
X60200714Y-35687619D01*
X60248333Y-35782857D01*
X60248333Y-35925714D01*
X60200714Y-36020952D01*
X60153095Y-36068571D01*
X60057857Y-36116190D01*
X59676904Y-36116190D01*
X61153095Y-35592380D02*
X60676904Y-35592380D01*
X60629285Y-36068571D01*
X60676904Y-36020952D01*
X60772142Y-35973333D01*
X61010238Y-35973333D01*
X61105476Y-36020952D01*
X61153095Y-36068571D01*
X61200714Y-36163809D01*
X61200714Y-36401904D01*
X61153095Y-36497142D01*
X61105476Y-36544761D01*
X61010238Y-36592380D01*
X60772142Y-36592380D01*
X60676904Y-36544761D01*
X60629285Y-36497142D01*
X60248333Y-34052380D02*
X59915000Y-33576190D01*
X59676904Y-34052380D02*
X59676904Y-33052380D01*
X60057857Y-33052380D01*
X60153095Y-33100000D01*
X60200714Y-33147619D01*
X60248333Y-33242857D01*
X60248333Y-33385714D01*
X60200714Y-33480952D01*
X60153095Y-33528571D01*
X60057857Y-33576190D01*
X59676904Y-33576190D01*
X61105476Y-33385714D02*
X61105476Y-34052380D01*
X60867380Y-33004761D02*
X60629285Y-33719047D01*
X61248333Y-33719047D01*
X60248333Y-31512380D02*
X59915000Y-31036190D01*
X59676904Y-31512380D02*
X59676904Y-30512380D01*
X60057857Y-30512380D01*
X60153095Y-30560000D01*
X60200714Y-30607619D01*
X60248333Y-30702857D01*
X60248333Y-30845714D01*
X60200714Y-30940952D01*
X60153095Y-30988571D01*
X60057857Y-31036190D01*
X59676904Y-31036190D01*
X60581666Y-30512380D02*
X61200714Y-30512380D01*
X60867380Y-30893333D01*
X61010238Y-30893333D01*
X61105476Y-30940952D01*
X61153095Y-30988571D01*
X61200714Y-31083809D01*
X61200714Y-31321904D01*
X61153095Y-31417142D01*
X61105476Y-31464761D01*
X61010238Y-31512380D01*
X60724523Y-31512380D01*
X60629285Y-31464761D01*
X60581666Y-31417142D01*
X60248333Y-28972380D02*
X59915000Y-28496190D01*
X59676904Y-28972380D02*
X59676904Y-27972380D01*
X60057857Y-27972380D01*
X60153095Y-28020000D01*
X60200714Y-28067619D01*
X60248333Y-28162857D01*
X60248333Y-28305714D01*
X60200714Y-28400952D01*
X60153095Y-28448571D01*
X60057857Y-28496190D01*
X59676904Y-28496190D01*
X60629285Y-28067619D02*
X60676904Y-28020000D01*
X60772142Y-27972380D01*
X61010238Y-27972380D01*
X61105476Y-28020000D01*
X61153095Y-28067619D01*
X61200714Y-28162857D01*
X61200714Y-28258095D01*
X61153095Y-28400952D01*
X60581666Y-28972380D01*
X61200714Y-28972380D01*
X60248333Y-26432380D02*
X59915000Y-25956190D01*
X59676904Y-26432380D02*
X59676904Y-25432380D01*
X60057857Y-25432380D01*
X60153095Y-25480000D01*
X60200714Y-25527619D01*
X60248333Y-25622857D01*
X60248333Y-25765714D01*
X60200714Y-25860952D01*
X60153095Y-25908571D01*
X60057857Y-25956190D01*
X59676904Y-25956190D01*
X61200714Y-26432380D02*
X60629285Y-26432380D01*
X60915000Y-26432380D02*
X60915000Y-25432380D01*
X60819761Y-25575238D01*
X60724523Y-25670476D01*
X60629285Y-25718095D01*
X75702142Y-27666666D02*
X75749761Y-27714285D01*
X75797380Y-27857142D01*
X75797380Y-27952380D01*
X75749761Y-28095238D01*
X75654523Y-28190476D01*
X75559285Y-28238095D01*
X75368809Y-28285714D01*
X75225952Y-28285714D01*
X75035476Y-28238095D01*
X74940238Y-28190476D01*
X74845000Y-28095238D01*
X74797380Y-27952380D01*
X74797380Y-27857142D01*
X74845000Y-27714285D01*
X74892619Y-27666666D01*
X74892619Y-27285714D02*
X74845000Y-27238095D01*
X74797380Y-27142857D01*
X74797380Y-26904761D01*
X74845000Y-26809523D01*
X74892619Y-26761904D01*
X74987857Y-26714285D01*
X75083095Y-26714285D01*
X75225952Y-26761904D01*
X75797380Y-27333333D01*
X75797380Y-26714285D01*
X177772142Y-23666666D02*
X177819761Y-23714285D01*
X177867380Y-23857142D01*
X177867380Y-23952380D01*
X177819761Y-24095238D01*
X177724523Y-24190476D01*
X177629285Y-24238095D01*
X177438809Y-24285714D01*
X177295952Y-24285714D01*
X177105476Y-24238095D01*
X177010238Y-24190476D01*
X176915000Y-24095238D01*
X176867380Y-23952380D01*
X176867380Y-23857142D01*
X176915000Y-23714285D01*
X176962619Y-23666666D01*
X177867380Y-23190476D02*
X177867380Y-23000000D01*
X177819761Y-22904761D01*
X177772142Y-22857142D01*
X177629285Y-22761904D01*
X177438809Y-22714285D01*
X177057857Y-22714285D01*
X176962619Y-22761904D01*
X176915000Y-22809523D01*
X176867380Y-22904761D01*
X176867380Y-23095238D01*
X176915000Y-23190476D01*
X176962619Y-23238095D01*
X177057857Y-23285714D01*
X177295952Y-23285714D01*
X177391190Y-23238095D01*
X177438809Y-23190476D01*
X177486428Y-23095238D01*
X177486428Y-22904761D01*
X177438809Y-22809523D01*
X177391190Y-22761904D01*
X177295952Y-22714285D01*
X75702142Y-23666666D02*
X75749761Y-23714285D01*
X75797380Y-23857142D01*
X75797380Y-23952380D01*
X75749761Y-24095238D01*
X75654523Y-24190476D01*
X75559285Y-24238095D01*
X75368809Y-24285714D01*
X75225952Y-24285714D01*
X75035476Y-24238095D01*
X74940238Y-24190476D01*
X74845000Y-24095238D01*
X74797380Y-23952380D01*
X74797380Y-23857142D01*
X74845000Y-23714285D01*
X74892619Y-23666666D01*
X75797380Y-22714285D02*
X75797380Y-23285714D01*
X75797380Y-23000000D02*
X74797380Y-23000000D01*
X74940238Y-23095238D01*
X75035476Y-23190476D01*
X75083095Y-23285714D01*
M02*
