M48
; DRILL file {KiCad 5.1.4} date Thu 22 Aug 2019 23:22:36 NZST
; FORMAT={-:-/ absolute / inch / decimal}
; #@! TF.CreationDate,2019-08-22T23:22:36+12:00
; #@! TF.GenerationSoftware,Kicad,Pcbnew,5.1.4
; #@! TF.FileFunction,Plated,1,2,PTH
FMAT,2
INCH
T1C0.0157
T2C0.0394
%
G90
G05
T1
X3.0759Y-0.8942
X3.0759Y-1.2092
X3.0759Y-1.8391
X3.0759Y-1.0517
X3.0759Y-1.6816
X3.0759Y-1.9966
X3.0759Y-1.3666
X3.0759Y-1.5241
X3.1266Y-1.0236
X3.1266Y-1.1811
X3.1266Y-1.3386
X3.1266Y-1.4961
X3.1266Y-1.6535
X3.1266Y-1.811
X3.1266Y-1.9685
X3.2644Y-0.9055
X3.2644Y-1.063
X3.2644Y-1.2205
X3.2644Y-1.378
X3.2644Y-1.5354
X3.2644Y-1.6929
X3.2644Y-1.8504
X3.2644Y-2.0079
X3.3431Y-1.0305
X3.3431Y-1.188
X3.3431Y-1.3455
X3.3431Y-1.503
X3.3431Y-1.6604
X3.3431Y-1.8179
X3.3431Y-1.9754
X3.4219Y-0.9055
X3.4219Y-1.063
X3.4219Y-1.2205
X3.4219Y-1.378
X3.4219Y-1.5354
X3.4219Y-1.6929
X3.4219Y-1.8504
X3.4219Y-2.0079
X3.5793Y-0.9055
X3.5793Y-1.063
X3.5793Y-1.2205
X3.5793Y-1.378
X3.5793Y-1.5354
X3.5793Y-1.6929
X3.5793Y-1.8504
X3.5793Y-2.0079
X3.7368Y-0.9055
X3.7368Y-1.063
X3.7368Y-1.2205
X3.7368Y-1.378
X3.7368Y-1.5354
X3.7368Y-1.6929
X3.7368Y-1.8504
X3.7368Y-2.0079
X3.8943Y-0.9055
X3.8943Y-1.063
X3.8943Y-1.2205
X3.8943Y-1.378
X3.8943Y-1.5354
X3.8943Y-1.6929
X3.8943Y-1.8504
X3.8943Y-2.0079
X4.0518Y-0.9055
X4.0518Y-1.063
X4.0518Y-1.2205
X4.0518Y-1.378
X4.0518Y-1.5354
X4.0518Y-1.6929
X4.0518Y-1.8504
X4.0518Y-2.0079
X4.2093Y-0.9055
X4.2093Y-1.063
X4.2093Y-1.2205
X4.2093Y-1.378
X4.2093Y-1.5354
X4.2093Y-1.6929
X4.2093Y-1.8504
X4.2093Y-2.0079
X4.3667Y-0.9055
X4.3667Y-1.063
X4.3667Y-1.2205
X4.3667Y-1.378
X4.3667Y-1.5354
X4.3667Y-1.6929
X4.3667Y-1.8504
X4.3667Y-2.0079
X4.5242Y-0.9055
X4.5242Y-1.063
X4.5242Y-1.2205
X4.5242Y-1.378
X4.5242Y-1.5354
X4.5242Y-1.6929
X4.5242Y-1.8504
X4.5242Y-2.0079
X4.6817Y-0.9055
X4.6817Y-1.063
X4.6817Y-1.2205
X4.6817Y-1.378
X4.6817Y-1.5354
X4.6817Y-1.6929
X4.6817Y-1.8504
X4.6817Y-2.0079
X4.8392Y-0.9055
X4.8392Y-1.063
X4.8392Y-1.2205
X4.8392Y-1.378
X4.8392Y-1.5354
X4.8392Y-1.6929
X4.8392Y-1.8504
X4.8392Y-2.0079
X4.9967Y-0.8858
X4.9967Y-1.0433
X4.9967Y-1.2008
X4.9967Y-1.3583
X4.9967Y-1.5157
X4.9967Y-1.6732
X4.9967Y-1.8307
X4.9967Y-1.9882
X5.1541Y-0.9055
X5.1541Y-1.063
X5.1541Y-1.2205
X5.1541Y-1.378
X5.1541Y-1.5354
X5.1541Y-1.6929
X5.1541Y-1.8504
X5.1541Y-2.0079
X5.3116Y-0.9055
X5.3116Y-1.063
X5.3116Y-1.2205
X5.3116Y-1.378
X5.3116Y-1.5354
X5.3116Y-1.6929
X5.3116Y-1.8504
X5.3116Y-2.0079
X5.4691Y-0.9055
X5.4691Y-1.063
X5.4691Y-1.2205
X5.4691Y-1.378
X5.4691Y-1.5354
X5.4691Y-1.6929
X5.4691Y-1.8504
X5.4691Y-2.0079
X5.6266Y-0.9055
X5.6266Y-1.063
X5.6266Y-1.2205
X5.6266Y-1.378
X5.6266Y-1.5354
X5.6266Y-1.6929
X5.6266Y-1.8504
X5.6266Y-2.0079
X5.7841Y-0.9055
X5.7841Y-1.063
X5.7841Y-1.2205
X5.7841Y-1.378
X5.7841Y-1.5354
X5.7841Y-1.6929
X5.7841Y-1.8504
X5.7841Y-2.0079
X5.9415Y-0.9055
X5.9415Y-1.063
X5.9415Y-1.2205
X5.9415Y-1.378
X5.9415Y-1.5354
X5.9415Y-1.6929
X5.9415Y-1.8504
X5.9415Y-2.0079
X6.099Y-0.9055
X6.099Y-1.063
X6.099Y-1.2205
X6.099Y-1.378
X6.099Y-1.5354
X6.099Y-1.6929
X6.099Y-1.8504
X6.099Y-2.0079
X6.2565Y-0.9055
X6.2565Y-1.063
X6.2565Y-1.2205
X6.2565Y-1.378
X6.2565Y-1.5354
X6.2565Y-1.6929
X6.2565Y-1.8504
X6.2565Y-2.0079
X6.414Y-0.9055
X6.414Y-1.063
X6.414Y-1.2205
X6.414Y-1.378
X6.414Y-1.5354
X6.414Y-1.6929
X6.414Y-1.8504
X6.414Y-2.0079
X6.5715Y-0.9055
X6.5715Y-1.063
X6.5715Y-1.2205
X6.5715Y-1.378
X6.5715Y-1.5354
X6.5715Y-1.6929
X6.5715Y-1.8504
X6.5715Y-2.0079
X6.7289Y-0.9055
X6.7289Y-1.063
X6.7289Y-1.2205
X6.7289Y-1.378
X6.7289Y-1.5354
X6.7289Y-1.6929
X6.7289Y-1.8504
X6.7289Y-2.0079
X6.8864Y-0.9252
X6.8864Y-1.0827
X6.8864Y-1.2402
X6.8864Y-1.3976
X6.8864Y-1.5551
X6.8864Y-1.7126
X6.8864Y-1.8701
X6.8864Y-2.0276
T2
X2.5163Y-1.0728
X2.5163Y-1.1728
X2.5163Y-1.2728
X2.5163Y-1.3728
X2.5163Y-1.4728
X2.5163Y-1.5728
X2.5163Y-1.6728
X2.5163Y-1.7728
X2.5163Y-1.8728
X2.6163Y-1.0728
X2.6163Y-1.1728
X2.6163Y-1.2728
X2.6163Y-1.3728
X2.6163Y-1.4728
X2.6163Y-1.5728
X2.6163Y-1.6728
X2.6163Y-1.7728
X2.6163Y-1.8728
T0
M30
