G04 #@! TF.GenerationSoftware,KiCad,Pcbnew,5.1.4*
G04 #@! TF.CreationDate,2019-08-22T23:24:25+12:00*
G04 #@! TF.ProjectId,phloxleds,70686c6f-786c-4656-9473-2e6b69636164,rev?*
G04 #@! TF.SameCoordinates,Original*
G04 #@! TF.FileFunction,Copper,L2,Bot*
G04 #@! TF.FilePolarity,Positive*
%FSLAX46Y46*%
G04 Gerber Fmt 4.6, Leading zero omitted, Abs format (unit mm)*
G04 Created by KiCad (PCBNEW 5.1.4) date 2019-08-22 23:24:25*
%MOMM*%
%LPD*%
G04 APERTURE LIST*
%ADD10O,1.700000X1.700000*%
%ADD11R,1.700000X1.700000*%
%ADD12C,0.800000*%
%ADD13C,0.150000*%
%ADD14C,0.254000*%
G04 APERTURE END LIST*
D10*
X66455000Y-47570000D03*
X63915000Y-47570000D03*
X66455000Y-45030000D03*
X63915000Y-45030000D03*
X66455000Y-42490000D03*
X63915000Y-42490000D03*
X66455000Y-39950000D03*
X63915000Y-39950000D03*
X66455000Y-37410000D03*
X63915000Y-37410000D03*
X66455000Y-34870000D03*
X63915000Y-34870000D03*
X66455000Y-32330000D03*
X63915000Y-32330000D03*
X66455000Y-29790000D03*
X63915000Y-29790000D03*
X66455000Y-27250000D03*
D11*
X63915000Y-27250000D03*
D12*
X82915000Y-31000000D03*
X82915000Y-35000000D03*
X82915000Y-39000000D03*
X82915000Y-43000000D03*
X82915000Y-47000000D03*
X82915000Y-51000000D03*
X82915000Y-23000000D03*
X82915000Y-27000000D03*
X174915000Y-23500000D03*
X86915000Y-23000000D03*
X90915000Y-23000000D03*
X94915000Y-23000000D03*
X98915000Y-23000000D03*
X102915000Y-23000000D03*
X106915000Y-23000000D03*
X110915000Y-23000000D03*
X114915000Y-23000000D03*
X118915000Y-23000000D03*
X122915000Y-23000000D03*
X130915000Y-23000000D03*
X134915000Y-23000000D03*
X138915000Y-23000000D03*
X142915000Y-23000000D03*
X146915000Y-23000000D03*
X150915000Y-23000000D03*
X154915000Y-23000000D03*
X158915000Y-23000000D03*
X162915000Y-23000000D03*
X166915000Y-23000000D03*
X170915000Y-23000000D03*
X126915000Y-22500000D03*
X98915000Y-27000000D03*
X98915000Y-31000000D03*
X98915000Y-35000000D03*
X98915000Y-39000000D03*
X98915000Y-43000000D03*
X98915000Y-47000000D03*
X98915000Y-51000000D03*
X162915000Y-27000000D03*
X162915000Y-31000000D03*
X162915000Y-35000000D03*
X162915000Y-39000000D03*
X162915000Y-43000000D03*
X162915000Y-47000000D03*
X162915000Y-51000000D03*
X106915000Y-27000000D03*
X106915000Y-31000000D03*
X106915000Y-35000000D03*
X106915000Y-39000000D03*
X106915000Y-43000000D03*
X106915000Y-47000000D03*
X106915000Y-51000000D03*
X86915000Y-27000000D03*
X86915000Y-31000000D03*
X86915000Y-35000000D03*
X86915000Y-39000000D03*
X86915000Y-43000000D03*
X86915000Y-47000000D03*
X86915000Y-51000000D03*
X138915000Y-27000000D03*
X138915000Y-31000000D03*
X138915000Y-35000000D03*
X138915000Y-39000000D03*
X138915000Y-43000000D03*
X138915000Y-47000000D03*
X138915000Y-51000000D03*
X170915000Y-27000000D03*
X170915000Y-31000000D03*
X170915000Y-35000000D03*
X170915000Y-39000000D03*
X170915000Y-43000000D03*
X170915000Y-47000000D03*
X170915000Y-51000000D03*
X158915000Y-27000000D03*
X158915000Y-31000000D03*
X158915000Y-35000000D03*
X158915000Y-39000000D03*
X158915000Y-43000000D03*
X158915000Y-47000000D03*
X158915000Y-51000000D03*
X154915000Y-27000000D03*
X154915000Y-31000000D03*
X154915000Y-35000000D03*
X154915000Y-39000000D03*
X154915000Y-43000000D03*
X154915000Y-47000000D03*
X154915000Y-51000000D03*
X130915000Y-27000000D03*
X130915000Y-31000000D03*
X130915000Y-35000000D03*
X130915000Y-39000000D03*
X130915000Y-43000000D03*
X130915000Y-47000000D03*
X130915000Y-51000000D03*
X114915000Y-27000000D03*
X114915000Y-31000000D03*
X114915000Y-35000000D03*
X114915000Y-39000000D03*
X114915000Y-43000000D03*
X114915000Y-47000000D03*
X114915000Y-51000000D03*
X174915000Y-27500000D03*
X174915000Y-35500000D03*
X174915000Y-39500000D03*
X174915000Y-43500000D03*
X174915000Y-47500000D03*
X94915000Y-27000000D03*
X94915000Y-31000000D03*
X94915000Y-35000000D03*
X94915000Y-39000000D03*
X94915000Y-43000000D03*
X94915000Y-47000000D03*
X94915000Y-51000000D03*
X146915000Y-27000000D03*
X146915000Y-31000000D03*
X146915000Y-35000000D03*
X146915000Y-39000000D03*
X146915000Y-43000000D03*
X146915000Y-47000000D03*
X146915000Y-51000000D03*
X142915000Y-27000000D03*
X142915000Y-31000000D03*
X142915000Y-35000000D03*
X142915000Y-39000000D03*
X142915000Y-43000000D03*
X142915000Y-47000000D03*
X142915000Y-51000000D03*
X126915000Y-26500000D03*
X126915000Y-30500000D03*
X126915000Y-34500000D03*
X126915000Y-38500000D03*
X126915000Y-42500000D03*
X126915000Y-46500000D03*
X126915000Y-50500000D03*
X134915000Y-27000000D03*
X134915000Y-31000000D03*
X134915000Y-35000000D03*
X134915000Y-39000000D03*
X134915000Y-43000000D03*
X134915000Y-47000000D03*
X134915000Y-51000000D03*
X110915000Y-27000000D03*
X110915000Y-31000000D03*
X110915000Y-35000000D03*
X110915000Y-39000000D03*
X110915000Y-43000000D03*
X110915000Y-47000000D03*
X110915000Y-51000000D03*
X166915000Y-27000000D03*
X166915000Y-31000000D03*
X166915000Y-35000000D03*
X166915000Y-39000000D03*
X166915000Y-43000000D03*
X166915000Y-47000000D03*
X166915000Y-51000000D03*
X102915000Y-27000000D03*
X102915000Y-31000000D03*
X102915000Y-35000000D03*
X102915000Y-39000000D03*
X102915000Y-43000000D03*
X102915000Y-47000000D03*
X102915000Y-51000000D03*
X118915000Y-27000000D03*
X118915000Y-31000000D03*
X118915000Y-35000000D03*
X118915000Y-39000000D03*
X118915000Y-43000000D03*
X118915000Y-47000000D03*
X118915000Y-51000000D03*
X90915000Y-27000000D03*
X90915000Y-31000000D03*
X90915000Y-35000000D03*
X90915000Y-39000000D03*
X90915000Y-43000000D03*
X90915000Y-47000000D03*
X90915000Y-51000000D03*
X122915000Y-27000000D03*
X122915000Y-31000000D03*
X122915000Y-35000000D03*
X122915000Y-39000000D03*
X122915000Y-43000000D03*
X122915000Y-47000000D03*
X122915000Y-51000000D03*
X150915000Y-27000000D03*
X150915000Y-31000000D03*
X150915000Y-35000000D03*
X150915000Y-39000000D03*
X150915000Y-43000000D03*
X150915000Y-47000000D03*
X150915000Y-51000000D03*
X174915000Y-31500000D03*
X174915000Y-51500000D03*
X78127500Y-42712500D03*
X78127497Y-46712497D03*
X78127508Y-38712508D03*
X78127505Y-34712505D03*
X78127497Y-30712497D03*
X78127499Y-26712499D03*
X78127497Y-22712497D03*
X78127504Y-50712504D03*
X84915000Y-26175000D03*
X79415000Y-26000000D03*
X79415000Y-30000000D03*
X84915000Y-30175000D03*
X79415000Y-34000000D03*
X84915000Y-34175000D03*
X79415000Y-38000000D03*
X84915000Y-38175000D03*
X79415000Y-42000000D03*
X84915000Y-42175000D03*
X79415000Y-46000000D03*
X84915000Y-46175000D03*
X79415000Y-50000000D03*
X84915000Y-50175000D03*
D13*
X84740000Y-26000000D02*
X84915000Y-26175000D01*
X79415000Y-26000000D02*
X84740000Y-26000000D01*
X84740000Y-30000000D02*
X84915000Y-30175000D01*
X79415000Y-30000000D02*
X84740000Y-30000000D01*
X84740000Y-34000000D02*
X84915000Y-34175000D01*
X79415000Y-34000000D02*
X84740000Y-34000000D01*
X84740000Y-38000000D02*
X84915000Y-38175000D01*
X79415000Y-38000000D02*
X84740000Y-38000000D01*
X84740000Y-42000000D02*
X84915000Y-42175000D01*
X79415000Y-42000000D02*
X84740000Y-42000000D01*
X84740000Y-46000000D02*
X84915000Y-46175000D01*
X79415000Y-46000000D02*
X84740000Y-46000000D01*
X84740000Y-50000000D02*
X84915000Y-50175000D01*
X79415000Y-50000000D02*
X84740000Y-50000000D01*
D14*
G36*
X178525001Y-54230000D02*
G01*
X57345000Y-54230000D01*
X57345000Y-49898061D01*
X78380000Y-49898061D01*
X78380000Y-50101939D01*
X78419774Y-50301898D01*
X78497795Y-50490256D01*
X78611063Y-50659774D01*
X78755226Y-50803937D01*
X78924744Y-50917205D01*
X79113102Y-50995226D01*
X79313061Y-51035000D01*
X79516939Y-51035000D01*
X79716898Y-50995226D01*
X79905256Y-50917205D01*
X80074774Y-50803937D01*
X80168711Y-50710000D01*
X84027692Y-50710000D01*
X84111063Y-50834774D01*
X84255226Y-50978937D01*
X84424744Y-51092205D01*
X84613102Y-51170226D01*
X84813061Y-51210000D01*
X85016939Y-51210000D01*
X85216898Y-51170226D01*
X85405256Y-51092205D01*
X85574774Y-50978937D01*
X85718937Y-50834774D01*
X85832205Y-50665256D01*
X85910226Y-50476898D01*
X85950000Y-50276939D01*
X85950000Y-50073061D01*
X85910226Y-49873102D01*
X85832205Y-49684744D01*
X85718937Y-49515226D01*
X85574774Y-49371063D01*
X85405256Y-49257795D01*
X85216898Y-49179774D01*
X85016939Y-49140000D01*
X84813061Y-49140000D01*
X84613102Y-49179774D01*
X84424744Y-49257795D01*
X84376546Y-49290000D01*
X80168711Y-49290000D01*
X80074774Y-49196063D01*
X79905256Y-49082795D01*
X79716898Y-49004774D01*
X79516939Y-48965000D01*
X79313061Y-48965000D01*
X79113102Y-49004774D01*
X78924744Y-49082795D01*
X78755226Y-49196063D01*
X78611063Y-49340226D01*
X78497795Y-49509744D01*
X78419774Y-49698102D01*
X78380000Y-49898061D01*
X57345000Y-49898061D01*
X57345000Y-47926890D01*
X62473524Y-47926890D01*
X62518175Y-48074099D01*
X62643359Y-48336920D01*
X62817412Y-48570269D01*
X63033645Y-48765178D01*
X63283748Y-48914157D01*
X63558109Y-49011481D01*
X63788000Y-48890814D01*
X63788000Y-47697000D01*
X62594845Y-47697000D01*
X62473524Y-47926890D01*
X57345000Y-47926890D01*
X57345000Y-29790000D01*
X62422815Y-29790000D01*
X62451487Y-30081111D01*
X62536401Y-30361034D01*
X62674294Y-30619014D01*
X62859866Y-30845134D01*
X63085986Y-31030706D01*
X63140791Y-31060000D01*
X63085986Y-31089294D01*
X62859866Y-31274866D01*
X62674294Y-31500986D01*
X62536401Y-31758966D01*
X62451487Y-32038889D01*
X62422815Y-32330000D01*
X62451487Y-32621111D01*
X62536401Y-32901034D01*
X62674294Y-33159014D01*
X62859866Y-33385134D01*
X63085986Y-33570706D01*
X63140791Y-33600000D01*
X63085986Y-33629294D01*
X62859866Y-33814866D01*
X62674294Y-34040986D01*
X62536401Y-34298966D01*
X62451487Y-34578889D01*
X62422815Y-34870000D01*
X62451487Y-35161111D01*
X62536401Y-35441034D01*
X62674294Y-35699014D01*
X62859866Y-35925134D01*
X63085986Y-36110706D01*
X63140791Y-36140000D01*
X63085986Y-36169294D01*
X62859866Y-36354866D01*
X62674294Y-36580986D01*
X62536401Y-36838966D01*
X62451487Y-37118889D01*
X62422815Y-37410000D01*
X62451487Y-37701111D01*
X62536401Y-37981034D01*
X62674294Y-38239014D01*
X62859866Y-38465134D01*
X63085986Y-38650706D01*
X63140791Y-38680000D01*
X63085986Y-38709294D01*
X62859866Y-38894866D01*
X62674294Y-39120986D01*
X62536401Y-39378966D01*
X62451487Y-39658889D01*
X62422815Y-39950000D01*
X62451487Y-40241111D01*
X62536401Y-40521034D01*
X62674294Y-40779014D01*
X62859866Y-41005134D01*
X63085986Y-41190706D01*
X63140791Y-41220000D01*
X63085986Y-41249294D01*
X62859866Y-41434866D01*
X62674294Y-41660986D01*
X62536401Y-41918966D01*
X62451487Y-42198889D01*
X62422815Y-42490000D01*
X62451487Y-42781111D01*
X62536401Y-43061034D01*
X62674294Y-43319014D01*
X62859866Y-43545134D01*
X63085986Y-43730706D01*
X63140791Y-43760000D01*
X63085986Y-43789294D01*
X62859866Y-43974866D01*
X62674294Y-44200986D01*
X62536401Y-44458966D01*
X62451487Y-44738889D01*
X62422815Y-45030000D01*
X62451487Y-45321111D01*
X62536401Y-45601034D01*
X62674294Y-45859014D01*
X62859866Y-46085134D01*
X63085986Y-46270706D01*
X63150523Y-46305201D01*
X63033645Y-46374822D01*
X62817412Y-46569731D01*
X62643359Y-46803080D01*
X62518175Y-47065901D01*
X62473524Y-47213110D01*
X62594845Y-47443000D01*
X63788000Y-47443000D01*
X63788000Y-47423000D01*
X64042000Y-47423000D01*
X64042000Y-47443000D01*
X64062000Y-47443000D01*
X64062000Y-47697000D01*
X64042000Y-47697000D01*
X64042000Y-48890814D01*
X64271891Y-49011481D01*
X64546252Y-48914157D01*
X64796355Y-48765178D01*
X65012588Y-48570269D01*
X65183416Y-48341244D01*
X65214294Y-48399014D01*
X65399866Y-48625134D01*
X65625986Y-48810706D01*
X65883966Y-48948599D01*
X66163889Y-49033513D01*
X66382050Y-49055000D01*
X66527950Y-49055000D01*
X66746111Y-49033513D01*
X67026034Y-48948599D01*
X67284014Y-48810706D01*
X67510134Y-48625134D01*
X67695706Y-48399014D01*
X67833599Y-48141034D01*
X67918513Y-47861111D01*
X67947185Y-47570000D01*
X67918513Y-47278889D01*
X67833599Y-46998966D01*
X67695706Y-46740986D01*
X67510134Y-46514866D01*
X67284014Y-46329294D01*
X67229209Y-46300000D01*
X67284014Y-46270706D01*
X67510134Y-46085134D01*
X67663660Y-45898061D01*
X78380000Y-45898061D01*
X78380000Y-46101939D01*
X78419774Y-46301898D01*
X78497795Y-46490256D01*
X78611063Y-46659774D01*
X78755226Y-46803937D01*
X78924744Y-46917205D01*
X79113102Y-46995226D01*
X79313061Y-47035000D01*
X79516939Y-47035000D01*
X79716898Y-46995226D01*
X79905256Y-46917205D01*
X80074774Y-46803937D01*
X80168711Y-46710000D01*
X84027692Y-46710000D01*
X84111063Y-46834774D01*
X84255226Y-46978937D01*
X84424744Y-47092205D01*
X84613102Y-47170226D01*
X84813061Y-47210000D01*
X85016939Y-47210000D01*
X85216898Y-47170226D01*
X85405256Y-47092205D01*
X85574774Y-46978937D01*
X85718937Y-46834774D01*
X85832205Y-46665256D01*
X85910226Y-46476898D01*
X85950000Y-46276939D01*
X85950000Y-46073061D01*
X85910226Y-45873102D01*
X85832205Y-45684744D01*
X85718937Y-45515226D01*
X85574774Y-45371063D01*
X85405256Y-45257795D01*
X85216898Y-45179774D01*
X85016939Y-45140000D01*
X84813061Y-45140000D01*
X84613102Y-45179774D01*
X84424744Y-45257795D01*
X84376546Y-45290000D01*
X80168711Y-45290000D01*
X80074774Y-45196063D01*
X79905256Y-45082795D01*
X79716898Y-45004774D01*
X79516939Y-44965000D01*
X79313061Y-44965000D01*
X79113102Y-45004774D01*
X78924744Y-45082795D01*
X78755226Y-45196063D01*
X78611063Y-45340226D01*
X78497795Y-45509744D01*
X78419774Y-45698102D01*
X78380000Y-45898061D01*
X67663660Y-45898061D01*
X67695706Y-45859014D01*
X67833599Y-45601034D01*
X67918513Y-45321111D01*
X67947185Y-45030000D01*
X67918513Y-44738889D01*
X67833599Y-44458966D01*
X67695706Y-44200986D01*
X67510134Y-43974866D01*
X67284014Y-43789294D01*
X67229209Y-43760000D01*
X67284014Y-43730706D01*
X67510134Y-43545134D01*
X67695706Y-43319014D01*
X67833599Y-43061034D01*
X67918513Y-42781111D01*
X67947185Y-42490000D01*
X67918513Y-42198889D01*
X67833599Y-41918966D01*
X67822426Y-41898061D01*
X78380000Y-41898061D01*
X78380000Y-42101939D01*
X78419774Y-42301898D01*
X78497795Y-42490256D01*
X78611063Y-42659774D01*
X78755226Y-42803937D01*
X78924744Y-42917205D01*
X79113102Y-42995226D01*
X79313061Y-43035000D01*
X79516939Y-43035000D01*
X79716898Y-42995226D01*
X79905256Y-42917205D01*
X80074774Y-42803937D01*
X80168711Y-42710000D01*
X84027692Y-42710000D01*
X84111063Y-42834774D01*
X84255226Y-42978937D01*
X84424744Y-43092205D01*
X84613102Y-43170226D01*
X84813061Y-43210000D01*
X85016939Y-43210000D01*
X85216898Y-43170226D01*
X85405256Y-43092205D01*
X85574774Y-42978937D01*
X85718937Y-42834774D01*
X85832205Y-42665256D01*
X85910226Y-42476898D01*
X85950000Y-42276939D01*
X85950000Y-42073061D01*
X85910226Y-41873102D01*
X85832205Y-41684744D01*
X85718937Y-41515226D01*
X85574774Y-41371063D01*
X85405256Y-41257795D01*
X85216898Y-41179774D01*
X85016939Y-41140000D01*
X84813061Y-41140000D01*
X84613102Y-41179774D01*
X84424744Y-41257795D01*
X84376546Y-41290000D01*
X80168711Y-41290000D01*
X80074774Y-41196063D01*
X79905256Y-41082795D01*
X79716898Y-41004774D01*
X79516939Y-40965000D01*
X79313061Y-40965000D01*
X79113102Y-41004774D01*
X78924744Y-41082795D01*
X78755226Y-41196063D01*
X78611063Y-41340226D01*
X78497795Y-41509744D01*
X78419774Y-41698102D01*
X78380000Y-41898061D01*
X67822426Y-41898061D01*
X67695706Y-41660986D01*
X67510134Y-41434866D01*
X67284014Y-41249294D01*
X67229209Y-41220000D01*
X67284014Y-41190706D01*
X67510134Y-41005134D01*
X67695706Y-40779014D01*
X67833599Y-40521034D01*
X67918513Y-40241111D01*
X67947185Y-39950000D01*
X67918513Y-39658889D01*
X67833599Y-39378966D01*
X67695706Y-39120986D01*
X67510134Y-38894866D01*
X67284014Y-38709294D01*
X67229209Y-38680000D01*
X67284014Y-38650706D01*
X67510134Y-38465134D01*
X67695706Y-38239014D01*
X67833599Y-37981034D01*
X67858768Y-37898061D01*
X78380000Y-37898061D01*
X78380000Y-38101939D01*
X78419774Y-38301898D01*
X78497795Y-38490256D01*
X78611063Y-38659774D01*
X78755226Y-38803937D01*
X78924744Y-38917205D01*
X79113102Y-38995226D01*
X79313061Y-39035000D01*
X79516939Y-39035000D01*
X79716898Y-38995226D01*
X79905256Y-38917205D01*
X80074774Y-38803937D01*
X80168711Y-38710000D01*
X84027692Y-38710000D01*
X84111063Y-38834774D01*
X84255226Y-38978937D01*
X84424744Y-39092205D01*
X84613102Y-39170226D01*
X84813061Y-39210000D01*
X85016939Y-39210000D01*
X85216898Y-39170226D01*
X85405256Y-39092205D01*
X85574774Y-38978937D01*
X85718937Y-38834774D01*
X85832205Y-38665256D01*
X85910226Y-38476898D01*
X85950000Y-38276939D01*
X85950000Y-38073061D01*
X85910226Y-37873102D01*
X85832205Y-37684744D01*
X85718937Y-37515226D01*
X85574774Y-37371063D01*
X85405256Y-37257795D01*
X85216898Y-37179774D01*
X85016939Y-37140000D01*
X84813061Y-37140000D01*
X84613102Y-37179774D01*
X84424744Y-37257795D01*
X84376546Y-37290000D01*
X80168711Y-37290000D01*
X80074774Y-37196063D01*
X79905256Y-37082795D01*
X79716898Y-37004774D01*
X79516939Y-36965000D01*
X79313061Y-36965000D01*
X79113102Y-37004774D01*
X78924744Y-37082795D01*
X78755226Y-37196063D01*
X78611063Y-37340226D01*
X78497795Y-37509744D01*
X78419774Y-37698102D01*
X78380000Y-37898061D01*
X67858768Y-37898061D01*
X67918513Y-37701111D01*
X67947185Y-37410000D01*
X67918513Y-37118889D01*
X67833599Y-36838966D01*
X67695706Y-36580986D01*
X67510134Y-36354866D01*
X67284014Y-36169294D01*
X67229209Y-36140000D01*
X67284014Y-36110706D01*
X67510134Y-35925134D01*
X67695706Y-35699014D01*
X67833599Y-35441034D01*
X67918513Y-35161111D01*
X67947185Y-34870000D01*
X67918513Y-34578889D01*
X67833599Y-34298966D01*
X67695706Y-34040986D01*
X67578411Y-33898061D01*
X78380000Y-33898061D01*
X78380000Y-34101939D01*
X78419774Y-34301898D01*
X78497795Y-34490256D01*
X78611063Y-34659774D01*
X78755226Y-34803937D01*
X78924744Y-34917205D01*
X79113102Y-34995226D01*
X79313061Y-35035000D01*
X79516939Y-35035000D01*
X79716898Y-34995226D01*
X79905256Y-34917205D01*
X80074774Y-34803937D01*
X80168711Y-34710000D01*
X84027692Y-34710000D01*
X84111063Y-34834774D01*
X84255226Y-34978937D01*
X84424744Y-35092205D01*
X84613102Y-35170226D01*
X84813061Y-35210000D01*
X85016939Y-35210000D01*
X85216898Y-35170226D01*
X85405256Y-35092205D01*
X85574774Y-34978937D01*
X85718937Y-34834774D01*
X85832205Y-34665256D01*
X85910226Y-34476898D01*
X85950000Y-34276939D01*
X85950000Y-34073061D01*
X85910226Y-33873102D01*
X85832205Y-33684744D01*
X85718937Y-33515226D01*
X85574774Y-33371063D01*
X85405256Y-33257795D01*
X85216898Y-33179774D01*
X85016939Y-33140000D01*
X84813061Y-33140000D01*
X84613102Y-33179774D01*
X84424744Y-33257795D01*
X84376546Y-33290000D01*
X80168711Y-33290000D01*
X80074774Y-33196063D01*
X79905256Y-33082795D01*
X79716898Y-33004774D01*
X79516939Y-32965000D01*
X79313061Y-32965000D01*
X79113102Y-33004774D01*
X78924744Y-33082795D01*
X78755226Y-33196063D01*
X78611063Y-33340226D01*
X78497795Y-33509744D01*
X78419774Y-33698102D01*
X78380000Y-33898061D01*
X67578411Y-33898061D01*
X67510134Y-33814866D01*
X67284014Y-33629294D01*
X67229209Y-33600000D01*
X67284014Y-33570706D01*
X67510134Y-33385134D01*
X67695706Y-33159014D01*
X67833599Y-32901034D01*
X67918513Y-32621111D01*
X67947185Y-32330000D01*
X67918513Y-32038889D01*
X67833599Y-31758966D01*
X67695706Y-31500986D01*
X67510134Y-31274866D01*
X67284014Y-31089294D01*
X67229209Y-31060000D01*
X67284014Y-31030706D01*
X67510134Y-30845134D01*
X67695706Y-30619014D01*
X67833599Y-30361034D01*
X67918513Y-30081111D01*
X67936541Y-29898061D01*
X78380000Y-29898061D01*
X78380000Y-30101939D01*
X78419774Y-30301898D01*
X78497795Y-30490256D01*
X78611063Y-30659774D01*
X78755226Y-30803937D01*
X78924744Y-30917205D01*
X79113102Y-30995226D01*
X79313061Y-31035000D01*
X79516939Y-31035000D01*
X79716898Y-30995226D01*
X79905256Y-30917205D01*
X80074774Y-30803937D01*
X80168711Y-30710000D01*
X84027692Y-30710000D01*
X84111063Y-30834774D01*
X84255226Y-30978937D01*
X84424744Y-31092205D01*
X84613102Y-31170226D01*
X84813061Y-31210000D01*
X85016939Y-31210000D01*
X85216898Y-31170226D01*
X85405256Y-31092205D01*
X85574774Y-30978937D01*
X85718937Y-30834774D01*
X85832205Y-30665256D01*
X85910226Y-30476898D01*
X85950000Y-30276939D01*
X85950000Y-30073061D01*
X85910226Y-29873102D01*
X85832205Y-29684744D01*
X85718937Y-29515226D01*
X85574774Y-29371063D01*
X85405256Y-29257795D01*
X85216898Y-29179774D01*
X85016939Y-29140000D01*
X84813061Y-29140000D01*
X84613102Y-29179774D01*
X84424744Y-29257795D01*
X84376546Y-29290000D01*
X80168711Y-29290000D01*
X80074774Y-29196063D01*
X79905256Y-29082795D01*
X79716898Y-29004774D01*
X79516939Y-28965000D01*
X79313061Y-28965000D01*
X79113102Y-29004774D01*
X78924744Y-29082795D01*
X78755226Y-29196063D01*
X78611063Y-29340226D01*
X78497795Y-29509744D01*
X78419774Y-29698102D01*
X78380000Y-29898061D01*
X67936541Y-29898061D01*
X67947185Y-29790000D01*
X67918513Y-29498889D01*
X67833599Y-29218966D01*
X67695706Y-28960986D01*
X67510134Y-28734866D01*
X67284014Y-28549294D01*
X67229209Y-28520000D01*
X67284014Y-28490706D01*
X67510134Y-28305134D01*
X67695706Y-28079014D01*
X67833599Y-27821034D01*
X67918513Y-27541111D01*
X67947185Y-27250000D01*
X67918513Y-26958889D01*
X67833599Y-26678966D01*
X67695706Y-26420986D01*
X67510134Y-26194866D01*
X67284014Y-26009294D01*
X67075912Y-25898061D01*
X78380000Y-25898061D01*
X78380000Y-26101939D01*
X78419774Y-26301898D01*
X78497795Y-26490256D01*
X78611063Y-26659774D01*
X78755226Y-26803937D01*
X78924744Y-26917205D01*
X79113102Y-26995226D01*
X79313061Y-27035000D01*
X79516939Y-27035000D01*
X79716898Y-26995226D01*
X79905256Y-26917205D01*
X80074774Y-26803937D01*
X80168711Y-26710000D01*
X84027692Y-26710000D01*
X84111063Y-26834774D01*
X84255226Y-26978937D01*
X84424744Y-27092205D01*
X84613102Y-27170226D01*
X84813061Y-27210000D01*
X85016939Y-27210000D01*
X85216898Y-27170226D01*
X85405256Y-27092205D01*
X85574774Y-26978937D01*
X85718937Y-26834774D01*
X85832205Y-26665256D01*
X85910226Y-26476898D01*
X85950000Y-26276939D01*
X85950000Y-26073061D01*
X85910226Y-25873102D01*
X85832205Y-25684744D01*
X85718937Y-25515226D01*
X85574774Y-25371063D01*
X85405256Y-25257795D01*
X85216898Y-25179774D01*
X85016939Y-25140000D01*
X84813061Y-25140000D01*
X84613102Y-25179774D01*
X84424744Y-25257795D01*
X84376546Y-25290000D01*
X80168711Y-25290000D01*
X80074774Y-25196063D01*
X79905256Y-25082795D01*
X79716898Y-25004774D01*
X79516939Y-24965000D01*
X79313061Y-24965000D01*
X79113102Y-25004774D01*
X78924744Y-25082795D01*
X78755226Y-25196063D01*
X78611063Y-25340226D01*
X78497795Y-25509744D01*
X78419774Y-25698102D01*
X78380000Y-25898061D01*
X67075912Y-25898061D01*
X67026034Y-25871401D01*
X66746111Y-25786487D01*
X66527950Y-25765000D01*
X66382050Y-25765000D01*
X66163889Y-25786487D01*
X65883966Y-25871401D01*
X65625986Y-26009294D01*
X65399866Y-26194866D01*
X65375393Y-26224687D01*
X65354502Y-26155820D01*
X65295537Y-26045506D01*
X65216185Y-25948815D01*
X65119494Y-25869463D01*
X65009180Y-25810498D01*
X64889482Y-25774188D01*
X64765000Y-25761928D01*
X63065000Y-25761928D01*
X62940518Y-25774188D01*
X62820820Y-25810498D01*
X62710506Y-25869463D01*
X62613815Y-25948815D01*
X62534463Y-26045506D01*
X62475498Y-26155820D01*
X62439188Y-26275518D01*
X62426928Y-26400000D01*
X62426928Y-28100000D01*
X62439188Y-28224482D01*
X62475498Y-28344180D01*
X62534463Y-28454494D01*
X62613815Y-28551185D01*
X62710506Y-28630537D01*
X62820820Y-28689502D01*
X62889687Y-28710393D01*
X62859866Y-28734866D01*
X62674294Y-28960986D01*
X62536401Y-29218966D01*
X62451487Y-29498889D01*
X62422815Y-29790000D01*
X57345000Y-29790000D01*
X57345000Y-20550000D01*
X178525000Y-20550000D01*
X178525001Y-54230000D01*
X178525001Y-54230000D01*
G37*
X178525001Y-54230000D02*
X57345000Y-54230000D01*
X57345000Y-49898061D01*
X78380000Y-49898061D01*
X78380000Y-50101939D01*
X78419774Y-50301898D01*
X78497795Y-50490256D01*
X78611063Y-50659774D01*
X78755226Y-50803937D01*
X78924744Y-50917205D01*
X79113102Y-50995226D01*
X79313061Y-51035000D01*
X79516939Y-51035000D01*
X79716898Y-50995226D01*
X79905256Y-50917205D01*
X80074774Y-50803937D01*
X80168711Y-50710000D01*
X84027692Y-50710000D01*
X84111063Y-50834774D01*
X84255226Y-50978937D01*
X84424744Y-51092205D01*
X84613102Y-51170226D01*
X84813061Y-51210000D01*
X85016939Y-51210000D01*
X85216898Y-51170226D01*
X85405256Y-51092205D01*
X85574774Y-50978937D01*
X85718937Y-50834774D01*
X85832205Y-50665256D01*
X85910226Y-50476898D01*
X85950000Y-50276939D01*
X85950000Y-50073061D01*
X85910226Y-49873102D01*
X85832205Y-49684744D01*
X85718937Y-49515226D01*
X85574774Y-49371063D01*
X85405256Y-49257795D01*
X85216898Y-49179774D01*
X85016939Y-49140000D01*
X84813061Y-49140000D01*
X84613102Y-49179774D01*
X84424744Y-49257795D01*
X84376546Y-49290000D01*
X80168711Y-49290000D01*
X80074774Y-49196063D01*
X79905256Y-49082795D01*
X79716898Y-49004774D01*
X79516939Y-48965000D01*
X79313061Y-48965000D01*
X79113102Y-49004774D01*
X78924744Y-49082795D01*
X78755226Y-49196063D01*
X78611063Y-49340226D01*
X78497795Y-49509744D01*
X78419774Y-49698102D01*
X78380000Y-49898061D01*
X57345000Y-49898061D01*
X57345000Y-47926890D01*
X62473524Y-47926890D01*
X62518175Y-48074099D01*
X62643359Y-48336920D01*
X62817412Y-48570269D01*
X63033645Y-48765178D01*
X63283748Y-48914157D01*
X63558109Y-49011481D01*
X63788000Y-48890814D01*
X63788000Y-47697000D01*
X62594845Y-47697000D01*
X62473524Y-47926890D01*
X57345000Y-47926890D01*
X57345000Y-29790000D01*
X62422815Y-29790000D01*
X62451487Y-30081111D01*
X62536401Y-30361034D01*
X62674294Y-30619014D01*
X62859866Y-30845134D01*
X63085986Y-31030706D01*
X63140791Y-31060000D01*
X63085986Y-31089294D01*
X62859866Y-31274866D01*
X62674294Y-31500986D01*
X62536401Y-31758966D01*
X62451487Y-32038889D01*
X62422815Y-32330000D01*
X62451487Y-32621111D01*
X62536401Y-32901034D01*
X62674294Y-33159014D01*
X62859866Y-33385134D01*
X63085986Y-33570706D01*
X63140791Y-33600000D01*
X63085986Y-33629294D01*
X62859866Y-33814866D01*
X62674294Y-34040986D01*
X62536401Y-34298966D01*
X62451487Y-34578889D01*
X62422815Y-34870000D01*
X62451487Y-35161111D01*
X62536401Y-35441034D01*
X62674294Y-35699014D01*
X62859866Y-35925134D01*
X63085986Y-36110706D01*
X63140791Y-36140000D01*
X63085986Y-36169294D01*
X62859866Y-36354866D01*
X62674294Y-36580986D01*
X62536401Y-36838966D01*
X62451487Y-37118889D01*
X62422815Y-37410000D01*
X62451487Y-37701111D01*
X62536401Y-37981034D01*
X62674294Y-38239014D01*
X62859866Y-38465134D01*
X63085986Y-38650706D01*
X63140791Y-38680000D01*
X63085986Y-38709294D01*
X62859866Y-38894866D01*
X62674294Y-39120986D01*
X62536401Y-39378966D01*
X62451487Y-39658889D01*
X62422815Y-39950000D01*
X62451487Y-40241111D01*
X62536401Y-40521034D01*
X62674294Y-40779014D01*
X62859866Y-41005134D01*
X63085986Y-41190706D01*
X63140791Y-41220000D01*
X63085986Y-41249294D01*
X62859866Y-41434866D01*
X62674294Y-41660986D01*
X62536401Y-41918966D01*
X62451487Y-42198889D01*
X62422815Y-42490000D01*
X62451487Y-42781111D01*
X62536401Y-43061034D01*
X62674294Y-43319014D01*
X62859866Y-43545134D01*
X63085986Y-43730706D01*
X63140791Y-43760000D01*
X63085986Y-43789294D01*
X62859866Y-43974866D01*
X62674294Y-44200986D01*
X62536401Y-44458966D01*
X62451487Y-44738889D01*
X62422815Y-45030000D01*
X62451487Y-45321111D01*
X62536401Y-45601034D01*
X62674294Y-45859014D01*
X62859866Y-46085134D01*
X63085986Y-46270706D01*
X63150523Y-46305201D01*
X63033645Y-46374822D01*
X62817412Y-46569731D01*
X62643359Y-46803080D01*
X62518175Y-47065901D01*
X62473524Y-47213110D01*
X62594845Y-47443000D01*
X63788000Y-47443000D01*
X63788000Y-47423000D01*
X64042000Y-47423000D01*
X64042000Y-47443000D01*
X64062000Y-47443000D01*
X64062000Y-47697000D01*
X64042000Y-47697000D01*
X64042000Y-48890814D01*
X64271891Y-49011481D01*
X64546252Y-48914157D01*
X64796355Y-48765178D01*
X65012588Y-48570269D01*
X65183416Y-48341244D01*
X65214294Y-48399014D01*
X65399866Y-48625134D01*
X65625986Y-48810706D01*
X65883966Y-48948599D01*
X66163889Y-49033513D01*
X66382050Y-49055000D01*
X66527950Y-49055000D01*
X66746111Y-49033513D01*
X67026034Y-48948599D01*
X67284014Y-48810706D01*
X67510134Y-48625134D01*
X67695706Y-48399014D01*
X67833599Y-48141034D01*
X67918513Y-47861111D01*
X67947185Y-47570000D01*
X67918513Y-47278889D01*
X67833599Y-46998966D01*
X67695706Y-46740986D01*
X67510134Y-46514866D01*
X67284014Y-46329294D01*
X67229209Y-46300000D01*
X67284014Y-46270706D01*
X67510134Y-46085134D01*
X67663660Y-45898061D01*
X78380000Y-45898061D01*
X78380000Y-46101939D01*
X78419774Y-46301898D01*
X78497795Y-46490256D01*
X78611063Y-46659774D01*
X78755226Y-46803937D01*
X78924744Y-46917205D01*
X79113102Y-46995226D01*
X79313061Y-47035000D01*
X79516939Y-47035000D01*
X79716898Y-46995226D01*
X79905256Y-46917205D01*
X80074774Y-46803937D01*
X80168711Y-46710000D01*
X84027692Y-46710000D01*
X84111063Y-46834774D01*
X84255226Y-46978937D01*
X84424744Y-47092205D01*
X84613102Y-47170226D01*
X84813061Y-47210000D01*
X85016939Y-47210000D01*
X85216898Y-47170226D01*
X85405256Y-47092205D01*
X85574774Y-46978937D01*
X85718937Y-46834774D01*
X85832205Y-46665256D01*
X85910226Y-46476898D01*
X85950000Y-46276939D01*
X85950000Y-46073061D01*
X85910226Y-45873102D01*
X85832205Y-45684744D01*
X85718937Y-45515226D01*
X85574774Y-45371063D01*
X85405256Y-45257795D01*
X85216898Y-45179774D01*
X85016939Y-45140000D01*
X84813061Y-45140000D01*
X84613102Y-45179774D01*
X84424744Y-45257795D01*
X84376546Y-45290000D01*
X80168711Y-45290000D01*
X80074774Y-45196063D01*
X79905256Y-45082795D01*
X79716898Y-45004774D01*
X79516939Y-44965000D01*
X79313061Y-44965000D01*
X79113102Y-45004774D01*
X78924744Y-45082795D01*
X78755226Y-45196063D01*
X78611063Y-45340226D01*
X78497795Y-45509744D01*
X78419774Y-45698102D01*
X78380000Y-45898061D01*
X67663660Y-45898061D01*
X67695706Y-45859014D01*
X67833599Y-45601034D01*
X67918513Y-45321111D01*
X67947185Y-45030000D01*
X67918513Y-44738889D01*
X67833599Y-44458966D01*
X67695706Y-44200986D01*
X67510134Y-43974866D01*
X67284014Y-43789294D01*
X67229209Y-43760000D01*
X67284014Y-43730706D01*
X67510134Y-43545134D01*
X67695706Y-43319014D01*
X67833599Y-43061034D01*
X67918513Y-42781111D01*
X67947185Y-42490000D01*
X67918513Y-42198889D01*
X67833599Y-41918966D01*
X67822426Y-41898061D01*
X78380000Y-41898061D01*
X78380000Y-42101939D01*
X78419774Y-42301898D01*
X78497795Y-42490256D01*
X78611063Y-42659774D01*
X78755226Y-42803937D01*
X78924744Y-42917205D01*
X79113102Y-42995226D01*
X79313061Y-43035000D01*
X79516939Y-43035000D01*
X79716898Y-42995226D01*
X79905256Y-42917205D01*
X80074774Y-42803937D01*
X80168711Y-42710000D01*
X84027692Y-42710000D01*
X84111063Y-42834774D01*
X84255226Y-42978937D01*
X84424744Y-43092205D01*
X84613102Y-43170226D01*
X84813061Y-43210000D01*
X85016939Y-43210000D01*
X85216898Y-43170226D01*
X85405256Y-43092205D01*
X85574774Y-42978937D01*
X85718937Y-42834774D01*
X85832205Y-42665256D01*
X85910226Y-42476898D01*
X85950000Y-42276939D01*
X85950000Y-42073061D01*
X85910226Y-41873102D01*
X85832205Y-41684744D01*
X85718937Y-41515226D01*
X85574774Y-41371063D01*
X85405256Y-41257795D01*
X85216898Y-41179774D01*
X85016939Y-41140000D01*
X84813061Y-41140000D01*
X84613102Y-41179774D01*
X84424744Y-41257795D01*
X84376546Y-41290000D01*
X80168711Y-41290000D01*
X80074774Y-41196063D01*
X79905256Y-41082795D01*
X79716898Y-41004774D01*
X79516939Y-40965000D01*
X79313061Y-40965000D01*
X79113102Y-41004774D01*
X78924744Y-41082795D01*
X78755226Y-41196063D01*
X78611063Y-41340226D01*
X78497795Y-41509744D01*
X78419774Y-41698102D01*
X78380000Y-41898061D01*
X67822426Y-41898061D01*
X67695706Y-41660986D01*
X67510134Y-41434866D01*
X67284014Y-41249294D01*
X67229209Y-41220000D01*
X67284014Y-41190706D01*
X67510134Y-41005134D01*
X67695706Y-40779014D01*
X67833599Y-40521034D01*
X67918513Y-40241111D01*
X67947185Y-39950000D01*
X67918513Y-39658889D01*
X67833599Y-39378966D01*
X67695706Y-39120986D01*
X67510134Y-38894866D01*
X67284014Y-38709294D01*
X67229209Y-38680000D01*
X67284014Y-38650706D01*
X67510134Y-38465134D01*
X67695706Y-38239014D01*
X67833599Y-37981034D01*
X67858768Y-37898061D01*
X78380000Y-37898061D01*
X78380000Y-38101939D01*
X78419774Y-38301898D01*
X78497795Y-38490256D01*
X78611063Y-38659774D01*
X78755226Y-38803937D01*
X78924744Y-38917205D01*
X79113102Y-38995226D01*
X79313061Y-39035000D01*
X79516939Y-39035000D01*
X79716898Y-38995226D01*
X79905256Y-38917205D01*
X80074774Y-38803937D01*
X80168711Y-38710000D01*
X84027692Y-38710000D01*
X84111063Y-38834774D01*
X84255226Y-38978937D01*
X84424744Y-39092205D01*
X84613102Y-39170226D01*
X84813061Y-39210000D01*
X85016939Y-39210000D01*
X85216898Y-39170226D01*
X85405256Y-39092205D01*
X85574774Y-38978937D01*
X85718937Y-38834774D01*
X85832205Y-38665256D01*
X85910226Y-38476898D01*
X85950000Y-38276939D01*
X85950000Y-38073061D01*
X85910226Y-37873102D01*
X85832205Y-37684744D01*
X85718937Y-37515226D01*
X85574774Y-37371063D01*
X85405256Y-37257795D01*
X85216898Y-37179774D01*
X85016939Y-37140000D01*
X84813061Y-37140000D01*
X84613102Y-37179774D01*
X84424744Y-37257795D01*
X84376546Y-37290000D01*
X80168711Y-37290000D01*
X80074774Y-37196063D01*
X79905256Y-37082795D01*
X79716898Y-37004774D01*
X79516939Y-36965000D01*
X79313061Y-36965000D01*
X79113102Y-37004774D01*
X78924744Y-37082795D01*
X78755226Y-37196063D01*
X78611063Y-37340226D01*
X78497795Y-37509744D01*
X78419774Y-37698102D01*
X78380000Y-37898061D01*
X67858768Y-37898061D01*
X67918513Y-37701111D01*
X67947185Y-37410000D01*
X67918513Y-37118889D01*
X67833599Y-36838966D01*
X67695706Y-36580986D01*
X67510134Y-36354866D01*
X67284014Y-36169294D01*
X67229209Y-36140000D01*
X67284014Y-36110706D01*
X67510134Y-35925134D01*
X67695706Y-35699014D01*
X67833599Y-35441034D01*
X67918513Y-35161111D01*
X67947185Y-34870000D01*
X67918513Y-34578889D01*
X67833599Y-34298966D01*
X67695706Y-34040986D01*
X67578411Y-33898061D01*
X78380000Y-33898061D01*
X78380000Y-34101939D01*
X78419774Y-34301898D01*
X78497795Y-34490256D01*
X78611063Y-34659774D01*
X78755226Y-34803937D01*
X78924744Y-34917205D01*
X79113102Y-34995226D01*
X79313061Y-35035000D01*
X79516939Y-35035000D01*
X79716898Y-34995226D01*
X79905256Y-34917205D01*
X80074774Y-34803937D01*
X80168711Y-34710000D01*
X84027692Y-34710000D01*
X84111063Y-34834774D01*
X84255226Y-34978937D01*
X84424744Y-35092205D01*
X84613102Y-35170226D01*
X84813061Y-35210000D01*
X85016939Y-35210000D01*
X85216898Y-35170226D01*
X85405256Y-35092205D01*
X85574774Y-34978937D01*
X85718937Y-34834774D01*
X85832205Y-34665256D01*
X85910226Y-34476898D01*
X85950000Y-34276939D01*
X85950000Y-34073061D01*
X85910226Y-33873102D01*
X85832205Y-33684744D01*
X85718937Y-33515226D01*
X85574774Y-33371063D01*
X85405256Y-33257795D01*
X85216898Y-33179774D01*
X85016939Y-33140000D01*
X84813061Y-33140000D01*
X84613102Y-33179774D01*
X84424744Y-33257795D01*
X84376546Y-33290000D01*
X80168711Y-33290000D01*
X80074774Y-33196063D01*
X79905256Y-33082795D01*
X79716898Y-33004774D01*
X79516939Y-32965000D01*
X79313061Y-32965000D01*
X79113102Y-33004774D01*
X78924744Y-33082795D01*
X78755226Y-33196063D01*
X78611063Y-33340226D01*
X78497795Y-33509744D01*
X78419774Y-33698102D01*
X78380000Y-33898061D01*
X67578411Y-33898061D01*
X67510134Y-33814866D01*
X67284014Y-33629294D01*
X67229209Y-33600000D01*
X67284014Y-33570706D01*
X67510134Y-33385134D01*
X67695706Y-33159014D01*
X67833599Y-32901034D01*
X67918513Y-32621111D01*
X67947185Y-32330000D01*
X67918513Y-32038889D01*
X67833599Y-31758966D01*
X67695706Y-31500986D01*
X67510134Y-31274866D01*
X67284014Y-31089294D01*
X67229209Y-31060000D01*
X67284014Y-31030706D01*
X67510134Y-30845134D01*
X67695706Y-30619014D01*
X67833599Y-30361034D01*
X67918513Y-30081111D01*
X67936541Y-29898061D01*
X78380000Y-29898061D01*
X78380000Y-30101939D01*
X78419774Y-30301898D01*
X78497795Y-30490256D01*
X78611063Y-30659774D01*
X78755226Y-30803937D01*
X78924744Y-30917205D01*
X79113102Y-30995226D01*
X79313061Y-31035000D01*
X79516939Y-31035000D01*
X79716898Y-30995226D01*
X79905256Y-30917205D01*
X80074774Y-30803937D01*
X80168711Y-30710000D01*
X84027692Y-30710000D01*
X84111063Y-30834774D01*
X84255226Y-30978937D01*
X84424744Y-31092205D01*
X84613102Y-31170226D01*
X84813061Y-31210000D01*
X85016939Y-31210000D01*
X85216898Y-31170226D01*
X85405256Y-31092205D01*
X85574774Y-30978937D01*
X85718937Y-30834774D01*
X85832205Y-30665256D01*
X85910226Y-30476898D01*
X85950000Y-30276939D01*
X85950000Y-30073061D01*
X85910226Y-29873102D01*
X85832205Y-29684744D01*
X85718937Y-29515226D01*
X85574774Y-29371063D01*
X85405256Y-29257795D01*
X85216898Y-29179774D01*
X85016939Y-29140000D01*
X84813061Y-29140000D01*
X84613102Y-29179774D01*
X84424744Y-29257795D01*
X84376546Y-29290000D01*
X80168711Y-29290000D01*
X80074774Y-29196063D01*
X79905256Y-29082795D01*
X79716898Y-29004774D01*
X79516939Y-28965000D01*
X79313061Y-28965000D01*
X79113102Y-29004774D01*
X78924744Y-29082795D01*
X78755226Y-29196063D01*
X78611063Y-29340226D01*
X78497795Y-29509744D01*
X78419774Y-29698102D01*
X78380000Y-29898061D01*
X67936541Y-29898061D01*
X67947185Y-29790000D01*
X67918513Y-29498889D01*
X67833599Y-29218966D01*
X67695706Y-28960986D01*
X67510134Y-28734866D01*
X67284014Y-28549294D01*
X67229209Y-28520000D01*
X67284014Y-28490706D01*
X67510134Y-28305134D01*
X67695706Y-28079014D01*
X67833599Y-27821034D01*
X67918513Y-27541111D01*
X67947185Y-27250000D01*
X67918513Y-26958889D01*
X67833599Y-26678966D01*
X67695706Y-26420986D01*
X67510134Y-26194866D01*
X67284014Y-26009294D01*
X67075912Y-25898061D01*
X78380000Y-25898061D01*
X78380000Y-26101939D01*
X78419774Y-26301898D01*
X78497795Y-26490256D01*
X78611063Y-26659774D01*
X78755226Y-26803937D01*
X78924744Y-26917205D01*
X79113102Y-26995226D01*
X79313061Y-27035000D01*
X79516939Y-27035000D01*
X79716898Y-26995226D01*
X79905256Y-26917205D01*
X80074774Y-26803937D01*
X80168711Y-26710000D01*
X84027692Y-26710000D01*
X84111063Y-26834774D01*
X84255226Y-26978937D01*
X84424744Y-27092205D01*
X84613102Y-27170226D01*
X84813061Y-27210000D01*
X85016939Y-27210000D01*
X85216898Y-27170226D01*
X85405256Y-27092205D01*
X85574774Y-26978937D01*
X85718937Y-26834774D01*
X85832205Y-26665256D01*
X85910226Y-26476898D01*
X85950000Y-26276939D01*
X85950000Y-26073061D01*
X85910226Y-25873102D01*
X85832205Y-25684744D01*
X85718937Y-25515226D01*
X85574774Y-25371063D01*
X85405256Y-25257795D01*
X85216898Y-25179774D01*
X85016939Y-25140000D01*
X84813061Y-25140000D01*
X84613102Y-25179774D01*
X84424744Y-25257795D01*
X84376546Y-25290000D01*
X80168711Y-25290000D01*
X80074774Y-25196063D01*
X79905256Y-25082795D01*
X79716898Y-25004774D01*
X79516939Y-24965000D01*
X79313061Y-24965000D01*
X79113102Y-25004774D01*
X78924744Y-25082795D01*
X78755226Y-25196063D01*
X78611063Y-25340226D01*
X78497795Y-25509744D01*
X78419774Y-25698102D01*
X78380000Y-25898061D01*
X67075912Y-25898061D01*
X67026034Y-25871401D01*
X66746111Y-25786487D01*
X66527950Y-25765000D01*
X66382050Y-25765000D01*
X66163889Y-25786487D01*
X65883966Y-25871401D01*
X65625986Y-26009294D01*
X65399866Y-26194866D01*
X65375393Y-26224687D01*
X65354502Y-26155820D01*
X65295537Y-26045506D01*
X65216185Y-25948815D01*
X65119494Y-25869463D01*
X65009180Y-25810498D01*
X64889482Y-25774188D01*
X64765000Y-25761928D01*
X63065000Y-25761928D01*
X62940518Y-25774188D01*
X62820820Y-25810498D01*
X62710506Y-25869463D01*
X62613815Y-25948815D01*
X62534463Y-26045506D01*
X62475498Y-26155820D01*
X62439188Y-26275518D01*
X62426928Y-26400000D01*
X62426928Y-28100000D01*
X62439188Y-28224482D01*
X62475498Y-28344180D01*
X62534463Y-28454494D01*
X62613815Y-28551185D01*
X62710506Y-28630537D01*
X62820820Y-28689502D01*
X62889687Y-28710393D01*
X62859866Y-28734866D01*
X62674294Y-28960986D01*
X62536401Y-29218966D01*
X62451487Y-29498889D01*
X62422815Y-29790000D01*
X57345000Y-29790000D01*
X57345000Y-20550000D01*
X178525000Y-20550000D01*
X178525001Y-54230000D01*
M02*
