G04 #@! TF.GenerationSoftware,KiCad,Pcbnew,5.1.4*
G04 #@! TF.CreationDate,2019-08-22T23:24:25+12:00*
G04 #@! TF.ProjectId,phloxleds,70686c6f-786c-4656-9473-2e6b69636164,rev?*
G04 #@! TF.SameCoordinates,Original*
G04 #@! TF.FileFunction,Legend,Bot*
G04 #@! TF.FilePolarity,Positive*
%FSLAX46Y46*%
G04 Gerber Fmt 4.6, Leading zero omitted, Abs format (unit mm)*
G04 Created by KiCad (PCBNEW 5.1.4) date 2019-08-22 23:24:25*
%MOMM*%
%LPD*%
G04 APERTURE LIST*
%ADD10C,0.600000*%
%ADD11C,0.800000*%
%ADD12C,0.360000*%
G04 APERTURE END LIST*
D10*
X164843571Y-27642857D02*
X165129285Y-27500000D01*
X165272142Y-27357142D01*
X165415000Y-27071428D01*
X165415000Y-26928571D01*
X165272142Y-26642857D01*
X165129285Y-26500000D01*
X164843571Y-26357142D01*
X164272142Y-26357142D01*
X163986428Y-26500000D01*
X163843571Y-26642857D01*
X163700714Y-26928571D01*
X163700714Y-27071428D01*
X163843571Y-27357142D01*
X163986428Y-27500000D01*
X164272142Y-27642857D01*
X164843571Y-27642857D01*
X165129285Y-27785714D01*
X165272142Y-27928571D01*
X165415000Y-28214285D01*
X165415000Y-28785714D01*
X165272142Y-29071428D01*
X165129285Y-29214285D01*
X164843571Y-29357142D01*
X164272142Y-29357142D01*
X163986428Y-29214285D01*
X163843571Y-29071428D01*
X163700714Y-28785714D01*
X163700714Y-28214285D01*
X163843571Y-27928571D01*
X163986428Y-27785714D01*
X164272142Y-27642857D01*
X162700714Y-29357142D02*
X161129285Y-27357142D01*
X162700714Y-27357142D02*
X161129285Y-29357142D01*
X160129285Y-26642857D02*
X159986428Y-26500000D01*
X159700714Y-26357142D01*
X158986428Y-26357142D01*
X158700714Y-26500000D01*
X158557857Y-26642857D01*
X158415000Y-26928571D01*
X158415000Y-27214285D01*
X158557857Y-27642857D01*
X160272142Y-29357142D01*
X158415000Y-29357142D01*
X155843571Y-27357142D02*
X155843571Y-29357142D01*
X156557857Y-26214285D02*
X157272142Y-28357142D01*
X155415000Y-28357142D01*
X152272142Y-26357142D02*
X151557857Y-29357142D01*
X150986428Y-27214285D01*
X150415000Y-29357142D01*
X149700714Y-26357142D01*
X148700714Y-29214285D02*
X148272142Y-29357142D01*
X147557857Y-29357142D01*
X147272142Y-29214285D01*
X147129285Y-29071428D01*
X146986428Y-28785714D01*
X146986428Y-28500000D01*
X147129285Y-28214285D01*
X147272142Y-28071428D01*
X147557857Y-27928571D01*
X148129285Y-27785714D01*
X148415000Y-27642857D01*
X148557857Y-27500000D01*
X148700714Y-27214285D01*
X148700714Y-26928571D01*
X148557857Y-26642857D01*
X148415000Y-26500000D01*
X148129285Y-26357142D01*
X147415000Y-26357142D01*
X146986428Y-26500000D01*
X145843571Y-26642857D02*
X145700714Y-26500000D01*
X145415000Y-26357142D01*
X144700714Y-26357142D01*
X144415000Y-26500000D01*
X144272142Y-26642857D01*
X144129285Y-26928571D01*
X144129285Y-27214285D01*
X144272142Y-27642857D01*
X145986428Y-29357142D01*
X144129285Y-29357142D01*
X142415000Y-27642857D02*
X142700714Y-27500000D01*
X142843571Y-27357142D01*
X142986428Y-27071428D01*
X142986428Y-26928571D01*
X142843571Y-26642857D01*
X142700714Y-26500000D01*
X142415000Y-26357142D01*
X141843571Y-26357142D01*
X141557857Y-26500000D01*
X141415000Y-26642857D01*
X141272142Y-26928571D01*
X141272142Y-27071428D01*
X141415000Y-27357142D01*
X141557857Y-27500000D01*
X141843571Y-27642857D01*
X142415000Y-27642857D01*
X142700714Y-27785714D01*
X142843571Y-27928571D01*
X142986428Y-28214285D01*
X142986428Y-28785714D01*
X142843571Y-29071428D01*
X142700714Y-29214285D01*
X142415000Y-29357142D01*
X141843571Y-29357142D01*
X141557857Y-29214285D01*
X141415000Y-29071428D01*
X141272142Y-28785714D01*
X141272142Y-28214285D01*
X141415000Y-27928571D01*
X141557857Y-27785714D01*
X141843571Y-27642857D01*
X138415000Y-29357142D02*
X140129285Y-29357142D01*
X139272142Y-29357142D02*
X139272142Y-26357142D01*
X139557857Y-26785714D01*
X139843571Y-27071428D01*
X140129285Y-27214285D01*
X137272142Y-26642857D02*
X137129285Y-26500000D01*
X136843571Y-26357142D01*
X136129285Y-26357142D01*
X135843571Y-26500000D01*
X135700714Y-26642857D01*
X135557857Y-26928571D01*
X135557857Y-27214285D01*
X135700714Y-27642857D01*
X137415000Y-29357142D01*
X135557857Y-29357142D01*
X134272142Y-28214285D02*
X131986428Y-28214285D01*
X130700714Y-26642857D02*
X130557857Y-26500000D01*
X130272142Y-26357142D01*
X129557857Y-26357142D01*
X129272142Y-26500000D01*
X129129285Y-26642857D01*
X128986428Y-26928571D01*
X128986428Y-27214285D01*
X129129285Y-27642857D01*
X130843571Y-29357142D01*
X128986428Y-29357142D01*
X127129285Y-26357142D02*
X126843571Y-26357142D01*
X126557857Y-26500000D01*
X126415000Y-26642857D01*
X126272142Y-26928571D01*
X126129285Y-27500000D01*
X126129285Y-28214285D01*
X126272142Y-28785714D01*
X126415000Y-29071428D01*
X126557857Y-29214285D01*
X126843571Y-29357142D01*
X127129285Y-29357142D01*
X127415000Y-29214285D01*
X127557857Y-29071428D01*
X127700714Y-28785714D01*
X127843571Y-28214285D01*
X127843571Y-27500000D01*
X127700714Y-26928571D01*
X127557857Y-26642857D01*
X127415000Y-26500000D01*
X127129285Y-26357142D01*
X124986428Y-26642857D02*
X124843571Y-26500000D01*
X124557857Y-26357142D01*
X123843571Y-26357142D01*
X123557857Y-26500000D01*
X123415000Y-26642857D01*
X123272142Y-26928571D01*
X123272142Y-27214285D01*
X123415000Y-27642857D01*
X125129285Y-29357142D01*
X123272142Y-29357142D01*
X121415000Y-26357142D02*
X121129285Y-26357142D01*
X120843571Y-26500000D01*
X120700714Y-26642857D01*
X120557857Y-26928571D01*
X120415000Y-27500000D01*
X120415000Y-28214285D01*
X120557857Y-28785714D01*
X120700714Y-29071428D01*
X120843571Y-29214285D01*
X121129285Y-29357142D01*
X121415000Y-29357142D01*
X121700714Y-29214285D01*
X121843571Y-29071428D01*
X121986428Y-28785714D01*
X122129285Y-28214285D01*
X122129285Y-27500000D01*
X121986428Y-26928571D01*
X121843571Y-26642857D01*
X121700714Y-26500000D01*
X121415000Y-26357142D01*
D11*
X103295952Y-42642857D02*
X106343571Y-43785714D01*
X103295952Y-44928571D01*
X101772142Y-41309523D02*
X99295952Y-41309523D01*
X100629285Y-42833333D01*
X100057857Y-42833333D01*
X99676904Y-43023809D01*
X99486428Y-43214285D01*
X99295952Y-43595238D01*
X99295952Y-44547619D01*
X99486428Y-44928571D01*
X99676904Y-45119047D01*
X100057857Y-45309523D01*
X101200714Y-45309523D01*
X101581666Y-45119047D01*
X101772142Y-44928571D01*
D12*
X115957857Y-29357142D02*
X117195952Y-29357142D01*
X117195952Y-26357142D01*
X115091190Y-27785714D02*
X114224523Y-27785714D01*
X113853095Y-29357142D02*
X115091190Y-29357142D01*
X115091190Y-26357142D01*
X113853095Y-26357142D01*
X112738809Y-29357142D02*
X112738809Y-26357142D01*
X112119761Y-26357142D01*
X111748333Y-26500000D01*
X111500714Y-26785714D01*
X111376904Y-27071428D01*
X111253095Y-27642857D01*
X111253095Y-28071428D01*
X111376904Y-28642857D01*
X111500714Y-28928571D01*
X111748333Y-29214285D01*
X112119761Y-29357142D01*
X112738809Y-29357142D01*
X108157857Y-29357142D02*
X108157857Y-26357142D01*
X107291190Y-28500000D01*
X106424523Y-26357142D01*
X106424523Y-29357142D01*
X104072142Y-29357142D02*
X104072142Y-27785714D01*
X104195952Y-27500000D01*
X104443571Y-27357142D01*
X104938809Y-27357142D01*
X105186428Y-27500000D01*
X104072142Y-29214285D02*
X104319761Y-29357142D01*
X104938809Y-29357142D01*
X105186428Y-29214285D01*
X105310238Y-28928571D01*
X105310238Y-28642857D01*
X105186428Y-28357142D01*
X104938809Y-28214285D01*
X104319761Y-28214285D01*
X104072142Y-28071428D01*
X103205476Y-27357142D02*
X102215000Y-27357142D01*
X102834047Y-26357142D02*
X102834047Y-28928571D01*
X102710238Y-29214285D01*
X102462619Y-29357142D01*
X102215000Y-29357142D01*
X101348333Y-29357142D02*
X101348333Y-27357142D01*
X101348333Y-27928571D02*
X101224523Y-27642857D01*
X101100714Y-27500000D01*
X100853095Y-27357142D01*
X100605476Y-27357142D01*
X99738809Y-29357142D02*
X99738809Y-27357142D01*
X99738809Y-26357142D02*
X99862619Y-26500000D01*
X99738809Y-26642857D01*
X99615000Y-26500000D01*
X99738809Y-26357142D01*
X99738809Y-26642857D01*
X98748333Y-29357142D02*
X97386428Y-27357142D01*
X98748333Y-27357142D02*
X97386428Y-29357142D01*
X163452428Y-41308095D02*
X163576238Y-41184285D01*
X163823857Y-41060476D01*
X164071476Y-41060476D01*
X164319095Y-41184285D01*
X164442904Y-41308095D01*
X164566714Y-41555714D01*
X164566714Y-41803333D01*
X164442904Y-42050952D01*
X164319095Y-42174761D01*
X164071476Y-42298571D01*
X163823857Y-42298571D01*
X163576238Y-42174761D01*
X163452428Y-42050952D01*
X163452428Y-41060476D02*
X163452428Y-42050952D01*
X163328619Y-42174761D01*
X163204809Y-42174761D01*
X162957190Y-42050952D01*
X162833380Y-41803333D01*
X162833380Y-41184285D01*
X163081000Y-40812857D01*
X163452428Y-40565238D01*
X163947666Y-40441428D01*
X164442904Y-40565238D01*
X164814333Y-40812857D01*
X165061952Y-41184285D01*
X165185761Y-41679523D01*
X165061952Y-42174761D01*
X164814333Y-42546190D01*
X164442904Y-42793809D01*
X163947666Y-42917619D01*
X163452428Y-42793809D01*
X163081000Y-42546190D01*
X162090523Y-39946190D02*
X160604809Y-39946190D01*
X161347666Y-42546190D02*
X161347666Y-39946190D01*
X158747666Y-42422380D02*
X158995285Y-42546190D01*
X159490523Y-42546190D01*
X159738142Y-42422380D01*
X159861952Y-42174761D01*
X159861952Y-41184285D01*
X159738142Y-40936666D01*
X159490523Y-40812857D01*
X158995285Y-40812857D01*
X158747666Y-40936666D01*
X158623857Y-41184285D01*
X158623857Y-41431904D01*
X159861952Y-41679523D01*
X156395285Y-40812857D02*
X156395285Y-43412857D01*
X156395285Y-42422380D02*
X156642904Y-42546190D01*
X157138142Y-42546190D01*
X157385761Y-42422380D01*
X157509571Y-42298571D01*
X157633380Y-42050952D01*
X157633380Y-41308095D01*
X157509571Y-41060476D01*
X157385761Y-40936666D01*
X157138142Y-40812857D01*
X156642904Y-40812857D01*
X156395285Y-40936666D01*
X154042904Y-40812857D02*
X154042904Y-42546190D01*
X155157190Y-40812857D02*
X155157190Y-42174761D01*
X155033380Y-42422380D01*
X154785761Y-42546190D01*
X154414333Y-42546190D01*
X154166714Y-42422380D01*
X154042904Y-42298571D01*
X152804809Y-42546190D02*
X152804809Y-40812857D01*
X152804809Y-39946190D02*
X152928619Y-40070000D01*
X152804809Y-40193809D01*
X152681000Y-40070000D01*
X152804809Y-39946190D01*
X152804809Y-40193809D01*
X151566714Y-40812857D02*
X151566714Y-42546190D01*
X151566714Y-41060476D02*
X151442904Y-40936666D01*
X151195285Y-40812857D01*
X150823857Y-40812857D01*
X150576238Y-40936666D01*
X150452428Y-41184285D01*
X150452428Y-42546190D01*
X149214333Y-42546190D02*
X149214333Y-39946190D01*
X148595285Y-39946190D01*
X148223857Y-40070000D01*
X147976238Y-40317619D01*
X147852428Y-40565238D01*
X147728619Y-41060476D01*
X147728619Y-41431904D01*
X147852428Y-41927142D01*
X147976238Y-42174761D01*
X148223857Y-42422380D01*
X148595285Y-42546190D01*
X149214333Y-42546190D01*
X146614333Y-42546190D02*
X146614333Y-40812857D01*
X146614333Y-41308095D02*
X146490523Y-41060476D01*
X146366714Y-40936666D01*
X146119095Y-40812857D01*
X145871476Y-40812857D01*
X143890523Y-42546190D02*
X143890523Y-41184285D01*
X144014333Y-40936666D01*
X144261952Y-40812857D01*
X144757190Y-40812857D01*
X145004809Y-40936666D01*
X143890523Y-42422380D02*
X144138142Y-42546190D01*
X144757190Y-42546190D01*
X145004809Y-42422380D01*
X145128619Y-42174761D01*
X145128619Y-41927142D01*
X145004809Y-41679523D01*
X144757190Y-41555714D01*
X144138142Y-41555714D01*
X143890523Y-41431904D01*
X141538142Y-40812857D02*
X141538142Y-42917619D01*
X141661952Y-43165238D01*
X141785761Y-43289047D01*
X142033380Y-43412857D01*
X142404809Y-43412857D01*
X142652428Y-43289047D01*
X141538142Y-42422380D02*
X141785761Y-42546190D01*
X142281000Y-42546190D01*
X142528619Y-42422380D01*
X142652428Y-42298571D01*
X142776238Y-42050952D01*
X142776238Y-41308095D01*
X142652428Y-41060476D01*
X142528619Y-40936666D01*
X142281000Y-40812857D01*
X141785761Y-40812857D01*
X141538142Y-40936666D01*
X139928619Y-42546190D02*
X140176238Y-42422380D01*
X140300047Y-42298571D01*
X140423857Y-42050952D01*
X140423857Y-41308095D01*
X140300047Y-41060476D01*
X140176238Y-40936666D01*
X139928619Y-40812857D01*
X139557190Y-40812857D01*
X139309571Y-40936666D01*
X139185761Y-41060476D01*
X139061952Y-41308095D01*
X139061952Y-42050952D01*
X139185761Y-42298571D01*
X139309571Y-42422380D01*
X139557190Y-42546190D01*
X139928619Y-42546190D01*
X137947666Y-40812857D02*
X137947666Y-42546190D01*
X137947666Y-41060476D02*
X137823857Y-40936666D01*
X137576238Y-40812857D01*
X137204809Y-40812857D01*
X136957190Y-40936666D01*
X136833380Y-41184285D01*
X136833380Y-42546190D01*
X163452428Y-45568095D02*
X163576238Y-45444285D01*
X163823857Y-45320476D01*
X164071476Y-45320476D01*
X164319095Y-45444285D01*
X164442904Y-45568095D01*
X164566714Y-45815714D01*
X164566714Y-46063333D01*
X164442904Y-46310952D01*
X164319095Y-46434761D01*
X164071476Y-46558571D01*
X163823857Y-46558571D01*
X163576238Y-46434761D01*
X163452428Y-46310952D01*
X163452428Y-45320476D02*
X163452428Y-46310952D01*
X163328619Y-46434761D01*
X163204809Y-46434761D01*
X162957190Y-46310952D01*
X162833380Y-46063333D01*
X162833380Y-45444285D01*
X163081000Y-45072857D01*
X163452428Y-44825238D01*
X163947666Y-44701428D01*
X164442904Y-44825238D01*
X164814333Y-45072857D01*
X165061952Y-45444285D01*
X165185761Y-45939523D01*
X165061952Y-46434761D01*
X164814333Y-46806190D01*
X164442904Y-47053809D01*
X163947666Y-47177619D01*
X163452428Y-47053809D01*
X163081000Y-46806190D01*
X160976238Y-44206190D02*
X160976238Y-46063333D01*
X161100047Y-46434761D01*
X161347666Y-46682380D01*
X161719095Y-46806190D01*
X161966714Y-46806190D01*
X158995285Y-44206190D02*
X158995285Y-46063333D01*
X159119095Y-46434761D01*
X159366714Y-46682380D01*
X159738142Y-46806190D01*
X159985761Y-46806190D01*
X157014333Y-44206190D02*
X157014333Y-46063333D01*
X157138142Y-46434761D01*
X157385761Y-46682380D01*
X157757190Y-46806190D01*
X158004809Y-46806190D01*
X155404809Y-46806190D02*
X155652428Y-46682380D01*
X155776238Y-46558571D01*
X155900047Y-46310952D01*
X155900047Y-45568095D01*
X155776238Y-45320476D01*
X155652428Y-45196666D01*
X155404809Y-45072857D01*
X155033380Y-45072857D01*
X154785761Y-45196666D01*
X154661952Y-45320476D01*
X154538142Y-45568095D01*
X154538142Y-46310952D01*
X154661952Y-46558571D01*
X154785761Y-46682380D01*
X155033380Y-46806190D01*
X155404809Y-46806190D01*
X153052428Y-46806190D02*
X153300047Y-46682380D01*
X153423857Y-46434761D01*
X153423857Y-44206190D01*
X151690523Y-46806190D02*
X151938142Y-46682380D01*
X152061952Y-46434761D01*
X152061952Y-44206190D01*
X150947666Y-45072857D02*
X150328619Y-46806190D01*
X149709571Y-45072857D02*
X150328619Y-46806190D01*
X150576238Y-47425238D01*
X150700047Y-47549047D01*
X150947666Y-47672857D01*
X148719095Y-45072857D02*
X148719095Y-47301428D01*
X148842904Y-47549047D01*
X149090523Y-47672857D01*
X149214333Y-47672857D01*
X148719095Y-44206190D02*
X148842904Y-44330000D01*
X148719095Y-44453809D01*
X148595285Y-44330000D01*
X148719095Y-44206190D01*
X148719095Y-44453809D01*
X147481000Y-46806190D02*
X147481000Y-45072857D01*
X147481000Y-44206190D02*
X147604809Y-44330000D01*
X147481000Y-44453809D01*
X147357190Y-44330000D01*
X147481000Y-44206190D01*
X147481000Y-44453809D01*
X146242904Y-46806190D02*
X146242904Y-45072857D01*
X146242904Y-45320476D02*
X146119095Y-45196666D01*
X145871476Y-45072857D01*
X145500047Y-45072857D01*
X145252428Y-45196666D01*
X145128619Y-45444285D01*
X145128619Y-46806190D01*
X145128619Y-45444285D02*
X145004809Y-45196666D01*
X144757190Y-45072857D01*
X144385761Y-45072857D01*
X144138142Y-45196666D01*
X144014333Y-45444285D01*
X144014333Y-46806190D01*
M02*
