G04 #@! TF.GenerationSoftware,KiCad,Pcbnew,5.1.4*
G04 #@! TF.CreationDate,2019-08-22T23:24:25+12:00*
G04 #@! TF.ProjectId,phloxleds,70686c6f-786c-4656-9473-2e6b69636164,rev?*
G04 #@! TF.SameCoordinates,Original*
G04 #@! TF.FileFunction,Soldermask,Bot*
G04 #@! TF.FilePolarity,Negative*
%FSLAX46Y46*%
G04 Gerber Fmt 4.6, Leading zero omitted, Abs format (unit mm)*
G04 Created by KiCad (PCBNEW 5.1.4) date 2019-08-22 23:24:25*
%MOMM*%
%LPD*%
G04 APERTURE LIST*
%ADD10C,0.100000*%
G04 APERTURE END LIST*
D10*
G36*
X66565442Y-46675518D02*
G01*
X66631627Y-46682037D01*
X66801466Y-46733557D01*
X66957991Y-46817222D01*
X66993729Y-46846552D01*
X67095186Y-46929814D01*
X67178448Y-47031271D01*
X67207778Y-47067009D01*
X67291443Y-47223534D01*
X67342963Y-47393373D01*
X67360359Y-47570000D01*
X67342963Y-47746627D01*
X67291443Y-47916466D01*
X67207778Y-48072991D01*
X67178448Y-48108729D01*
X67095186Y-48210186D01*
X66993729Y-48293448D01*
X66957991Y-48322778D01*
X66801466Y-48406443D01*
X66631627Y-48457963D01*
X66565442Y-48464482D01*
X66499260Y-48471000D01*
X66410740Y-48471000D01*
X66344558Y-48464482D01*
X66278373Y-48457963D01*
X66108534Y-48406443D01*
X65952009Y-48322778D01*
X65916271Y-48293448D01*
X65814814Y-48210186D01*
X65731552Y-48108729D01*
X65702222Y-48072991D01*
X65618557Y-47916466D01*
X65567037Y-47746627D01*
X65549641Y-47570000D01*
X65567037Y-47393373D01*
X65618557Y-47223534D01*
X65702222Y-47067009D01*
X65731552Y-47031271D01*
X65814814Y-46929814D01*
X65916271Y-46846552D01*
X65952009Y-46817222D01*
X66108534Y-46733557D01*
X66278373Y-46682037D01*
X66344558Y-46675518D01*
X66410740Y-46669000D01*
X66499260Y-46669000D01*
X66565442Y-46675518D01*
X66565442Y-46675518D01*
G37*
G36*
X64025442Y-46675518D02*
G01*
X64091627Y-46682037D01*
X64261466Y-46733557D01*
X64417991Y-46817222D01*
X64453729Y-46846552D01*
X64555186Y-46929814D01*
X64638448Y-47031271D01*
X64667778Y-47067009D01*
X64751443Y-47223534D01*
X64802963Y-47393373D01*
X64820359Y-47570000D01*
X64802963Y-47746627D01*
X64751443Y-47916466D01*
X64667778Y-48072991D01*
X64638448Y-48108729D01*
X64555186Y-48210186D01*
X64453729Y-48293448D01*
X64417991Y-48322778D01*
X64261466Y-48406443D01*
X64091627Y-48457963D01*
X64025442Y-48464482D01*
X63959260Y-48471000D01*
X63870740Y-48471000D01*
X63804558Y-48464482D01*
X63738373Y-48457963D01*
X63568534Y-48406443D01*
X63412009Y-48322778D01*
X63376271Y-48293448D01*
X63274814Y-48210186D01*
X63191552Y-48108729D01*
X63162222Y-48072991D01*
X63078557Y-47916466D01*
X63027037Y-47746627D01*
X63009641Y-47570000D01*
X63027037Y-47393373D01*
X63078557Y-47223534D01*
X63162222Y-47067009D01*
X63191552Y-47031271D01*
X63274814Y-46929814D01*
X63376271Y-46846552D01*
X63412009Y-46817222D01*
X63568534Y-46733557D01*
X63738373Y-46682037D01*
X63804558Y-46675518D01*
X63870740Y-46669000D01*
X63959260Y-46669000D01*
X64025442Y-46675518D01*
X64025442Y-46675518D01*
G37*
G36*
X64025442Y-44135518D02*
G01*
X64091627Y-44142037D01*
X64261466Y-44193557D01*
X64417991Y-44277222D01*
X64453729Y-44306552D01*
X64555186Y-44389814D01*
X64638448Y-44491271D01*
X64667778Y-44527009D01*
X64751443Y-44683534D01*
X64802963Y-44853373D01*
X64820359Y-45030000D01*
X64802963Y-45206627D01*
X64751443Y-45376466D01*
X64667778Y-45532991D01*
X64638448Y-45568729D01*
X64555186Y-45670186D01*
X64453729Y-45753448D01*
X64417991Y-45782778D01*
X64261466Y-45866443D01*
X64091627Y-45917963D01*
X64025442Y-45924482D01*
X63959260Y-45931000D01*
X63870740Y-45931000D01*
X63804558Y-45924482D01*
X63738373Y-45917963D01*
X63568534Y-45866443D01*
X63412009Y-45782778D01*
X63376271Y-45753448D01*
X63274814Y-45670186D01*
X63191552Y-45568729D01*
X63162222Y-45532991D01*
X63078557Y-45376466D01*
X63027037Y-45206627D01*
X63009641Y-45030000D01*
X63027037Y-44853373D01*
X63078557Y-44683534D01*
X63162222Y-44527009D01*
X63191552Y-44491271D01*
X63274814Y-44389814D01*
X63376271Y-44306552D01*
X63412009Y-44277222D01*
X63568534Y-44193557D01*
X63738373Y-44142037D01*
X63804558Y-44135518D01*
X63870740Y-44129000D01*
X63959260Y-44129000D01*
X64025442Y-44135518D01*
X64025442Y-44135518D01*
G37*
G36*
X66565442Y-44135518D02*
G01*
X66631627Y-44142037D01*
X66801466Y-44193557D01*
X66957991Y-44277222D01*
X66993729Y-44306552D01*
X67095186Y-44389814D01*
X67178448Y-44491271D01*
X67207778Y-44527009D01*
X67291443Y-44683534D01*
X67342963Y-44853373D01*
X67360359Y-45030000D01*
X67342963Y-45206627D01*
X67291443Y-45376466D01*
X67207778Y-45532991D01*
X67178448Y-45568729D01*
X67095186Y-45670186D01*
X66993729Y-45753448D01*
X66957991Y-45782778D01*
X66801466Y-45866443D01*
X66631627Y-45917963D01*
X66565442Y-45924482D01*
X66499260Y-45931000D01*
X66410740Y-45931000D01*
X66344558Y-45924482D01*
X66278373Y-45917963D01*
X66108534Y-45866443D01*
X65952009Y-45782778D01*
X65916271Y-45753448D01*
X65814814Y-45670186D01*
X65731552Y-45568729D01*
X65702222Y-45532991D01*
X65618557Y-45376466D01*
X65567037Y-45206627D01*
X65549641Y-45030000D01*
X65567037Y-44853373D01*
X65618557Y-44683534D01*
X65702222Y-44527009D01*
X65731552Y-44491271D01*
X65814814Y-44389814D01*
X65916271Y-44306552D01*
X65952009Y-44277222D01*
X66108534Y-44193557D01*
X66278373Y-44142037D01*
X66344558Y-44135518D01*
X66410740Y-44129000D01*
X66499260Y-44129000D01*
X66565442Y-44135518D01*
X66565442Y-44135518D01*
G37*
G36*
X66565442Y-41595518D02*
G01*
X66631627Y-41602037D01*
X66801466Y-41653557D01*
X66957991Y-41737222D01*
X66993729Y-41766552D01*
X67095186Y-41849814D01*
X67178448Y-41951271D01*
X67207778Y-41987009D01*
X67291443Y-42143534D01*
X67342963Y-42313373D01*
X67360359Y-42490000D01*
X67342963Y-42666627D01*
X67291443Y-42836466D01*
X67207778Y-42992991D01*
X67178448Y-43028729D01*
X67095186Y-43130186D01*
X66993729Y-43213448D01*
X66957991Y-43242778D01*
X66801466Y-43326443D01*
X66631627Y-43377963D01*
X66565442Y-43384482D01*
X66499260Y-43391000D01*
X66410740Y-43391000D01*
X66344558Y-43384482D01*
X66278373Y-43377963D01*
X66108534Y-43326443D01*
X65952009Y-43242778D01*
X65916271Y-43213448D01*
X65814814Y-43130186D01*
X65731552Y-43028729D01*
X65702222Y-42992991D01*
X65618557Y-42836466D01*
X65567037Y-42666627D01*
X65549641Y-42490000D01*
X65567037Y-42313373D01*
X65618557Y-42143534D01*
X65702222Y-41987009D01*
X65731552Y-41951271D01*
X65814814Y-41849814D01*
X65916271Y-41766552D01*
X65952009Y-41737222D01*
X66108534Y-41653557D01*
X66278373Y-41602037D01*
X66344558Y-41595518D01*
X66410740Y-41589000D01*
X66499260Y-41589000D01*
X66565442Y-41595518D01*
X66565442Y-41595518D01*
G37*
G36*
X64025442Y-41595518D02*
G01*
X64091627Y-41602037D01*
X64261466Y-41653557D01*
X64417991Y-41737222D01*
X64453729Y-41766552D01*
X64555186Y-41849814D01*
X64638448Y-41951271D01*
X64667778Y-41987009D01*
X64751443Y-42143534D01*
X64802963Y-42313373D01*
X64820359Y-42490000D01*
X64802963Y-42666627D01*
X64751443Y-42836466D01*
X64667778Y-42992991D01*
X64638448Y-43028729D01*
X64555186Y-43130186D01*
X64453729Y-43213448D01*
X64417991Y-43242778D01*
X64261466Y-43326443D01*
X64091627Y-43377963D01*
X64025442Y-43384482D01*
X63959260Y-43391000D01*
X63870740Y-43391000D01*
X63804558Y-43384482D01*
X63738373Y-43377963D01*
X63568534Y-43326443D01*
X63412009Y-43242778D01*
X63376271Y-43213448D01*
X63274814Y-43130186D01*
X63191552Y-43028729D01*
X63162222Y-42992991D01*
X63078557Y-42836466D01*
X63027037Y-42666627D01*
X63009641Y-42490000D01*
X63027037Y-42313373D01*
X63078557Y-42143534D01*
X63162222Y-41987009D01*
X63191552Y-41951271D01*
X63274814Y-41849814D01*
X63376271Y-41766552D01*
X63412009Y-41737222D01*
X63568534Y-41653557D01*
X63738373Y-41602037D01*
X63804558Y-41595518D01*
X63870740Y-41589000D01*
X63959260Y-41589000D01*
X64025442Y-41595518D01*
X64025442Y-41595518D01*
G37*
G36*
X64025443Y-39055519D02*
G01*
X64091627Y-39062037D01*
X64261466Y-39113557D01*
X64417991Y-39197222D01*
X64453729Y-39226552D01*
X64555186Y-39309814D01*
X64638448Y-39411271D01*
X64667778Y-39447009D01*
X64751443Y-39603534D01*
X64802963Y-39773373D01*
X64820359Y-39950000D01*
X64802963Y-40126627D01*
X64751443Y-40296466D01*
X64667778Y-40452991D01*
X64638448Y-40488729D01*
X64555186Y-40590186D01*
X64453729Y-40673448D01*
X64417991Y-40702778D01*
X64261466Y-40786443D01*
X64091627Y-40837963D01*
X64025443Y-40844481D01*
X63959260Y-40851000D01*
X63870740Y-40851000D01*
X63804557Y-40844481D01*
X63738373Y-40837963D01*
X63568534Y-40786443D01*
X63412009Y-40702778D01*
X63376271Y-40673448D01*
X63274814Y-40590186D01*
X63191552Y-40488729D01*
X63162222Y-40452991D01*
X63078557Y-40296466D01*
X63027037Y-40126627D01*
X63009641Y-39950000D01*
X63027037Y-39773373D01*
X63078557Y-39603534D01*
X63162222Y-39447009D01*
X63191552Y-39411271D01*
X63274814Y-39309814D01*
X63376271Y-39226552D01*
X63412009Y-39197222D01*
X63568534Y-39113557D01*
X63738373Y-39062037D01*
X63804557Y-39055519D01*
X63870740Y-39049000D01*
X63959260Y-39049000D01*
X64025443Y-39055519D01*
X64025443Y-39055519D01*
G37*
G36*
X66565443Y-39055519D02*
G01*
X66631627Y-39062037D01*
X66801466Y-39113557D01*
X66957991Y-39197222D01*
X66993729Y-39226552D01*
X67095186Y-39309814D01*
X67178448Y-39411271D01*
X67207778Y-39447009D01*
X67291443Y-39603534D01*
X67342963Y-39773373D01*
X67360359Y-39950000D01*
X67342963Y-40126627D01*
X67291443Y-40296466D01*
X67207778Y-40452991D01*
X67178448Y-40488729D01*
X67095186Y-40590186D01*
X66993729Y-40673448D01*
X66957991Y-40702778D01*
X66801466Y-40786443D01*
X66631627Y-40837963D01*
X66565443Y-40844481D01*
X66499260Y-40851000D01*
X66410740Y-40851000D01*
X66344557Y-40844481D01*
X66278373Y-40837963D01*
X66108534Y-40786443D01*
X65952009Y-40702778D01*
X65916271Y-40673448D01*
X65814814Y-40590186D01*
X65731552Y-40488729D01*
X65702222Y-40452991D01*
X65618557Y-40296466D01*
X65567037Y-40126627D01*
X65549641Y-39950000D01*
X65567037Y-39773373D01*
X65618557Y-39603534D01*
X65702222Y-39447009D01*
X65731552Y-39411271D01*
X65814814Y-39309814D01*
X65916271Y-39226552D01*
X65952009Y-39197222D01*
X66108534Y-39113557D01*
X66278373Y-39062037D01*
X66344557Y-39055519D01*
X66410740Y-39049000D01*
X66499260Y-39049000D01*
X66565443Y-39055519D01*
X66565443Y-39055519D01*
G37*
G36*
X66565442Y-36515518D02*
G01*
X66631627Y-36522037D01*
X66801466Y-36573557D01*
X66957991Y-36657222D01*
X66993729Y-36686552D01*
X67095186Y-36769814D01*
X67178448Y-36871271D01*
X67207778Y-36907009D01*
X67291443Y-37063534D01*
X67342963Y-37233373D01*
X67360359Y-37410000D01*
X67342963Y-37586627D01*
X67291443Y-37756466D01*
X67207778Y-37912991D01*
X67178448Y-37948729D01*
X67095186Y-38050186D01*
X66993729Y-38133448D01*
X66957991Y-38162778D01*
X66801466Y-38246443D01*
X66631627Y-38297963D01*
X66565442Y-38304482D01*
X66499260Y-38311000D01*
X66410740Y-38311000D01*
X66344558Y-38304482D01*
X66278373Y-38297963D01*
X66108534Y-38246443D01*
X65952009Y-38162778D01*
X65916271Y-38133448D01*
X65814814Y-38050186D01*
X65731552Y-37948729D01*
X65702222Y-37912991D01*
X65618557Y-37756466D01*
X65567037Y-37586627D01*
X65549641Y-37410000D01*
X65567037Y-37233373D01*
X65618557Y-37063534D01*
X65702222Y-36907009D01*
X65731552Y-36871271D01*
X65814814Y-36769814D01*
X65916271Y-36686552D01*
X65952009Y-36657222D01*
X66108534Y-36573557D01*
X66278373Y-36522037D01*
X66344558Y-36515518D01*
X66410740Y-36509000D01*
X66499260Y-36509000D01*
X66565442Y-36515518D01*
X66565442Y-36515518D01*
G37*
G36*
X64025442Y-36515518D02*
G01*
X64091627Y-36522037D01*
X64261466Y-36573557D01*
X64417991Y-36657222D01*
X64453729Y-36686552D01*
X64555186Y-36769814D01*
X64638448Y-36871271D01*
X64667778Y-36907009D01*
X64751443Y-37063534D01*
X64802963Y-37233373D01*
X64820359Y-37410000D01*
X64802963Y-37586627D01*
X64751443Y-37756466D01*
X64667778Y-37912991D01*
X64638448Y-37948729D01*
X64555186Y-38050186D01*
X64453729Y-38133448D01*
X64417991Y-38162778D01*
X64261466Y-38246443D01*
X64091627Y-38297963D01*
X64025442Y-38304482D01*
X63959260Y-38311000D01*
X63870740Y-38311000D01*
X63804558Y-38304482D01*
X63738373Y-38297963D01*
X63568534Y-38246443D01*
X63412009Y-38162778D01*
X63376271Y-38133448D01*
X63274814Y-38050186D01*
X63191552Y-37948729D01*
X63162222Y-37912991D01*
X63078557Y-37756466D01*
X63027037Y-37586627D01*
X63009641Y-37410000D01*
X63027037Y-37233373D01*
X63078557Y-37063534D01*
X63162222Y-36907009D01*
X63191552Y-36871271D01*
X63274814Y-36769814D01*
X63376271Y-36686552D01*
X63412009Y-36657222D01*
X63568534Y-36573557D01*
X63738373Y-36522037D01*
X63804558Y-36515518D01*
X63870740Y-36509000D01*
X63959260Y-36509000D01*
X64025442Y-36515518D01*
X64025442Y-36515518D01*
G37*
G36*
X64025442Y-33975518D02*
G01*
X64091627Y-33982037D01*
X64261466Y-34033557D01*
X64417991Y-34117222D01*
X64453729Y-34146552D01*
X64555186Y-34229814D01*
X64638448Y-34331271D01*
X64667778Y-34367009D01*
X64751443Y-34523534D01*
X64802963Y-34693373D01*
X64820359Y-34870000D01*
X64802963Y-35046627D01*
X64751443Y-35216466D01*
X64667778Y-35372991D01*
X64638448Y-35408729D01*
X64555186Y-35510186D01*
X64453729Y-35593448D01*
X64417991Y-35622778D01*
X64261466Y-35706443D01*
X64091627Y-35757963D01*
X64025443Y-35764481D01*
X63959260Y-35771000D01*
X63870740Y-35771000D01*
X63804557Y-35764481D01*
X63738373Y-35757963D01*
X63568534Y-35706443D01*
X63412009Y-35622778D01*
X63376271Y-35593448D01*
X63274814Y-35510186D01*
X63191552Y-35408729D01*
X63162222Y-35372991D01*
X63078557Y-35216466D01*
X63027037Y-35046627D01*
X63009641Y-34870000D01*
X63027037Y-34693373D01*
X63078557Y-34523534D01*
X63162222Y-34367009D01*
X63191552Y-34331271D01*
X63274814Y-34229814D01*
X63376271Y-34146552D01*
X63412009Y-34117222D01*
X63568534Y-34033557D01*
X63738373Y-33982037D01*
X63804558Y-33975518D01*
X63870740Y-33969000D01*
X63959260Y-33969000D01*
X64025442Y-33975518D01*
X64025442Y-33975518D01*
G37*
G36*
X66565442Y-33975518D02*
G01*
X66631627Y-33982037D01*
X66801466Y-34033557D01*
X66957991Y-34117222D01*
X66993729Y-34146552D01*
X67095186Y-34229814D01*
X67178448Y-34331271D01*
X67207778Y-34367009D01*
X67291443Y-34523534D01*
X67342963Y-34693373D01*
X67360359Y-34870000D01*
X67342963Y-35046627D01*
X67291443Y-35216466D01*
X67207778Y-35372991D01*
X67178448Y-35408729D01*
X67095186Y-35510186D01*
X66993729Y-35593448D01*
X66957991Y-35622778D01*
X66801466Y-35706443D01*
X66631627Y-35757963D01*
X66565443Y-35764481D01*
X66499260Y-35771000D01*
X66410740Y-35771000D01*
X66344557Y-35764481D01*
X66278373Y-35757963D01*
X66108534Y-35706443D01*
X65952009Y-35622778D01*
X65916271Y-35593448D01*
X65814814Y-35510186D01*
X65731552Y-35408729D01*
X65702222Y-35372991D01*
X65618557Y-35216466D01*
X65567037Y-35046627D01*
X65549641Y-34870000D01*
X65567037Y-34693373D01*
X65618557Y-34523534D01*
X65702222Y-34367009D01*
X65731552Y-34331271D01*
X65814814Y-34229814D01*
X65916271Y-34146552D01*
X65952009Y-34117222D01*
X66108534Y-34033557D01*
X66278373Y-33982037D01*
X66344558Y-33975518D01*
X66410740Y-33969000D01*
X66499260Y-33969000D01*
X66565442Y-33975518D01*
X66565442Y-33975518D01*
G37*
G36*
X66565443Y-31435519D02*
G01*
X66631627Y-31442037D01*
X66801466Y-31493557D01*
X66957991Y-31577222D01*
X66993729Y-31606552D01*
X67095186Y-31689814D01*
X67178448Y-31791271D01*
X67207778Y-31827009D01*
X67291443Y-31983534D01*
X67342963Y-32153373D01*
X67360359Y-32330000D01*
X67342963Y-32506627D01*
X67291443Y-32676466D01*
X67207778Y-32832991D01*
X67178448Y-32868729D01*
X67095186Y-32970186D01*
X66993729Y-33053448D01*
X66957991Y-33082778D01*
X66801466Y-33166443D01*
X66631627Y-33217963D01*
X66565442Y-33224482D01*
X66499260Y-33231000D01*
X66410740Y-33231000D01*
X66344558Y-33224482D01*
X66278373Y-33217963D01*
X66108534Y-33166443D01*
X65952009Y-33082778D01*
X65916271Y-33053448D01*
X65814814Y-32970186D01*
X65731552Y-32868729D01*
X65702222Y-32832991D01*
X65618557Y-32676466D01*
X65567037Y-32506627D01*
X65549641Y-32330000D01*
X65567037Y-32153373D01*
X65618557Y-31983534D01*
X65702222Y-31827009D01*
X65731552Y-31791271D01*
X65814814Y-31689814D01*
X65916271Y-31606552D01*
X65952009Y-31577222D01*
X66108534Y-31493557D01*
X66278373Y-31442037D01*
X66344557Y-31435519D01*
X66410740Y-31429000D01*
X66499260Y-31429000D01*
X66565443Y-31435519D01*
X66565443Y-31435519D01*
G37*
G36*
X64025443Y-31435519D02*
G01*
X64091627Y-31442037D01*
X64261466Y-31493557D01*
X64417991Y-31577222D01*
X64453729Y-31606552D01*
X64555186Y-31689814D01*
X64638448Y-31791271D01*
X64667778Y-31827009D01*
X64751443Y-31983534D01*
X64802963Y-32153373D01*
X64820359Y-32330000D01*
X64802963Y-32506627D01*
X64751443Y-32676466D01*
X64667778Y-32832991D01*
X64638448Y-32868729D01*
X64555186Y-32970186D01*
X64453729Y-33053448D01*
X64417991Y-33082778D01*
X64261466Y-33166443D01*
X64091627Y-33217963D01*
X64025442Y-33224482D01*
X63959260Y-33231000D01*
X63870740Y-33231000D01*
X63804558Y-33224482D01*
X63738373Y-33217963D01*
X63568534Y-33166443D01*
X63412009Y-33082778D01*
X63376271Y-33053448D01*
X63274814Y-32970186D01*
X63191552Y-32868729D01*
X63162222Y-32832991D01*
X63078557Y-32676466D01*
X63027037Y-32506627D01*
X63009641Y-32330000D01*
X63027037Y-32153373D01*
X63078557Y-31983534D01*
X63162222Y-31827009D01*
X63191552Y-31791271D01*
X63274814Y-31689814D01*
X63376271Y-31606552D01*
X63412009Y-31577222D01*
X63568534Y-31493557D01*
X63738373Y-31442037D01*
X63804557Y-31435519D01*
X63870740Y-31429000D01*
X63959260Y-31429000D01*
X64025443Y-31435519D01*
X64025443Y-31435519D01*
G37*
G36*
X64025443Y-28895519D02*
G01*
X64091627Y-28902037D01*
X64261466Y-28953557D01*
X64417991Y-29037222D01*
X64453729Y-29066552D01*
X64555186Y-29149814D01*
X64638448Y-29251271D01*
X64667778Y-29287009D01*
X64751443Y-29443534D01*
X64802963Y-29613373D01*
X64820359Y-29790000D01*
X64802963Y-29966627D01*
X64751443Y-30136466D01*
X64667778Y-30292991D01*
X64638448Y-30328729D01*
X64555186Y-30430186D01*
X64453729Y-30513448D01*
X64417991Y-30542778D01*
X64261466Y-30626443D01*
X64091627Y-30677963D01*
X64025443Y-30684481D01*
X63959260Y-30691000D01*
X63870740Y-30691000D01*
X63804557Y-30684481D01*
X63738373Y-30677963D01*
X63568534Y-30626443D01*
X63412009Y-30542778D01*
X63376271Y-30513448D01*
X63274814Y-30430186D01*
X63191552Y-30328729D01*
X63162222Y-30292991D01*
X63078557Y-30136466D01*
X63027037Y-29966627D01*
X63009641Y-29790000D01*
X63027037Y-29613373D01*
X63078557Y-29443534D01*
X63162222Y-29287009D01*
X63191552Y-29251271D01*
X63274814Y-29149814D01*
X63376271Y-29066552D01*
X63412009Y-29037222D01*
X63568534Y-28953557D01*
X63738373Y-28902037D01*
X63804557Y-28895519D01*
X63870740Y-28889000D01*
X63959260Y-28889000D01*
X64025443Y-28895519D01*
X64025443Y-28895519D01*
G37*
G36*
X66565443Y-28895519D02*
G01*
X66631627Y-28902037D01*
X66801466Y-28953557D01*
X66957991Y-29037222D01*
X66993729Y-29066552D01*
X67095186Y-29149814D01*
X67178448Y-29251271D01*
X67207778Y-29287009D01*
X67291443Y-29443534D01*
X67342963Y-29613373D01*
X67360359Y-29790000D01*
X67342963Y-29966627D01*
X67291443Y-30136466D01*
X67207778Y-30292991D01*
X67178448Y-30328729D01*
X67095186Y-30430186D01*
X66993729Y-30513448D01*
X66957991Y-30542778D01*
X66801466Y-30626443D01*
X66631627Y-30677963D01*
X66565443Y-30684481D01*
X66499260Y-30691000D01*
X66410740Y-30691000D01*
X66344557Y-30684481D01*
X66278373Y-30677963D01*
X66108534Y-30626443D01*
X65952009Y-30542778D01*
X65916271Y-30513448D01*
X65814814Y-30430186D01*
X65731552Y-30328729D01*
X65702222Y-30292991D01*
X65618557Y-30136466D01*
X65567037Y-29966627D01*
X65549641Y-29790000D01*
X65567037Y-29613373D01*
X65618557Y-29443534D01*
X65702222Y-29287009D01*
X65731552Y-29251271D01*
X65814814Y-29149814D01*
X65916271Y-29066552D01*
X65952009Y-29037222D01*
X66108534Y-28953557D01*
X66278373Y-28902037D01*
X66344557Y-28895519D01*
X66410740Y-28889000D01*
X66499260Y-28889000D01*
X66565443Y-28895519D01*
X66565443Y-28895519D01*
G37*
G36*
X64816000Y-28151000D02*
G01*
X63014000Y-28151000D01*
X63014000Y-26349000D01*
X64816000Y-26349000D01*
X64816000Y-28151000D01*
X64816000Y-28151000D01*
G37*
G36*
X66565442Y-26355518D02*
G01*
X66631627Y-26362037D01*
X66801466Y-26413557D01*
X66957991Y-26497222D01*
X66993729Y-26526552D01*
X67095186Y-26609814D01*
X67178448Y-26711271D01*
X67207778Y-26747009D01*
X67291443Y-26903534D01*
X67342963Y-27073373D01*
X67360359Y-27250000D01*
X67342963Y-27426627D01*
X67291443Y-27596466D01*
X67207778Y-27752991D01*
X67178448Y-27788729D01*
X67095186Y-27890186D01*
X66993729Y-27973448D01*
X66957991Y-28002778D01*
X66801466Y-28086443D01*
X66631627Y-28137963D01*
X66565443Y-28144481D01*
X66499260Y-28151000D01*
X66410740Y-28151000D01*
X66344557Y-28144481D01*
X66278373Y-28137963D01*
X66108534Y-28086443D01*
X65952009Y-28002778D01*
X65916271Y-27973448D01*
X65814814Y-27890186D01*
X65731552Y-27788729D01*
X65702222Y-27752991D01*
X65618557Y-27596466D01*
X65567037Y-27426627D01*
X65549641Y-27250000D01*
X65567037Y-27073373D01*
X65618557Y-26903534D01*
X65702222Y-26747009D01*
X65731552Y-26711271D01*
X65814814Y-26609814D01*
X65916271Y-26526552D01*
X65952009Y-26497222D01*
X66108534Y-26413557D01*
X66278373Y-26362037D01*
X66344557Y-26355519D01*
X66410740Y-26349000D01*
X66499260Y-26349000D01*
X66565442Y-26355518D01*
X66565442Y-26355518D01*
G37*
M02*
